<?xml version="1.0" encoding="UTF-8" standalone="no"?>
<!-- Created with Inkscape (http://www.inkscape.org/) -->
<svg
   xmlns:dc="http://purl.org/dc/elements/1.1/"
   xmlns:cc="http://creativecommons.org/ns#"
   xmlns:rdf="http://www.w3.org/1999/02/22-rdf-syntax-ns#"
   xmlns:svg="http://www.w3.org/2000/svg"
   xmlns="http://www.w3.org/2000/svg"
   xmlns:xlink="http://www.w3.org/1999/xlink"
   xmlns:sodipodi="http://sodipodi.sourceforge.net/DTD/sodipodi-0.dtd"
   xmlns:inkscape="http://www.inkscape.org/namespaces/inkscape"
   width="640"
   height="480"
   id="svg2"
   sodipodi:version="0.32"
   inkscape:version="0.46"
   sodipodi:docname="bg1.svg"
   inkscape:output_extension="org.inkscape.output.svg.inkscape"
   inkscape:export-filename="C:\Users\Jesper\Documents\Visual Studio 2008\Projects\L2Stack\Debug\data\bg1.png"
   inkscape:export-xdpi="90"
   inkscape:export-ydpi="90"
   version="1.0">
  <defs
     id="defs4">
    <linearGradient
       id="linearGradient4269">
      <stop
         style="stop-color:#052c19;stop-opacity:0;"
         offset="0"
         id="stop4271" />
      <stop
         id="stop4277"
         offset="0.65277779"
         style="stop-color:#052c19;stop-opacity:0;" />
      <stop
         style="stop-color:#052c19;stop-opacity:0.52252251;"
         offset="1"
         id="stop4273" />
    </linearGradient>
    <linearGradient
       id="linearGradient3537">
      <stop
         style="stop-color:#5fd3bc;stop-opacity:0;"
         offset="0"
         id="stop3539" />
      <stop
         id="stop3599"
         offset="0.5"
         style="stop-color:#5cd39b;stop-opacity:0;" />
      <stop
         style="stop-color:#59d37a;stop-opacity:0.63302749;"
         offset="1"
         id="stop3541" />
    </linearGradient>
    <inkscape:perspective
       sodipodi:type="inkscape:persp3d"
       inkscape:vp_x="0 : 526.18109 : 1"
       inkscape:vp_y="0 : 1000 : 0"
       inkscape:vp_z="744.09448 : 526.18109 : 1"
       inkscape:persp3d-origin="372.04724 : 350.78739 : 1"
       id="perspective10" />
    <radialGradient
       inkscape:collect="always"
       xlink:href="#linearGradient4269"
       id="radialGradient4275"
       cx="372.97723"
       cy="520.24182"
       fx="372.97723"
       fy="520.24182"
       r="339.50656"
       gradientTransform="matrix(0.9425444,0,0,0.7069083,1.9230786,167.23394)"
       gradientUnits="userSpaceOnUse" />
  </defs>
  <sodipodi:namedview
     id="base"
     pagecolor="#ffffff"
     bordercolor="#666666"
     borderopacity="1.0"
     gridtolerance="10000"
     guidetolerance="10"
     objecttolerance="10"
     inkscape:pageopacity="0.0"
     inkscape:pageshadow="2"
     inkscape:zoom="0.8722555"
     inkscape:cx="370.71429"
     inkscape:cy="193.3601"
     inkscape:document-units="px"
     inkscape:current-layer="layer1"
     showgrid="false"
     inkscape:window-width="1680"
     inkscape:window-height="1000"
     inkscape:window-x="0"
     inkscape:window-y="14" />
  <metadata
     id="metadata7">
    <rdf:RDF>
      <cc:Work
         rdf:about="">
        <dc:format>image/svg+xml</dc:format>
        <dc:type
           rdf:resource="http://purl.org/dc/dcmitype/StillImage" />
      </cc:Work>
    </rdf:RDF>
  </metadata>
  <g
     inkscape:label="Layer 1"
     inkscape:groupmode="layer"
     id="layer1"
     transform="translate(-33.470676,-294.99719)">
    <rect
       style="opacity:1;fill:#052c19;fill-opacity:1;stroke:none;stroke-width:18.89999962;stroke-linecap:round;stroke-linejoin:round;stroke-miterlimit:4;stroke-dasharray:none;stroke-opacity:1"
       id="rect2465"
       width="640"
       height="480"
       x="33.470676"
       y="294.99713"
       ry="0" />
    <g
       id="g3942"
       transform="matrix(0.9804084,0,0,0.9804084,-5.3709467,-18.356235)">
      <path
         sodipodi:nodetypes="ccsssszssssssszc"
         id="path3914"
         d="M 343.08734,643.43419 C 334.7132,657.88481 343.00091,665.79507 352.80834,649.72422 C 362.61578,633.65336 365.57728,624.01222 369.91121,610.59432 C 374.8393,595.33682 377.30724,578.67075 376.16024,562.73751 C 375.12777,548.39512 370.81675,533.68718 363.54416,521.07578 C 351.62805,500.41191 333.08773,473.15709 337.00329,447.50498 C 340.43241,425.03961 348.82743,404.05234 372.64452,391.66386 C 397.31468,378.83165 393.93182,344.24713 382.50748,331.81191 C 373.00861,321.47254 358.93204,314.06122 346.6063,315.89175 C 330.75782,318.24544 318.61187,325.71108 314.29544,342.37146 C 310.25582,357.96342 314.95412,375.26003 326.77609,385.82101 C 340.57808,398.15081 331.76129,414.45756 328.22542,428.98649 C 323.70276,447.57014 323.33988,469.20732 332.78291,486.36189 C 343.74665,506.279 351.83601,521.24566 361.15837,542.08397 C 369.04969,559.72343 366.10461,584.03526 360.20426,602.94143 C 354.09159,622.52792 351.46149,628.98357 343.08734,643.43419 z"
         style="fill:#119f5a;fill-opacity:1;fill-rule:evenodd;stroke:#000000;stroke-width:3.90100002;stroke-linecap:butt;stroke-linejoin:miter;stroke-miterlimit:4;stroke-dasharray:none;stroke-opacity:1" />
      <path
         sodipodi:nodetypes="czzzzzzzzz"
         id="path3922"
         d="M 356.84382,325.93362 C 349.54247,324.82351 339.75721,325.19995 332.68056,331.7997 C 325.60391,338.39945 323.69454,343.31202 323.14202,346.59326 C 322.5895,349.8745 321.4386,352.69746 321.92416,355.09355 C 322.40972,357.48964 324.273,357.63776 326.7156,355.06325 C 329.1582,352.48873 331.58647,347.889 336.84382,343.14068 C 342.21182,338.29243 350.65697,336.16613 355.94891,335.92287 C 361.24085,335.67961 362.77384,336.04136 365.68673,335.0035 C 368.59962,333.96564 370.9069,333.68363 368.82879,331.31246 C 366.64845,328.82463 364.14517,327.04373 356.84382,325.93362 z"
         style="fill:#ffffff;fill-opacity:0.70744683;fill-rule:evenodd;stroke:none;stroke-width:1px;stroke-linecap:butt;stroke-linejoin:miter;stroke-opacity:0.48387098" />
      <path
         sodipodi:nodetypes="cssz"
         id="path3924"
         d="M 372.85714,373.07647 C 375.19554,376.69153 369.53156,380.83527 365.71429,382.36218 C 359.59316,384.81063 364.11854,374.67221 365,373.79075 C 367.71293,371.07782 370.36632,369.22577 372.85714,373.07647 z"
         style="fill:#ffffff;fill-opacity:0.5585104;fill-rule:evenodd;stroke:none;stroke-width:1px;stroke-linecap:butt;stroke-linejoin:miter;stroke-opacity:1" />
    </g>
    <g
       id="g3947"
       transform="matrix(0.9804084,0,0,0.9804084,30.511329,81.722778)">
      <path
         sodipodi:nodetypes="ccsssszssssssszc"
         id="path3949"
         d="M 343.08734,643.43419 C 334.7132,657.88481 343.00091,665.79507 352.80834,649.72422 C 362.61578,633.65336 365.57728,624.01222 369.91121,610.59432 C 374.8393,595.33682 377.30724,578.67075 376.16024,562.73751 C 375.12777,548.39512 370.81675,533.68718 363.54416,521.07578 C 351.62805,500.41191 333.08773,473.15709 337.00329,447.50498 C 340.43241,425.03961 348.82743,404.05234 372.64452,391.66386 C 397.31468,378.83165 393.93182,344.24713 382.50748,331.81191 C 373.00861,321.47254 358.93204,314.06122 346.6063,315.89175 C 330.75782,318.24544 318.61187,325.71108 314.29544,342.37146 C 310.25582,357.96342 314.95412,375.26003 326.77609,385.82101 C 340.57808,398.15081 331.76129,414.45756 328.22542,428.98649 C 323.70276,447.57014 323.33988,469.20732 332.78291,486.36189 C 343.74665,506.279 351.83601,521.24566 361.15837,542.08397 C 369.04969,559.72343 366.10461,584.03526 360.20426,602.94143 C 354.09159,622.52792 351.46149,628.98357 343.08734,643.43419 z"
         style="fill:#119f5a;fill-opacity:1;fill-rule:evenodd;stroke:#000000;stroke-width:3.90100002;stroke-linecap:butt;stroke-linejoin:miter;stroke-miterlimit:4;stroke-dasharray:none;stroke-opacity:1" />
      <path
         sodipodi:nodetypes="czzzzzzzzz"
         id="path3951"
         d="M 356.84382,325.93362 C 349.54247,324.82351 339.75721,325.19995 332.68056,331.7997 C 325.60391,338.39945 323.69454,343.31202 323.14202,346.59326 C 322.5895,349.8745 321.4386,352.69746 321.92416,355.09355 C 322.40972,357.48964 324.273,357.63776 326.7156,355.06325 C 329.1582,352.48873 331.58647,347.889 336.84382,343.14068 C 342.21182,338.29243 350.65697,336.16613 355.94891,335.92287 C 361.24085,335.67961 362.77384,336.04136 365.68673,335.0035 C 368.59962,333.96564 370.9069,333.68363 368.82879,331.31246 C 366.64845,328.82463 364.14517,327.04373 356.84382,325.93362 z"
         style="fill:#ffffff;fill-opacity:0.70744683;fill-rule:evenodd;stroke:none;stroke-width:1px;stroke-linecap:butt;stroke-linejoin:miter;stroke-opacity:0.48387098" />
      <path
         sodipodi:nodetypes="cssz"
         id="path3953"
         d="M 372.85714,373.07647 C 375.19554,376.69153 369.53156,380.83527 365.71429,382.36218 C 359.59316,384.81063 364.11854,374.67221 365,373.79075 C 367.71293,371.07782 370.36632,369.22577 372.85714,373.07647 z"
         style="fill:#ffffff;fill-opacity:0.5585104;fill-rule:evenodd;stroke:none;stroke-width:1px;stroke-linecap:butt;stroke-linejoin:miter;stroke-opacity:1" />
    </g>
    <g
       id="g3955"
       transform="matrix(0.9804084,0,0,0.9804084,-4.3324294,157.03026)">
      <path
         sodipodi:nodetypes="ccsssszssssssszc"
         id="path3957"
         d="M 343.08734,643.43419 C 334.7132,657.88481 343.00091,665.79507 352.80834,649.72422 C 362.61578,633.65336 365.57728,624.01222 369.91121,610.59432 C 374.8393,595.33682 377.30724,578.67075 376.16024,562.73751 C 375.12777,548.39512 370.81675,533.68718 363.54416,521.07578 C 351.62805,500.41191 333.08773,473.15709 337.00329,447.50498 C 340.43241,425.03961 348.82743,404.05234 372.64452,391.66386 C 397.31468,378.83165 393.93182,344.24713 382.50748,331.81191 C 373.00861,321.47254 358.93204,314.06122 346.6063,315.89175 C 330.75782,318.24544 318.61187,325.71108 314.29544,342.37146 C 310.25582,357.96342 314.95412,375.26003 326.77609,385.82101 C 340.57808,398.15081 331.76129,414.45756 328.22542,428.98649 C 323.70276,447.57014 323.33988,469.20732 332.78291,486.36189 C 343.74665,506.279 351.83601,521.24566 361.15837,542.08397 C 369.04969,559.72343 366.10461,584.03526 360.20426,602.94143 C 354.09159,622.52792 351.46149,628.98357 343.08734,643.43419 z"
         style="fill:#119f5a;fill-opacity:1;fill-rule:evenodd;stroke:#000000;stroke-width:3.90100002;stroke-linecap:butt;stroke-linejoin:miter;stroke-miterlimit:4;stroke-dasharray:none;stroke-opacity:1" />
      <path
         sodipodi:nodetypes="czzzzzzzzz"
         id="path3959"
         d="M 356.84382,325.93362 C 349.54247,324.82351 339.75721,325.19995 332.68056,331.7997 C 325.60391,338.39945 323.69454,343.31202 323.14202,346.59326 C 322.5895,349.8745 321.4386,352.69746 321.92416,355.09355 C 322.40972,357.48964 324.273,357.63776 326.7156,355.06325 C 329.1582,352.48873 331.58647,347.889 336.84382,343.14068 C 342.21182,338.29243 350.65697,336.16613 355.94891,335.92287 C 361.24085,335.67961 362.77384,336.04136 365.68673,335.0035 C 368.59962,333.96564 370.9069,333.68363 368.82879,331.31246 C 366.64845,328.82463 364.14517,327.04373 356.84382,325.93362 z"
         style="fill:#ffffff;fill-opacity:0.70744683;fill-rule:evenodd;stroke:none;stroke-width:1px;stroke-linecap:butt;stroke-linejoin:miter;stroke-opacity:0.48387098" />
      <path
         sodipodi:nodetypes="cssz"
         id="path3961"
         d="M 372.85714,373.07647 C 375.19554,376.69153 369.53156,380.83527 365.71429,382.36218 C 359.59316,384.81063 364.11854,374.67221 365,373.79075 C 367.71293,371.07782 370.36632,369.22577 372.85714,373.07647 z"
         style="fill:#ffffff;fill-opacity:0.5585104;fill-rule:evenodd;stroke:none;stroke-width:1px;stroke-linecap:butt;stroke-linejoin:miter;stroke-opacity:1" />
    </g>
    <g
       id="g3963"
       transform="matrix(0.9804084,0,0,0.9804084,96.826868,-39.668375)">
      <path
         sodipodi:nodetypes="ccsssszssssssszc"
         id="path3965"
         d="M 343.08734,643.43419 C 334.7132,657.88481 343.00091,665.79507 352.80834,649.72422 C 362.61578,633.65336 365.57728,624.01222 369.91121,610.59432 C 374.8393,595.33682 377.30724,578.67075 376.16024,562.73751 C 375.12777,548.39512 370.81675,533.68718 363.54416,521.07578 C 351.62805,500.41191 333.08773,473.15709 337.00329,447.50498 C 340.43241,425.03961 348.82743,404.05234 372.64452,391.66386 C 397.31468,378.83165 393.93182,344.24713 382.50748,331.81191 C 373.00861,321.47254 358.93204,314.06122 346.6063,315.89175 C 330.75782,318.24544 318.61187,325.71108 314.29544,342.37146 C 310.25582,357.96342 314.95412,375.26003 326.77609,385.82101 C 340.57808,398.15081 331.76129,414.45756 328.22542,428.98649 C 323.70276,447.57014 323.33988,469.20732 332.78291,486.36189 C 343.74665,506.279 351.83601,521.24566 361.15837,542.08397 C 369.04969,559.72343 366.10461,584.03526 360.20426,602.94143 C 354.09159,622.52792 351.46149,628.98357 343.08734,643.43419 z"
         style="fill:#119f5a;fill-opacity:1;fill-rule:evenodd;stroke:#000000;stroke-width:3.90100002;stroke-linecap:butt;stroke-linejoin:miter;stroke-miterlimit:4;stroke-dasharray:none;stroke-opacity:1" />
      <path
         sodipodi:nodetypes="czzzzzzzzz"
         id="path3967"
         d="M 356.84382,325.93362 C 349.54247,324.82351 339.75721,325.19995 332.68056,331.7997 C 325.60391,338.39945 323.69454,343.31202 323.14202,346.59326 C 322.5895,349.8745 321.4386,352.69746 321.92416,355.09355 C 322.40972,357.48964 324.273,357.63776 326.7156,355.06325 C 329.1582,352.48873 331.58647,347.889 336.84382,343.14068 C 342.21182,338.29243 350.65697,336.16613 355.94891,335.92287 C 361.24085,335.67961 362.77384,336.04136 365.68673,335.0035 C 368.59962,333.96564 370.9069,333.68363 368.82879,331.31246 C 366.64845,328.82463 364.14517,327.04373 356.84382,325.93362 z"
         style="fill:#ffffff;fill-opacity:0.70744683;fill-rule:evenodd;stroke:none;stroke-width:1px;stroke-linecap:butt;stroke-linejoin:miter;stroke-opacity:0.48387098" />
      <path
         sodipodi:nodetypes="cssz"
         id="path3969"
         d="M 372.85714,373.07647 C 375.19554,376.69153 369.53156,380.83527 365.71429,382.36218 C 359.59316,384.81063 364.11854,374.67221 365,373.79075 C 367.71293,371.07782 370.36632,369.22577 372.85714,373.07647 z"
         style="fill:#ffffff;fill-opacity:0.5585104;fill-rule:evenodd;stroke:none;stroke-width:1px;stroke-linecap:butt;stroke-linejoin:miter;stroke-opacity:1" />
    </g>
    <g
       id="g3971"
       transform="matrix(0.9804084,0,0,0.9804084,76.59501,36.76309)">
      <path
         sodipodi:nodetypes="ccsssszssssssszc"
         id="path3973"
         d="M 343.08734,643.43419 C 334.7132,657.88481 343.00091,665.79507 352.80834,649.72422 C 362.61578,633.65336 365.57728,624.01222 369.91121,610.59432 C 374.8393,595.33682 377.30724,578.67075 376.16024,562.73751 C 375.12777,548.39512 370.81675,533.68718 363.54416,521.07578 C 351.62805,500.41191 333.08773,473.15709 337.00329,447.50498 C 340.43241,425.03961 348.82743,404.05234 372.64452,391.66386 C 397.31468,378.83165 393.93182,344.24713 382.50748,331.81191 C 373.00861,321.47254 358.93204,314.06122 346.6063,315.89175 C 330.75782,318.24544 318.61187,325.71108 314.29544,342.37146 C 310.25582,357.96342 314.95412,375.26003 326.77609,385.82101 C 340.57808,398.15081 331.76129,414.45756 328.22542,428.98649 C 323.70276,447.57014 323.33988,469.20732 332.78291,486.36189 C 343.74665,506.279 351.83601,521.24566 361.15837,542.08397 C 369.04969,559.72343 366.10461,584.03526 360.20426,602.94143 C 354.09159,622.52792 351.46149,628.98357 343.08734,643.43419 z"
         style="fill:#119f5a;fill-opacity:1;fill-rule:evenodd;stroke:#000000;stroke-width:3.90100002;stroke-linecap:butt;stroke-linejoin:miter;stroke-miterlimit:4;stroke-dasharray:none;stroke-opacity:1" />
      <path
         sodipodi:nodetypes="czzzzzzzzz"
         id="path3975"
         d="M 356.84382,325.93362 C 349.54247,324.82351 339.75721,325.19995 332.68056,331.7997 C 325.60391,338.39945 323.69454,343.31202 323.14202,346.59326 C 322.5895,349.8745 321.4386,352.69746 321.92416,355.09355 C 322.40972,357.48964 324.273,357.63776 326.7156,355.06325 C 329.1582,352.48873 331.58647,347.889 336.84382,343.14068 C 342.21182,338.29243 350.65697,336.16613 355.94891,335.92287 C 361.24085,335.67961 362.77384,336.04136 365.68673,335.0035 C 368.59962,333.96564 370.9069,333.68363 368.82879,331.31246 C 366.64845,328.82463 364.14517,327.04373 356.84382,325.93362 z"
         style="fill:#ffffff;fill-opacity:0.70744683;fill-rule:evenodd;stroke:none;stroke-width:1px;stroke-linecap:butt;stroke-linejoin:miter;stroke-opacity:0.48387098" />
      <path
         sodipodi:nodetypes="cssz"
         id="path3977"
         d="M 372.85714,373.07647 C 375.19554,376.69153 369.53156,380.83527 365.71429,382.36218 C 359.59316,384.81063 364.11854,374.67221 365,373.79075 C 367.71293,371.07782 370.36632,369.22577 372.85714,373.07647 z"
         style="fill:#ffffff;fill-opacity:0.5585104;fill-rule:evenodd;stroke:none;stroke-width:1px;stroke-linecap:butt;stroke-linejoin:miter;stroke-opacity:1" />
    </g>
    <g
       id="g3987"
       transform="matrix(0.9804084,0,0,0.9804084,-45.920141,22.151192)">
      <path
         sodipodi:nodetypes="ccsssszssssssszc"
         id="path3989"
         d="M 343.08734,643.43419 C 334.7132,657.88481 343.00091,665.79507 352.80834,649.72422 C 362.61578,633.65336 365.57728,624.01222 369.91121,610.59432 C 374.8393,595.33682 377.30724,578.67075 376.16024,562.73751 C 375.12777,548.39512 370.81675,533.68718 363.54416,521.07578 C 351.62805,500.41191 333.08773,473.15709 337.00329,447.50498 C 340.43241,425.03961 348.82743,404.05234 372.64452,391.66386 C 397.31468,378.83165 393.93182,344.24713 382.50748,331.81191 C 373.00861,321.47254 358.93204,314.06122 346.6063,315.89175 C 330.75782,318.24544 318.61187,325.71108 314.29544,342.37146 C 310.25582,357.96342 314.95412,375.26003 326.77609,385.82101 C 340.57808,398.15081 331.76129,414.45756 328.22542,428.98649 C 323.70276,447.57014 323.33988,469.20732 332.78291,486.36189 C 343.74665,506.279 351.83601,521.24566 361.15837,542.08397 C 369.04969,559.72343 366.10461,584.03526 360.20426,602.94143 C 354.09159,622.52792 351.46149,628.98357 343.08734,643.43419 z"
         style="fill:#119f5a;fill-opacity:1;fill-rule:evenodd;stroke:#000000;stroke-width:3.90100002;stroke-linecap:butt;stroke-linejoin:miter;stroke-miterlimit:4;stroke-dasharray:none;stroke-opacity:1" />
      <path
         sodipodi:nodetypes="czzzzzzzzz"
         id="path3991"
         d="M 356.84382,325.93362 C 349.54247,324.82351 339.75721,325.19995 332.68056,331.7997 C 325.60391,338.39945 323.69454,343.31202 323.14202,346.59326 C 322.5895,349.8745 321.4386,352.69746 321.92416,355.09355 C 322.40972,357.48964 324.273,357.63776 326.7156,355.06325 C 329.1582,352.48873 331.58647,347.889 336.84382,343.14068 C 342.21182,338.29243 350.65697,336.16613 355.94891,335.92287 C 361.24085,335.67961 362.77384,336.04136 365.68673,335.0035 C 368.59962,333.96564 370.9069,333.68363 368.82879,331.31246 C 366.64845,328.82463 364.14517,327.04373 356.84382,325.93362 z"
         style="fill:#ffffff;fill-opacity:0.70744683;fill-rule:evenodd;stroke:none;stroke-width:1px;stroke-linecap:butt;stroke-linejoin:miter;stroke-opacity:0.48387098" />
      <path
         sodipodi:nodetypes="cssz"
         id="path3993"
         d="M 372.85714,373.07647 C 375.19554,376.69153 369.53156,380.83527 365.71429,382.36218 C 359.59316,384.81063 364.11854,374.67221 365,373.79075 C 367.71293,371.07782 370.36632,369.22577 372.85714,373.07647 z"
         style="fill:#ffffff;fill-opacity:0.5585104;fill-rule:evenodd;stroke:none;stroke-width:1px;stroke-linecap:butt;stroke-linejoin:miter;stroke-opacity:1" />
    </g>
    <g
       id="g3995"
       transform="matrix(0.9804084,0,0,0.9804084,-113.35968,48.003012)">
      <path
         sodipodi:nodetypes="ccsssszssssssszc"
         id="path3997"
         d="M 343.08734,643.43419 C 334.7132,657.88481 343.00091,665.79507 352.80834,649.72422 C 362.61578,633.65336 365.57728,624.01222 369.91121,610.59432 C 374.8393,595.33682 377.30724,578.67075 376.16024,562.73751 C 375.12777,548.39512 370.81675,533.68718 363.54416,521.07578 C 351.62805,500.41191 333.08773,473.15709 337.00329,447.50498 C 340.43241,425.03961 348.82743,404.05234 372.64452,391.66386 C 397.31468,378.83165 393.93182,344.24713 382.50748,331.81191 C 373.00861,321.47254 358.93204,314.06122 346.6063,315.89175 C 330.75782,318.24544 318.61187,325.71108 314.29544,342.37146 C 310.25582,357.96342 314.95412,375.26003 326.77609,385.82101 C 340.57808,398.15081 331.76129,414.45756 328.22542,428.98649 C 323.70276,447.57014 323.33988,469.20732 332.78291,486.36189 C 343.74665,506.279 351.83601,521.24566 361.15837,542.08397 C 369.04969,559.72343 366.10461,584.03526 360.20426,602.94143 C 354.09159,622.52792 351.46149,628.98357 343.08734,643.43419 z"
         style="fill:#119f5a;fill-opacity:1;fill-rule:evenodd;stroke:#000000;stroke-width:3.90100002;stroke-linecap:butt;stroke-linejoin:miter;stroke-miterlimit:4;stroke-dasharray:none;stroke-opacity:1" />
      <path
         sodipodi:nodetypes="czzzzzzzzz"
         id="path3999"
         d="M 356.84382,325.93362 C 349.54247,324.82351 339.75721,325.19995 332.68056,331.7997 C 325.60391,338.39945 323.69454,343.31202 323.14202,346.59326 C 322.5895,349.8745 321.4386,352.69746 321.92416,355.09355 C 322.40972,357.48964 324.273,357.63776 326.7156,355.06325 C 329.1582,352.48873 331.58647,347.889 336.84382,343.14068 C 342.21182,338.29243 350.65697,336.16613 355.94891,335.92287 C 361.24085,335.67961 362.77384,336.04136 365.68673,335.0035 C 368.59962,333.96564 370.9069,333.68363 368.82879,331.31246 C 366.64845,328.82463 364.14517,327.04373 356.84382,325.93362 z"
         style="fill:#ffffff;fill-opacity:0.70744683;fill-rule:evenodd;stroke:none;stroke-width:1px;stroke-linecap:butt;stroke-linejoin:miter;stroke-opacity:0.48387098" />
      <path
         sodipodi:nodetypes="cssz"
         id="path4001"
         d="M 372.85714,373.07647 C 375.19554,376.69153 369.53156,380.83527 365.71429,382.36218 C 359.59316,384.81063 364.11854,374.67221 365,373.79075 C 367.71293,371.07782 370.36632,369.22577 372.85714,373.07647 z"
         style="fill:#ffffff;fill-opacity:0.5585104;fill-rule:evenodd;stroke:none;stroke-width:1px;stroke-linecap:butt;stroke-linejoin:miter;stroke-opacity:1" />
    </g>
    <g
       id="g4067"
       transform="matrix(0.9804084,0,0,0.9804084,220.42109,104.20262)">
      <path
         sodipodi:nodetypes="ccsssszssssssszc"
         id="path4069"
         d="M 343.08734,643.43419 C 334.7132,657.88481 343.00091,665.79507 352.80834,649.72422 C 362.61578,633.65336 365.57728,624.01222 369.91121,610.59432 C 374.8393,595.33682 377.30724,578.67075 376.16024,562.73751 C 375.12777,548.39512 370.81675,533.68718 363.54416,521.07578 C 351.62805,500.41191 333.08773,473.15709 337.00329,447.50498 C 340.43241,425.03961 348.82743,404.05234 372.64452,391.66386 C 397.31468,378.83165 393.93182,344.24713 382.50748,331.81191 C 373.00861,321.47254 358.93204,314.06122 346.6063,315.89175 C 330.75782,318.24544 318.61187,325.71108 314.29544,342.37146 C 310.25582,357.96342 314.95412,375.26003 326.77609,385.82101 C 340.57808,398.15081 331.76129,414.45756 328.22542,428.98649 C 323.70276,447.57014 323.33988,469.20732 332.78291,486.36189 C 343.74665,506.279 351.83601,521.24566 361.15837,542.08397 C 369.04969,559.72343 366.10461,584.03526 360.20426,602.94143 C 354.09159,622.52792 351.46149,628.98357 343.08734,643.43419 z"
         style="fill:#119f5a;fill-opacity:1;fill-rule:evenodd;stroke:#000000;stroke-width:3.90100002;stroke-linecap:butt;stroke-linejoin:miter;stroke-miterlimit:4;stroke-dasharray:none;stroke-opacity:1" />
      <path
         sodipodi:nodetypes="czzzzzzzzz"
         id="path4071"
         d="M 356.84382,325.93362 C 349.54247,324.82351 339.75721,325.19995 332.68056,331.7997 C 325.60391,338.39945 323.69454,343.31202 323.14202,346.59326 C 322.5895,349.8745 321.4386,352.69746 321.92416,355.09355 C 322.40972,357.48964 324.273,357.63776 326.7156,355.06325 C 329.1582,352.48873 331.58647,347.889 336.84382,343.14068 C 342.21182,338.29243 350.65697,336.16613 355.94891,335.92287 C 361.24085,335.67961 362.77384,336.04136 365.68673,335.0035 C 368.59962,333.96564 370.9069,333.68363 368.82879,331.31246 C 366.64845,328.82463 364.14517,327.04373 356.84382,325.93362 z"
         style="fill:#ffffff;fill-opacity:0.70744683;fill-rule:evenodd;stroke:none;stroke-width:1px;stroke-linecap:butt;stroke-linejoin:miter;stroke-opacity:0.48387098" />
      <path
         sodipodi:nodetypes="cssz"
         id="path4073"
         d="M 372.85714,373.07647 C 375.19554,376.69153 369.53156,380.83527 365.71429,382.36218 C 359.59316,384.81063 364.11854,374.67221 365,373.79075 C 367.71293,371.07782 370.36632,369.22577 372.85714,373.07647 z"
         style="fill:#ffffff;fill-opacity:0.5585104;fill-rule:evenodd;stroke:none;stroke-width:1px;stroke-linecap:butt;stroke-linejoin:miter;stroke-opacity:1" />
    </g>
    <g
       id="g4011"
       transform="matrix(0.9804084,0,0,0.9804084,163.14241,189.62604)">
      <path
         sodipodi:nodetypes="ccsssszssssssszc"
         id="path4013"
         d="M 343.08734,643.43419 C 334.7132,657.88481 343.00091,665.79507 352.80834,649.72422 C 362.61578,633.65336 365.57728,624.01222 369.91121,610.59432 C 374.8393,595.33682 377.30724,578.67075 376.16024,562.73751 C 375.12777,548.39512 370.81675,533.68718 363.54416,521.07578 C 351.62805,500.41191 333.08773,473.15709 337.00329,447.50498 C 340.43241,425.03961 348.82743,404.05234 372.64452,391.66386 C 397.31468,378.83165 393.93182,344.24713 382.50748,331.81191 C 373.00861,321.47254 358.93204,314.06122 346.6063,315.89175 C 330.75782,318.24544 318.61187,325.71108 314.29544,342.37146 C 310.25582,357.96342 314.95412,375.26003 326.77609,385.82101 C 340.57808,398.15081 331.76129,414.45756 328.22542,428.98649 C 323.70276,447.57014 323.33988,469.20732 332.78291,486.36189 C 343.74665,506.279 351.83601,521.24566 361.15837,542.08397 C 369.04969,559.72343 366.10461,584.03526 360.20426,602.94143 C 354.09159,622.52792 351.46149,628.98357 343.08734,643.43419 z"
         style="fill:#119f5a;fill-opacity:1;fill-rule:evenodd;stroke:#000000;stroke-width:3.90100002;stroke-linecap:butt;stroke-linejoin:miter;stroke-miterlimit:4;stroke-dasharray:none;stroke-opacity:1" />
      <path
         sodipodi:nodetypes="czzzzzzzzz"
         id="path4015"
         d="M 356.84382,325.93362 C 349.54247,324.82351 339.75721,325.19995 332.68056,331.7997 C 325.60391,338.39945 323.69454,343.31202 323.14202,346.59326 C 322.5895,349.8745 321.4386,352.69746 321.92416,355.09355 C 322.40972,357.48964 324.273,357.63776 326.7156,355.06325 C 329.1582,352.48873 331.58647,347.889 336.84382,343.14068 C 342.21182,338.29243 350.65697,336.16613 355.94891,335.92287 C 361.24085,335.67961 362.77384,336.04136 365.68673,335.0035 C 368.59962,333.96564 370.9069,333.68363 368.82879,331.31246 C 366.64845,328.82463 364.14517,327.04373 356.84382,325.93362 z"
         style="fill:#ffffff;fill-opacity:0.70744683;fill-rule:evenodd;stroke:none;stroke-width:1px;stroke-linecap:butt;stroke-linejoin:miter;stroke-opacity:0.48387098" />
      <path
         sodipodi:nodetypes="cssz"
         id="path4017"
         d="M 372.85714,373.07647 C 375.19554,376.69153 369.53156,380.83527 365.71429,382.36218 C 359.59316,384.81063 364.11854,374.67221 365,373.79075 C 367.71293,371.07782 370.36632,369.22577 372.85714,373.07647 z"
         style="fill:#ffffff;fill-opacity:0.5585104;fill-rule:evenodd;stroke:none;stroke-width:1px;stroke-linecap:butt;stroke-linejoin:miter;stroke-opacity:1" />
    </g>
    <g
       id="g4027"
       transform="matrix(0.9804084,0,0,0.9804084,-50.416109,246.94964)">
      <path
         sodipodi:nodetypes="ccsssszssssssszc"
         id="path4029"
         d="M 343.08734,643.43419 C 334.7132,657.88481 343.00091,665.79507 352.80834,649.72422 C 362.61578,633.65336 365.57728,624.01222 369.91121,610.59432 C 374.8393,595.33682 377.30724,578.67075 376.16024,562.73751 C 375.12777,548.39512 370.81675,533.68718 363.54416,521.07578 C 351.62805,500.41191 333.08773,473.15709 337.00329,447.50498 C 340.43241,425.03961 348.82743,404.05234 372.64452,391.66386 C 397.31468,378.83165 393.93182,344.24713 382.50748,331.81191 C 373.00861,321.47254 358.93204,314.06122 346.6063,315.89175 C 330.75782,318.24544 318.61187,325.71108 314.29544,342.37146 C 310.25582,357.96342 314.95412,375.26003 326.77609,385.82101 C 340.57808,398.15081 331.76129,414.45756 328.22542,428.98649 C 323.70276,447.57014 323.33988,469.20732 332.78291,486.36189 C 343.74665,506.279 351.83601,521.24566 361.15837,542.08397 C 369.04969,559.72343 366.10461,584.03526 360.20426,602.94143 C 354.09159,622.52792 351.46149,628.98357 343.08734,643.43419 z"
         style="fill:#119f5a;fill-opacity:1;fill-rule:evenodd;stroke:#000000;stroke-width:3.90100002;stroke-linecap:butt;stroke-linejoin:miter;stroke-miterlimit:4;stroke-dasharray:none;stroke-opacity:1" />
      <path
         sodipodi:nodetypes="czzzzzzzzz"
         id="path4031"
         d="M 356.84382,325.93362 C 349.54247,324.82351 339.75721,325.19995 332.68056,331.7997 C 325.60391,338.39945 323.69454,343.31202 323.14202,346.59326 C 322.5895,349.8745 321.4386,352.69746 321.92416,355.09355 C 322.40972,357.48964 324.273,357.63776 326.7156,355.06325 C 329.1582,352.48873 331.58647,347.889 336.84382,343.14068 C 342.21182,338.29243 350.65697,336.16613 355.94891,335.92287 C 361.24085,335.67961 362.77384,336.04136 365.68673,335.0035 C 368.59962,333.96564 370.9069,333.68363 368.82879,331.31246 C 366.64845,328.82463 364.14517,327.04373 356.84382,325.93362 z"
         style="fill:#ffffff;fill-opacity:0.70744683;fill-rule:evenodd;stroke:none;stroke-width:1px;stroke-linecap:butt;stroke-linejoin:miter;stroke-opacity:0.48387098" />
      <path
         sodipodi:nodetypes="cssz"
         id="path4033"
         d="M 372.85714,373.07647 C 375.19554,376.69153 369.53156,380.83527 365.71429,382.36218 C 359.59316,384.81063 364.11854,374.67221 365,373.79075 C 367.71293,371.07782 370.36632,369.22577 372.85714,373.07647 z"
         style="fill:#ffffff;fill-opacity:0.5585104;fill-rule:evenodd;stroke:none;stroke-width:1px;stroke-linecap:butt;stroke-linejoin:miter;stroke-opacity:1" />
    </g>
    <g
       id="g4035"
       transform="matrix(0.9804084,0,0,0.9804084,-149.32742,303.14925)">
      <path
         sodipodi:nodetypes="ccsssszssssssszc"
         id="path4037"
         d="M 343.08734,643.43419 C 334.7132,657.88481 343.00091,665.79507 352.80834,649.72422 C 362.61578,633.65336 365.57728,624.01222 369.91121,610.59432 C 374.8393,595.33682 377.30724,578.67075 376.16024,562.73751 C 375.12777,548.39512 370.81675,533.68718 363.54416,521.07578 C 351.62805,500.41191 333.08773,473.15709 337.00329,447.50498 C 340.43241,425.03961 348.82743,404.05234 372.64452,391.66386 C 397.31468,378.83165 393.93182,344.24713 382.50748,331.81191 C 373.00861,321.47254 358.93204,314.06122 346.6063,315.89175 C 330.75782,318.24544 318.61187,325.71108 314.29544,342.37146 C 310.25582,357.96342 314.95412,375.26003 326.77609,385.82101 C 340.57808,398.15081 331.76129,414.45756 328.22542,428.98649 C 323.70276,447.57014 323.33988,469.20732 332.78291,486.36189 C 343.74665,506.279 351.83601,521.24566 361.15837,542.08397 C 369.04969,559.72343 366.10461,584.03526 360.20426,602.94143 C 354.09159,622.52792 351.46149,628.98357 343.08734,643.43419 z"
         style="fill:#119f5a;fill-opacity:1;fill-rule:evenodd;stroke:#000000;stroke-width:3.90100002;stroke-linecap:butt;stroke-linejoin:miter;stroke-miterlimit:4;stroke-dasharray:none;stroke-opacity:1" />
      <path
         sodipodi:nodetypes="czzzzzzzzz"
         id="path4039"
         d="M 356.84382,325.93362 C 349.54247,324.82351 339.75721,325.19995 332.68056,331.7997 C 325.60391,338.39945 323.69454,343.31202 323.14202,346.59326 C 322.5895,349.8745 321.4386,352.69746 321.92416,355.09355 C 322.40972,357.48964 324.273,357.63776 326.7156,355.06325 C 329.1582,352.48873 331.58647,347.889 336.84382,343.14068 C 342.21182,338.29243 350.65697,336.16613 355.94891,335.92287 C 361.24085,335.67961 362.77384,336.04136 365.68673,335.0035 C 368.59962,333.96564 370.9069,333.68363 368.82879,331.31246 C 366.64845,328.82463 364.14517,327.04373 356.84382,325.93362 z"
         style="fill:#ffffff;fill-opacity:0.70744683;fill-rule:evenodd;stroke:none;stroke-width:1px;stroke-linecap:butt;stroke-linejoin:miter;stroke-opacity:0.48387098" />
      <path
         sodipodi:nodetypes="cssz"
         id="path4041"
         d="M 372.85714,373.07647 C 375.19554,376.69153 369.53156,380.83527 365.71429,382.36218 C 359.59316,384.81063 364.11854,374.67221 365,373.79075 C 367.71293,371.07782 370.36632,369.22577 372.85714,373.07647 z"
         style="fill:#ffffff;fill-opacity:0.5585104;fill-rule:evenodd;stroke:none;stroke-width:1px;stroke-linecap:butt;stroke-linejoin:miter;stroke-opacity:1" />
    </g>
    <g
       id="g4059"
       transform="matrix(0.9804084,0,0,0.9804084,-206.65103,105.32662)">
      <path
         sodipodi:nodetypes="ccsssszssssssszc"
         id="path4061"
         d="M 343.08734,643.43419 C 334.7132,657.88481 343.00091,665.79507 352.80834,649.72422 C 362.61578,633.65336 365.57728,624.01222 369.91121,610.59432 C 374.8393,595.33682 377.30724,578.67075 376.16024,562.73751 C 375.12777,548.39512 370.81675,533.68718 363.54416,521.07578 C 351.62805,500.41191 333.08773,473.15709 337.00329,447.50498 C 340.43241,425.03961 348.82743,404.05234 372.64452,391.66386 C 397.31468,378.83165 393.93182,344.24713 382.50748,331.81191 C 373.00861,321.47254 358.93204,314.06122 346.6063,315.89175 C 330.75782,318.24544 318.61187,325.71108 314.29544,342.37146 C 310.25582,357.96342 314.95412,375.26003 326.77609,385.82101 C 340.57808,398.15081 331.76129,414.45756 328.22542,428.98649 C 323.70276,447.57014 323.33988,469.20732 332.78291,486.36189 C 343.74665,506.279 351.83601,521.24566 361.15837,542.08397 C 369.04969,559.72343 366.10461,584.03526 360.20426,602.94143 C 354.09159,622.52792 351.46149,628.98357 343.08734,643.43419 z"
         style="fill:#119f5a;fill-opacity:1;fill-rule:evenodd;stroke:#000000;stroke-width:3.90100002;stroke-linecap:butt;stroke-linejoin:miter;stroke-miterlimit:4;stroke-dasharray:none;stroke-opacity:1" />
      <path
         sodipodi:nodetypes="czzzzzzzzz"
         id="path4063"
         d="M 356.84382,325.93362 C 349.54247,324.82351 339.75721,325.19995 332.68056,331.7997 C 325.60391,338.39945 323.69454,343.31202 323.14202,346.59326 C 322.5895,349.8745 321.4386,352.69746 321.92416,355.09355 C 322.40972,357.48964 324.273,357.63776 326.7156,355.06325 C 329.1582,352.48873 331.58647,347.889 336.84382,343.14068 C 342.21182,338.29243 350.65697,336.16613 355.94891,335.92287 C 361.24085,335.67961 362.77384,336.04136 365.68673,335.0035 C 368.59962,333.96564 370.9069,333.68363 368.82879,331.31246 C 366.64845,328.82463 364.14517,327.04373 356.84382,325.93362 z"
         style="fill:#ffffff;fill-opacity:0.70744683;fill-rule:evenodd;stroke:none;stroke-width:1px;stroke-linecap:butt;stroke-linejoin:miter;stroke-opacity:0.48387098" />
      <path
         sodipodi:nodetypes="cssz"
         id="path4065"
         d="M 372.85714,373.07647 C 375.19554,376.69153 369.53156,380.83527 365.71429,382.36218 C 359.59316,384.81063 364.11854,374.67221 365,373.79075 C 367.71293,371.07782 370.36632,369.22577 372.85714,373.07647 z"
         style="fill:#ffffff;fill-opacity:0.5585104;fill-rule:evenodd;stroke:none;stroke-width:1px;stroke-linecap:butt;stroke-linejoin:miter;stroke-opacity:1" />
    </g>
    <g
       id="g4075"
       transform="matrix(0.9804084,0,0,0.9804084,281.1616,206.48592)">
      <path
         sodipodi:nodetypes="ccsssszssssssszc"
         id="path4077"
         d="M 343.08734,643.43419 C 334.7132,657.88481 343.00091,665.79507 352.80834,649.72422 C 362.61578,633.65336 365.57728,624.01222 369.91121,610.59432 C 374.8393,595.33682 377.30724,578.67075 376.16024,562.73751 C 375.12777,548.39512 370.81675,533.68718 363.54416,521.07578 C 351.62805,500.41191 333.08773,473.15709 337.00329,447.50498 C 340.43241,425.03961 348.82743,404.05234 372.64452,391.66386 C 397.31468,378.83165 393.93182,344.24713 382.50748,331.81191 C 373.00861,321.47254 358.93204,314.06122 346.6063,315.89175 C 330.75782,318.24544 318.61187,325.71108 314.29544,342.37146 C 310.25582,357.96342 314.95412,375.26003 326.77609,385.82101 C 340.57808,398.15081 331.76129,414.45756 328.22542,428.98649 C 323.70276,447.57014 323.33988,469.20732 332.78291,486.36189 C 343.74665,506.279 351.83601,521.24566 361.15837,542.08397 C 369.04969,559.72343 366.10461,584.03526 360.20426,602.94143 C 354.09159,622.52792 351.46149,628.98357 343.08734,643.43419 z"
         style="fill:#119f5a;fill-opacity:1;fill-rule:evenodd;stroke:#000000;stroke-width:3.90100002;stroke-linecap:butt;stroke-linejoin:miter;stroke-miterlimit:4;stroke-dasharray:none;stroke-opacity:1" />
      <path
         sodipodi:nodetypes="czzzzzzzzz"
         id="path4079"
         d="M 356.84382,325.93362 C 349.54247,324.82351 339.75721,325.19995 332.68056,331.7997 C 325.60391,338.39945 323.69454,343.31202 323.14202,346.59326 C 322.5895,349.8745 321.4386,352.69746 321.92416,355.09355 C 322.40972,357.48964 324.273,357.63776 326.7156,355.06325 C 329.1582,352.48873 331.58647,347.889 336.84382,343.14068 C 342.21182,338.29243 350.65697,336.16613 355.94891,335.92287 C 361.24085,335.67961 362.77384,336.04136 365.68673,335.0035 C 368.59962,333.96564 370.9069,333.68363 368.82879,331.31246 C 366.64845,328.82463 364.14517,327.04373 356.84382,325.93362 z"
         style="fill:#ffffff;fill-opacity:0.70744683;fill-rule:evenodd;stroke:none;stroke-width:1px;stroke-linecap:butt;stroke-linejoin:miter;stroke-opacity:0.48387098" />
      <path
         sodipodi:nodetypes="cssz"
         id="path4081"
         d="M 372.85714,373.07647 C 375.19554,376.69153 369.53156,380.83527 365.71429,382.36218 C 359.59316,384.81063 364.11854,374.67221 365,373.79075 C 367.71293,371.07782 370.36632,369.22577 372.85714,373.07647 z"
         style="fill:#ffffff;fill-opacity:0.5585104;fill-rule:evenodd;stroke:none;stroke-width:1px;stroke-linecap:butt;stroke-linejoin:miter;stroke-opacity:1" />
    </g>
    <g
       id="g4083"
       transform="matrix(0.9804084,0,0,0.9804084,222.714,282.91738)">
      <path
         sodipodi:nodetypes="ccsssszssssssszc"
         id="path4085"
         d="M 343.08734,643.43419 C 334.7132,657.88481 343.00091,665.79507 352.80834,649.72422 C 362.61578,633.65336 365.57728,624.01222 369.91121,610.59432 C 374.8393,595.33682 377.30724,578.67075 376.16024,562.73751 C 375.12777,548.39512 370.81675,533.68718 363.54416,521.07578 C 351.62805,500.41191 333.08773,473.15709 337.00329,447.50498 C 340.43241,425.03961 348.82743,404.05234 372.64452,391.66386 C 397.31468,378.83165 393.93182,344.24713 382.50748,331.81191 C 373.00861,321.47254 358.93204,314.06122 346.6063,315.89175 C 330.75782,318.24544 318.61187,325.71108 314.29544,342.37146 C 310.25582,357.96342 314.95412,375.26003 326.77609,385.82101 C 340.57808,398.15081 331.76129,414.45756 328.22542,428.98649 C 323.70276,447.57014 323.33988,469.20732 332.78291,486.36189 C 343.74665,506.279 351.83601,521.24566 361.15837,542.08397 C 369.04969,559.72343 366.10461,584.03526 360.20426,602.94143 C 354.09159,622.52792 351.46149,628.98357 343.08734,643.43419 z"
         style="fill:#119f5a;fill-opacity:1;fill-rule:evenodd;stroke:#000000;stroke-width:3.90100002;stroke-linecap:butt;stroke-linejoin:miter;stroke-miterlimit:4;stroke-dasharray:none;stroke-opacity:1" />
      <path
         sodipodi:nodetypes="czzzzzzzzz"
         id="path4087"
         d="M 356.84382,325.93362 C 349.54247,324.82351 339.75721,325.19995 332.68056,331.7997 C 325.60391,338.39945 323.69454,343.31202 323.14202,346.59326 C 322.5895,349.8745 321.4386,352.69746 321.92416,355.09355 C 322.40972,357.48964 324.273,357.63776 326.7156,355.06325 C 329.1582,352.48873 331.58647,347.889 336.84382,343.14068 C 342.21182,338.29243 350.65697,336.16613 355.94891,335.92287 C 361.24085,335.67961 362.77384,336.04136 365.68673,335.0035 C 368.59962,333.96564 370.9069,333.68363 368.82879,331.31246 C 366.64845,328.82463 364.14517,327.04373 356.84382,325.93362 z"
         style="fill:#ffffff;fill-opacity:0.70744683;fill-rule:evenodd;stroke:none;stroke-width:1px;stroke-linecap:butt;stroke-linejoin:miter;stroke-opacity:0.48387098" />
      <path
         sodipodi:nodetypes="cssz"
         id="path4089"
         d="M 372.85714,373.07647 C 375.19554,376.69153 369.53156,380.83527 365.71429,382.36218 C 359.59316,384.81063 364.11854,374.67221 365,373.79075 C 367.71293,371.07782 370.36632,369.22577 372.85714,373.07647 z"
         style="fill:#ffffff;fill-opacity:0.5585104;fill-rule:evenodd;stroke:none;stroke-width:1px;stroke-linecap:butt;stroke-linejoin:miter;stroke-opacity:1" />
    </g>
    <g
       id="g4091"
       transform="matrix(0.9804084,0,0,0.9804084,147.40652,324.5051)">
      <path
         sodipodi:nodetypes="ccsssszssssssszc"
         id="path4093"
         d="M 343.08734,643.43419 C 334.7132,657.88481 343.00091,665.79507 352.80834,649.72422 C 362.61578,633.65336 365.57728,624.01222 369.91121,610.59432 C 374.8393,595.33682 377.30724,578.67075 376.16024,562.73751 C 375.12777,548.39512 370.81675,533.68718 363.54416,521.07578 C 351.62805,500.41191 333.08773,473.15709 337.00329,447.50498 C 340.43241,425.03961 348.82743,404.05234 372.64452,391.66386 C 397.31468,378.83165 393.93182,344.24713 382.50748,331.81191 C 373.00861,321.47254 358.93204,314.06122 346.6063,315.89175 C 330.75782,318.24544 318.61187,325.71108 314.29544,342.37146 C 310.25582,357.96342 314.95412,375.26003 326.77609,385.82101 C 340.57808,398.15081 331.76129,414.45756 328.22542,428.98649 C 323.70276,447.57014 323.33988,469.20732 332.78291,486.36189 C 343.74665,506.279 351.83601,521.24566 361.15837,542.08397 C 369.04969,559.72343 366.10461,584.03526 360.20426,602.94143 C 354.09159,622.52792 351.46149,628.98357 343.08734,643.43419 z"
         style="fill:#119f5a;fill-opacity:1;fill-rule:evenodd;stroke:#000000;stroke-width:3.90100002;stroke-linecap:butt;stroke-linejoin:miter;stroke-miterlimit:4;stroke-dasharray:none;stroke-opacity:1" />
      <path
         sodipodi:nodetypes="czzzzzzzzz"
         id="path4095"
         d="M 356.84382,325.93362 C 349.54247,324.82351 339.75721,325.19995 332.68056,331.7997 C 325.60391,338.39945 323.69454,343.31202 323.14202,346.59326 C 322.5895,349.8745 321.4386,352.69746 321.92416,355.09355 C 322.40972,357.48964 324.273,357.63776 326.7156,355.06325 C 329.1582,352.48873 331.58647,347.889 336.84382,343.14068 C 342.21182,338.29243 350.65697,336.16613 355.94891,335.92287 C 361.24085,335.67961 362.77384,336.04136 365.68673,335.0035 C 368.59962,333.96564 370.9069,333.68363 368.82879,331.31246 C 366.64845,328.82463 364.14517,327.04373 356.84382,325.93362 z"
         style="fill:#ffffff;fill-opacity:0.70744683;fill-rule:evenodd;stroke:none;stroke-width:1px;stroke-linecap:butt;stroke-linejoin:miter;stroke-opacity:0.48387098" />
      <path
         sodipodi:nodetypes="cssz"
         id="path4097"
         d="M 372.85714,373.07647 C 375.19554,376.69153 369.53156,380.83527 365.71429,382.36218 C 359.59316,384.81063 364.11854,374.67221 365,373.79075 C 367.71293,371.07782 370.36632,369.22577 372.85714,373.07647 z"
         style="fill:#ffffff;fill-opacity:0.5585104;fill-rule:evenodd;stroke:none;stroke-width:1px;stroke-linecap:butt;stroke-linejoin:miter;stroke-opacity:1" />
    </g>
    <g
       id="g4099"
       transform="matrix(0.9804084,0,0,0.9804084,48.495205,267.1815)">
      <path
         sodipodi:nodetypes="ccsssszssssssszc"
         id="path4101"
         d="M 343.08734,643.43419 C 334.7132,657.88481 343.00091,665.79507 352.80834,649.72422 C 362.61578,633.65336 365.57728,624.01222 369.91121,610.59432 C 374.8393,595.33682 377.30724,578.67075 376.16024,562.73751 C 375.12777,548.39512 370.81675,533.68718 363.54416,521.07578 C 351.62805,500.41191 333.08773,473.15709 337.00329,447.50498 C 340.43241,425.03961 348.82743,404.05234 372.64452,391.66386 C 397.31468,378.83165 393.93182,344.24713 382.50748,331.81191 C 373.00861,321.47254 358.93204,314.06122 346.6063,315.89175 C 330.75782,318.24544 318.61187,325.71108 314.29544,342.37146 C 310.25582,357.96342 314.95412,375.26003 326.77609,385.82101 C 340.57808,398.15081 331.76129,414.45756 328.22542,428.98649 C 323.70276,447.57014 323.33988,469.20732 332.78291,486.36189 C 343.74665,506.279 351.83601,521.24566 361.15837,542.08397 C 369.04969,559.72343 366.10461,584.03526 360.20426,602.94143 C 354.09159,622.52792 351.46149,628.98357 343.08734,643.43419 z"
         style="fill:#119f5a;fill-opacity:1;fill-rule:evenodd;stroke:#000000;stroke-width:3.90100002;stroke-linecap:butt;stroke-linejoin:miter;stroke-miterlimit:4;stroke-dasharray:none;stroke-opacity:1" />
      <path
         sodipodi:nodetypes="czzzzzzzzz"
         id="path4103"
         d="M 356.84382,325.93362 C 349.54247,324.82351 339.75721,325.19995 332.68056,331.7997 C 325.60391,338.39945 323.69454,343.31202 323.14202,346.59326 C 322.5895,349.8745 321.4386,352.69746 321.92416,355.09355 C 322.40972,357.48964 324.273,357.63776 326.7156,355.06325 C 329.1582,352.48873 331.58647,347.889 336.84382,343.14068 C 342.21182,338.29243 350.65697,336.16613 355.94891,335.92287 C 361.24085,335.67961 362.77384,336.04136 365.68673,335.0035 C 368.59962,333.96564 370.9069,333.68363 368.82879,331.31246 C 366.64845,328.82463 364.14517,327.04373 356.84382,325.93362 z"
         style="fill:#ffffff;fill-opacity:0.70744683;fill-rule:evenodd;stroke:none;stroke-width:1px;stroke-linecap:butt;stroke-linejoin:miter;stroke-opacity:0.48387098" />
      <path
         sodipodi:nodetypes="cssz"
         id="path4105"
         d="M 372.85714,373.07647 C 375.19554,376.69153 369.53156,380.83527 365.71429,382.36218 C 359.59316,384.81063 364.11854,374.67221 365,373.79075 C 367.71293,371.07782 370.36632,369.22577 372.85714,373.07647 z"
         style="fill:#ffffff;fill-opacity:0.5585104;fill-rule:evenodd;stroke:none;stroke-width:1px;stroke-linecap:butt;stroke-linejoin:miter;stroke-opacity:1" />
    </g>
    <g
       id="g4107"
       transform="matrix(0.9804084,0,0,0.9804084,-93.127813,151.4103)">
      <path
         sodipodi:nodetypes="ccsssszssssssszc"
         id="path4109"
         d="M 343.08734,643.43419 C 334.7132,657.88481 343.00091,665.79507 352.80834,649.72422 C 362.61578,633.65336 365.57728,624.01222 369.91121,610.59432 C 374.8393,595.33682 377.30724,578.67075 376.16024,562.73751 C 375.12777,548.39512 370.81675,533.68718 363.54416,521.07578 C 351.62805,500.41191 333.08773,473.15709 337.00329,447.50498 C 340.43241,425.03961 348.82743,404.05234 372.64452,391.66386 C 397.31468,378.83165 393.93182,344.24713 382.50748,331.81191 C 373.00861,321.47254 358.93204,314.06122 346.6063,315.89175 C 330.75782,318.24544 318.61187,325.71108 314.29544,342.37146 C 310.25582,357.96342 314.95412,375.26003 326.77609,385.82101 C 340.57808,398.15081 331.76129,414.45756 328.22542,428.98649 C 323.70276,447.57014 323.33988,469.20732 332.78291,486.36189 C 343.74665,506.279 351.83601,521.24566 361.15837,542.08397 C 369.04969,559.72343 366.10461,584.03526 360.20426,602.94143 C 354.09159,622.52792 351.46149,628.98357 343.08734,643.43419 z"
         style="fill:#119f5a;fill-opacity:1;fill-rule:evenodd;stroke:#000000;stroke-width:3.90100002;stroke-linecap:butt;stroke-linejoin:miter;stroke-miterlimit:4;stroke-dasharray:none;stroke-opacity:1" />
      <path
         sodipodi:nodetypes="czzzzzzzzz"
         id="path4111"
         d="M 356.84382,325.93362 C 349.54247,324.82351 339.75721,325.19995 332.68056,331.7997 C 325.60391,338.39945 323.69454,343.31202 323.14202,346.59326 C 322.5895,349.8745 321.4386,352.69746 321.92416,355.09355 C 322.40972,357.48964 324.273,357.63776 326.7156,355.06325 C 329.1582,352.48873 331.58647,347.889 336.84382,343.14068 C 342.21182,338.29243 350.65697,336.16613 355.94891,335.92287 C 361.24085,335.67961 362.77384,336.04136 365.68673,335.0035 C 368.59962,333.96564 370.9069,333.68363 368.82879,331.31246 C 366.64845,328.82463 364.14517,327.04373 356.84382,325.93362 z"
         style="fill:#ffffff;fill-opacity:0.70744683;fill-rule:evenodd;stroke:none;stroke-width:1px;stroke-linecap:butt;stroke-linejoin:miter;stroke-opacity:0.48387098" />
      <path
         sodipodi:nodetypes="cssz"
         id="path4113"
         d="M 372.85714,373.07647 C 375.19554,376.69153 369.53156,380.83527 365.71429,382.36218 C 359.59316,384.81063 364.11854,374.67221 365,373.79075 C 367.71293,371.07782 370.36632,369.22577 372.85714,373.07647 z"
         style="fill:#ffffff;fill-opacity:0.5585104;fill-rule:evenodd;stroke:none;stroke-width:1px;stroke-linecap:butt;stroke-linejoin:miter;stroke-opacity:1" />
    </g>
    <g
       id="g4115"
       transform="matrix(0.9804084,0,0,0.9804084,-234.75083,209.85789)">
      <path
         sodipodi:nodetypes="ccsssszssssssszc"
         id="path4117"
         d="M 343.08734,643.43419 C 334.7132,657.88481 343.00091,665.79507 352.80834,649.72422 C 362.61578,633.65336 365.57728,624.01222 369.91121,610.59432 C 374.8393,595.33682 377.30724,578.67075 376.16024,562.73751 C 375.12777,548.39512 370.81675,533.68718 363.54416,521.07578 C 351.62805,500.41191 333.08773,473.15709 337.00329,447.50498 C 340.43241,425.03961 348.82743,404.05234 372.64452,391.66386 C 397.31468,378.83165 393.93182,344.24713 382.50748,331.81191 C 373.00861,321.47254 358.93204,314.06122 346.6063,315.89175 C 330.75782,318.24544 318.61187,325.71108 314.29544,342.37146 C 310.25582,357.96342 314.95412,375.26003 326.77609,385.82101 C 340.57808,398.15081 331.76129,414.45756 328.22542,428.98649 C 323.70276,447.57014 323.33988,469.20732 332.78291,486.36189 C 343.74665,506.279 351.83601,521.24566 361.15837,542.08397 C 369.04969,559.72343 366.10461,584.03526 360.20426,602.94143 C 354.09159,622.52792 351.46149,628.98357 343.08734,643.43419 z"
         style="fill:#119f5a;fill-opacity:1;fill-rule:evenodd;stroke:#000000;stroke-width:3.90100002;stroke-linecap:butt;stroke-linejoin:miter;stroke-miterlimit:4;stroke-dasharray:none;stroke-opacity:1" />
      <path
         sodipodi:nodetypes="czzzzzzzzz"
         id="path4119"
         d="M 356.84382,325.93362 C 349.54247,324.82351 339.75721,325.19995 332.68056,331.7997 C 325.60391,338.39945 323.69454,343.31202 323.14202,346.59326 C 322.5895,349.8745 321.4386,352.69746 321.92416,355.09355 C 322.40972,357.48964 324.273,357.63776 326.7156,355.06325 C 329.1582,352.48873 331.58647,347.889 336.84382,343.14068 C 342.21182,338.29243 350.65697,336.16613 355.94891,335.92287 C 361.24085,335.67961 362.77384,336.04136 365.68673,335.0035 C 368.59962,333.96564 370.9069,333.68363 368.82879,331.31246 C 366.64845,328.82463 364.14517,327.04373 356.84382,325.93362 z"
         style="fill:#ffffff;fill-opacity:0.70744683;fill-rule:evenodd;stroke:none;stroke-width:1px;stroke-linecap:butt;stroke-linejoin:miter;stroke-opacity:0.48387098" />
      <path
         sodipodi:nodetypes="cssz"
         id="path4121"
         d="M 372.85714,373.07647 C 375.19554,376.69153 369.53156,380.83527 365.71429,382.36218 C 359.59316,384.81063 364.11854,374.67221 365,373.79075 C 367.71293,371.07782 370.36632,369.22577 372.85714,373.07647 z"
         style="fill:#ffffff;fill-opacity:0.5585104;fill-rule:evenodd;stroke:none;stroke-width:1px;stroke-linecap:butt;stroke-linejoin:miter;stroke-opacity:1" />
    </g>
    <g
       id="g4123"
       transform="matrix(0.9804084,0,0,0.9804084,-74.019941,377.33273)">
      <path
         sodipodi:nodetypes="ccsssszssssssszc"
         id="path4125"
         d="M 343.08734,643.43419 C 334.7132,657.88481 343.00091,665.79507 352.80834,649.72422 C 362.61578,633.65336 365.57728,624.01222 369.91121,610.59432 C 374.8393,595.33682 377.30724,578.67075 376.16024,562.73751 C 375.12777,548.39512 370.81675,533.68718 363.54416,521.07578 C 351.62805,500.41191 333.08773,473.15709 337.00329,447.50498 C 340.43241,425.03961 348.82743,404.05234 372.64452,391.66386 C 397.31468,378.83165 393.93182,344.24713 382.50748,331.81191 C 373.00861,321.47254 358.93204,314.06122 346.6063,315.89175 C 330.75782,318.24544 318.61187,325.71108 314.29544,342.37146 C 310.25582,357.96342 314.95412,375.26003 326.77609,385.82101 C 340.57808,398.15081 331.76129,414.45756 328.22542,428.98649 C 323.70276,447.57014 323.33988,469.20732 332.78291,486.36189 C 343.74665,506.279 351.83601,521.24566 361.15837,542.08397 C 369.04969,559.72343 366.10461,584.03526 360.20426,602.94143 C 354.09159,622.52792 351.46149,628.98357 343.08734,643.43419 z"
         style="fill:#119f5a;fill-opacity:1;fill-rule:evenodd;stroke:#000000;stroke-width:3.90100002;stroke-linecap:butt;stroke-linejoin:miter;stroke-miterlimit:4;stroke-dasharray:none;stroke-opacity:1" />
      <path
         sodipodi:nodetypes="czzzzzzzzz"
         id="path4127"
         d="M 356.84382,325.93362 C 349.54247,324.82351 339.75721,325.19995 332.68056,331.7997 C 325.60391,338.39945 323.69454,343.31202 323.14202,346.59326 C 322.5895,349.8745 321.4386,352.69746 321.92416,355.09355 C 322.40972,357.48964 324.273,357.63776 326.7156,355.06325 C 329.1582,352.48873 331.58647,347.889 336.84382,343.14068 C 342.21182,338.29243 350.65697,336.16613 355.94891,335.92287 C 361.24085,335.67961 362.77384,336.04136 365.68673,335.0035 C 368.59962,333.96564 370.9069,333.68363 368.82879,331.31246 C 366.64845,328.82463 364.14517,327.04373 356.84382,325.93362 z"
         style="fill:#ffffff;fill-opacity:0.70744683;fill-rule:evenodd;stroke:none;stroke-width:1px;stroke-linecap:butt;stroke-linejoin:miter;stroke-opacity:0.48387098" />
      <path
         sodipodi:nodetypes="cssz"
         id="path4129"
         d="M 372.85714,373.07647 C 375.19554,376.69153 369.53156,380.83527 365.71429,382.36218 C 359.59316,384.81063 364.11854,374.67221 365,373.79075 C 367.71293,371.07782 370.36632,369.22577 372.85714,373.07647 z"
         style="fill:#ffffff;fill-opacity:0.5585104;fill-rule:evenodd;stroke:none;stroke-width:1px;stroke-linecap:butt;stroke-linejoin:miter;stroke-opacity:1" />
    </g>
    <g
       id="g4179"
       transform="matrix(1.2007311,0,0,1.2007311,-29.069045,277.87788)">
      <path
         sodipodi:nodetypes="ccsssszssssssszc"
         id="path4181"
         d="M 343.08734,643.43419 C 334.7132,657.88481 343.00091,665.79507 352.80834,649.72422 C 362.61578,633.65336 365.57728,624.01222 369.91121,610.59432 C 374.8393,595.33682 377.30724,578.67075 376.16024,562.73751 C 375.12777,548.39512 370.81675,533.68718 363.54416,521.07578 C 351.62805,500.41191 333.08773,473.15709 337.00329,447.50498 C 340.43241,425.03961 348.82743,404.05234 372.64452,391.66386 C 397.31468,378.83165 393.93182,344.24713 382.50748,331.81191 C 373.00861,321.47254 358.93204,314.06122 346.6063,315.89175 C 330.75782,318.24544 318.61187,325.71108 314.29544,342.37146 C 310.25582,357.96342 314.95412,375.26003 326.77609,385.82101 C 340.57808,398.15081 331.76129,414.45756 328.22542,428.98649 C 323.70276,447.57014 323.33988,469.20732 332.78291,486.36189 C 343.74665,506.279 351.83601,521.24566 361.15837,542.08397 C 369.04969,559.72343 366.10461,584.03526 360.20426,602.94143 C 354.09159,622.52792 351.46149,628.98357 343.08734,643.43419 z"
         style="fill:#119f5a;fill-opacity:1;fill-rule:evenodd;stroke:#000000;stroke-width:3.90100002;stroke-linecap:butt;stroke-linejoin:miter;stroke-miterlimit:4;stroke-dasharray:none;stroke-opacity:1" />
      <path
         sodipodi:nodetypes="czzzzzzzzz"
         id="path4183"
         d="M 356.84382,325.93362 C 349.54247,324.82351 339.75721,325.19995 332.68056,331.7997 C 325.60391,338.39945 323.69454,343.31202 323.14202,346.59326 C 322.5895,349.8745 321.4386,352.69746 321.92416,355.09355 C 322.40972,357.48964 324.273,357.63776 326.7156,355.06325 C 329.1582,352.48873 331.58647,347.889 336.84382,343.14068 C 342.21182,338.29243 350.65697,336.16613 355.94891,335.92287 C 361.24085,335.67961 362.77384,336.04136 365.68673,335.0035 C 368.59962,333.96564 370.9069,333.68363 368.82879,331.31246 C 366.64845,328.82463 364.14517,327.04373 356.84382,325.93362 z"
         style="fill:#ffffff;fill-opacity:0.70744683;fill-rule:evenodd;stroke:none;stroke-width:1px;stroke-linecap:butt;stroke-linejoin:miter;stroke-opacity:0.48387098" />
      <path
         sodipodi:nodetypes="cssz"
         id="path4185"
         d="M 372.85714,373.07647 C 375.19554,376.69153 369.53156,380.83527 365.71429,382.36218 C 359.59316,384.81063 364.11854,374.67221 365,373.79075 C 367.71293,371.07782 370.36632,369.22577 372.85714,373.07647 z"
         style="fill:#ffffff;fill-opacity:0.5585104;fill-rule:evenodd;stroke:none;stroke-width:1px;stroke-linecap:butt;stroke-linejoin:miter;stroke-opacity:1" />
    </g>
    <g
       id="g4203"
       transform="matrix(1.2007311,0,0,1.2007311,-244.87555,89.047188)">
      <path
         sodipodi:nodetypes="ccsssszssssssszc"
         id="path4205"
         d="M 343.08734,643.43419 C 334.7132,657.88481 343.00091,665.79507 352.80834,649.72422 C 362.61578,633.65336 365.57728,624.01222 369.91121,610.59432 C 374.8393,595.33682 377.30724,578.67075 376.16024,562.73751 C 375.12777,548.39512 370.81675,533.68718 363.54416,521.07578 C 351.62805,500.41191 333.08773,473.15709 337.00329,447.50498 C 340.43241,425.03961 348.82743,404.05234 372.64452,391.66386 C 397.31468,378.83165 393.93182,344.24713 382.50748,331.81191 C 373.00861,321.47254 358.93204,314.06122 346.6063,315.89175 C 330.75782,318.24544 318.61187,325.71108 314.29544,342.37146 C 310.25582,357.96342 314.95412,375.26003 326.77609,385.82101 C 340.57808,398.15081 331.76129,414.45756 328.22542,428.98649 C 323.70276,447.57014 323.33988,469.20732 332.78291,486.36189 C 343.74665,506.279 351.83601,521.24566 361.15837,542.08397 C 369.04969,559.72343 366.10461,584.03526 360.20426,602.94143 C 354.09159,622.52792 351.46149,628.98357 343.08734,643.43419 z"
         style="fill:#119f5a;fill-opacity:1;fill-rule:evenodd;stroke:#000000;stroke-width:3.90100002;stroke-linecap:butt;stroke-linejoin:miter;stroke-miterlimit:4;stroke-dasharray:none;stroke-opacity:1" />
      <path
         sodipodi:nodetypes="czzzzzzzzz"
         id="path4207"
         d="M 356.84382,325.93362 C 349.54247,324.82351 339.75721,325.19995 332.68056,331.7997 C 325.60391,338.39945 323.69454,343.31202 323.14202,346.59326 C 322.5895,349.8745 321.4386,352.69746 321.92416,355.09355 C 322.40972,357.48964 324.273,357.63776 326.7156,355.06325 C 329.1582,352.48873 331.58647,347.889 336.84382,343.14068 C 342.21182,338.29243 350.65697,336.16613 355.94891,335.92287 C 361.24085,335.67961 362.77384,336.04136 365.68673,335.0035 C 368.59962,333.96564 370.9069,333.68363 368.82879,331.31246 C 366.64845,328.82463 364.14517,327.04373 356.84382,325.93362 z"
         style="fill:#ffffff;fill-opacity:0.70744683;fill-rule:evenodd;stroke:none;stroke-width:1px;stroke-linecap:butt;stroke-linejoin:miter;stroke-opacity:0.48387098" />
      <path
         sodipodi:nodetypes="cssz"
         id="path4209"
         d="M 372.85714,373.07647 C 375.19554,376.69153 369.53156,380.83527 365.71429,382.36218 C 359.59316,384.81063 364.11854,374.67221 365,373.79075 C 367.71293,371.07782 370.36632,369.22577 372.85714,373.07647 z"
         style="fill:#ffffff;fill-opacity:0.5585104;fill-rule:evenodd;stroke:none;stroke-width:1px;stroke-linecap:butt;stroke-linejoin:miter;stroke-opacity:1" />
    </g>
    <g
       id="g4211"
       transform="matrix(1.2007311,0,0,1.2007311,-154.95617,121.64296)">
      <path
         sodipodi:nodetypes="ccsssszssssssszc"
         id="path4213"
         d="M 343.08734,643.43419 C 334.7132,657.88481 343.00091,665.79507 352.80834,649.72422 C 362.61578,633.65336 365.57728,624.01222 369.91121,610.59432 C 374.8393,595.33682 377.30724,578.67075 376.16024,562.73751 C 375.12777,548.39512 370.81675,533.68718 363.54416,521.07578 C 351.62805,500.41191 333.08773,473.15709 337.00329,447.50498 C 340.43241,425.03961 348.82743,404.05234 372.64452,391.66386 C 397.31468,378.83165 393.93182,344.24713 382.50748,331.81191 C 373.00861,321.47254 358.93204,314.06122 346.6063,315.89175 C 330.75782,318.24544 318.61187,325.71108 314.29544,342.37146 C 310.25582,357.96342 314.95412,375.26003 326.77609,385.82101 C 340.57808,398.15081 331.76129,414.45756 328.22542,428.98649 C 323.70276,447.57014 323.33988,469.20732 332.78291,486.36189 C 343.74665,506.279 351.83601,521.24566 361.15837,542.08397 C 369.04969,559.72343 366.10461,584.03526 360.20426,602.94143 C 354.09159,622.52792 351.46149,628.98357 343.08734,643.43419 z"
         style="fill:#119f5a;fill-opacity:1;fill-rule:evenodd;stroke:#000000;stroke-width:3.90100002;stroke-linecap:butt;stroke-linejoin:miter;stroke-miterlimit:4;stroke-dasharray:none;stroke-opacity:1" />
      <path
         sodipodi:nodetypes="czzzzzzzzz"
         id="path4215"
         d="M 356.84382,325.93362 C 349.54247,324.82351 339.75721,325.19995 332.68056,331.7997 C 325.60391,338.39945 323.69454,343.31202 323.14202,346.59326 C 322.5895,349.8745 321.4386,352.69746 321.92416,355.09355 C 322.40972,357.48964 324.273,357.63776 326.7156,355.06325 C 329.1582,352.48873 331.58647,347.889 336.84382,343.14068 C 342.21182,338.29243 350.65697,336.16613 355.94891,335.92287 C 361.24085,335.67961 362.77384,336.04136 365.68673,335.0035 C 368.59962,333.96564 370.9069,333.68363 368.82879,331.31246 C 366.64845,328.82463 364.14517,327.04373 356.84382,325.93362 z"
         style="fill:#ffffff;fill-opacity:0.70744683;fill-rule:evenodd;stroke:none;stroke-width:1px;stroke-linecap:butt;stroke-linejoin:miter;stroke-opacity:0.48387098" />
      <path
         sodipodi:nodetypes="cssz"
         id="path4217"
         d="M 372.85714,373.07647 C 375.19554,376.69153 369.53156,380.83527 365.71429,382.36218 C 359.59316,384.81063 364.11854,374.67221 365,373.79075 C 367.71293,371.07782 370.36632,369.22577 372.85714,373.07647 z"
         style="fill:#ffffff;fill-opacity:0.5585104;fill-rule:evenodd;stroke:none;stroke-width:1px;stroke-linecap:butt;stroke-linejoin:miter;stroke-opacity:1" />
    </g>
    <g
       id="g4235"
       transform="matrix(1.2007311,0,0,1.2007311,68.718277,234.04218)">
      <path
         sodipodi:nodetypes="ccsssszssssssszc"
         id="path4237"
         d="M 343.08734,643.43419 C 334.7132,657.88481 343.00091,665.79507 352.80834,649.72422 C 362.61578,633.65336 365.57728,624.01222 369.91121,610.59432 C 374.8393,595.33682 377.30724,578.67075 376.16024,562.73751 C 375.12777,548.39512 370.81675,533.68718 363.54416,521.07578 C 351.62805,500.41191 333.08773,473.15709 337.00329,447.50498 C 340.43241,425.03961 348.82743,404.05234 372.64452,391.66386 C 397.31468,378.83165 393.93182,344.24713 382.50748,331.81191 C 373.00861,321.47254 358.93204,314.06122 346.6063,315.89175 C 330.75782,318.24544 318.61187,325.71108 314.29544,342.37146 C 310.25582,357.96342 314.95412,375.26003 326.77609,385.82101 C 340.57808,398.15081 331.76129,414.45756 328.22542,428.98649 C 323.70276,447.57014 323.33988,469.20732 332.78291,486.36189 C 343.74665,506.279 351.83601,521.24566 361.15837,542.08397 C 369.04969,559.72343 366.10461,584.03526 360.20426,602.94143 C 354.09159,622.52792 351.46149,628.98357 343.08734,643.43419 z"
         style="fill:#119f5a;fill-opacity:1;fill-rule:evenodd;stroke:#000000;stroke-width:3.90100002;stroke-linecap:butt;stroke-linejoin:miter;stroke-miterlimit:4;stroke-dasharray:none;stroke-opacity:1" />
      <path
         sodipodi:nodetypes="czzzzzzzzz"
         id="path4239"
         d="M 356.84382,325.93362 C 349.54247,324.82351 339.75721,325.19995 332.68056,331.7997 C 325.60391,338.39945 323.69454,343.31202 323.14202,346.59326 C 322.5895,349.8745 321.4386,352.69746 321.92416,355.09355 C 322.40972,357.48964 324.273,357.63776 326.7156,355.06325 C 329.1582,352.48873 331.58647,347.889 336.84382,343.14068 C 342.21182,338.29243 350.65697,336.16613 355.94891,335.92287 C 361.24085,335.67961 362.77384,336.04136 365.68673,335.0035 C 368.59962,333.96564 370.9069,333.68363 368.82879,331.31246 C 366.64845,328.82463 364.14517,327.04373 356.84382,325.93362 z"
         style="fill:#ffffff;fill-opacity:0.70744683;fill-rule:evenodd;stroke:none;stroke-width:1px;stroke-linecap:butt;stroke-linejoin:miter;stroke-opacity:0.48387098" />
      <path
         sodipodi:nodetypes="cssz"
         id="path4241"
         d="M 372.85714,373.07647 C 375.19554,376.69153 369.53156,380.83527 365.71429,382.36218 C 359.59316,384.81063 364.11854,374.67221 365,373.79075 C 367.71293,371.07782 370.36632,369.22577 372.85714,373.07647 z"
         style="fill:#ffffff;fill-opacity:0.5585104;fill-rule:evenodd;stroke:none;stroke-width:1px;stroke-linecap:butt;stroke-linejoin:miter;stroke-opacity:1" />
    </g>
    <g
       id="g4243"
       transform="matrix(1.2007311,0,0,1.2007311,177.74552,230.67021)">
      <path
         sodipodi:nodetypes="ccsssszssssssszc"
         id="path4245"
         d="M 343.08734,643.43419 C 334.7132,657.88481 343.00091,665.79507 352.80834,649.72422 C 362.61578,633.65336 365.57728,624.01222 369.91121,610.59432 C 374.8393,595.33682 377.30724,578.67075 376.16024,562.73751 C 375.12777,548.39512 370.81675,533.68718 363.54416,521.07578 C 351.62805,500.41191 333.08773,473.15709 337.00329,447.50498 C 340.43241,425.03961 348.82743,404.05234 372.64452,391.66386 C 397.31468,378.83165 393.93182,344.24713 382.50748,331.81191 C 373.00861,321.47254 358.93204,314.06122 346.6063,315.89175 C 330.75782,318.24544 318.61187,325.71108 314.29544,342.37146 C 310.25582,357.96342 314.95412,375.26003 326.77609,385.82101 C 340.57808,398.15081 331.76129,414.45756 328.22542,428.98649 C 323.70276,447.57014 323.33988,469.20732 332.78291,486.36189 C 343.74665,506.279 351.83601,521.24566 361.15837,542.08397 C 369.04969,559.72343 366.10461,584.03526 360.20426,602.94143 C 354.09159,622.52792 351.46149,628.98357 343.08734,643.43419 z"
         style="fill:#119f5a;fill-opacity:1;fill-rule:evenodd;stroke:#000000;stroke-width:3.90100002;stroke-linecap:butt;stroke-linejoin:miter;stroke-miterlimit:4;stroke-dasharray:none;stroke-opacity:1" />
      <path
         sodipodi:nodetypes="czzzzzzzzz"
         id="path4247"
         d="M 356.84382,325.93362 C 349.54247,324.82351 339.75721,325.19995 332.68056,331.7997 C 325.60391,338.39945 323.69454,343.31202 323.14202,346.59326 C 322.5895,349.8745 321.4386,352.69746 321.92416,355.09355 C 322.40972,357.48964 324.273,357.63776 326.7156,355.06325 C 329.1582,352.48873 331.58647,347.889 336.84382,343.14068 C 342.21182,338.29243 350.65697,336.16613 355.94891,335.92287 C 361.24085,335.67961 362.77384,336.04136 365.68673,335.0035 C 368.59962,333.96564 370.9069,333.68363 368.82879,331.31246 C 366.64845,328.82463 364.14517,327.04373 356.84382,325.93362 z"
         style="fill:#ffffff;fill-opacity:0.70744683;fill-rule:evenodd;stroke:none;stroke-width:1px;stroke-linecap:butt;stroke-linejoin:miter;stroke-opacity:0.48387098" />
      <path
         sodipodi:nodetypes="cssz"
         id="path4249"
         d="M 372.85714,373.07647 C 375.19554,376.69153 369.53156,380.83527 365.71429,382.36218 C 359.59316,384.81063 364.11854,374.67221 365,373.79075 C 367.71293,371.07782 370.36632,369.22577 372.85714,373.07647 z"
         style="fill:#ffffff;fill-opacity:0.5585104;fill-rule:evenodd;stroke:none;stroke-width:1px;stroke-linecap:butt;stroke-linejoin:miter;stroke-opacity:1" />
    </g>
    <g
       id="g4259"
       transform="matrix(1.272012,0,0,1.272012,43.18338,-5.2464799)">
      <path
         sodipodi:nodetypes="ccsssszssssssszc"
         id="path4261"
         d="M 343.08734,643.43419 C 334.7132,657.88481 343.00091,665.79507 352.80834,649.72422 C 362.61578,633.65336 365.57728,624.01222 369.91121,610.59432 C 374.8393,595.33682 377.30724,578.67075 376.16024,562.73751 C 375.12777,548.39512 370.81675,533.68718 363.54416,521.07578 C 351.62805,500.41191 333.08773,473.15709 337.00329,447.50498 C 340.43241,425.03961 348.82743,404.05234 372.64452,391.66386 C 397.31468,378.83165 393.93182,344.24713 382.50748,331.81191 C 373.00861,321.47254 358.93204,314.06122 346.6063,315.89175 C 330.75782,318.24544 318.61187,325.71108 314.29544,342.37146 C 310.25582,357.96342 314.95412,375.26003 326.77609,385.82101 C 340.57808,398.15081 331.76129,414.45756 328.22542,428.98649 C 323.70276,447.57014 323.33988,469.20732 332.78291,486.36189 C 343.74665,506.279 351.83601,521.24566 361.15837,542.08397 C 369.04969,559.72343 366.10461,584.03526 360.20426,602.94143 C 354.09159,622.52792 351.46149,628.98357 343.08734,643.43419 z"
         style="fill:#119f5a;fill-opacity:1;fill-rule:evenodd;stroke:#000000;stroke-width:3.90100002;stroke-linecap:butt;stroke-linejoin:miter;stroke-miterlimit:4;stroke-dasharray:none;stroke-opacity:1" />
      <path
         sodipodi:nodetypes="czzzzzzzzz"
         id="path4263"
         d="M 356.84382,325.93362 C 349.54247,324.82351 339.75721,325.19995 332.68056,331.7997 C 325.60391,338.39945 323.69454,343.31202 323.14202,346.59326 C 322.5895,349.8745 321.4386,352.69746 321.92416,355.09355 C 322.40972,357.48964 324.273,357.63776 326.7156,355.06325 C 329.1582,352.48873 331.58647,347.889 336.84382,343.14068 C 342.21182,338.29243 350.65697,336.16613 355.94891,335.92287 C 361.24085,335.67961 362.77384,336.04136 365.68673,335.0035 C 368.59962,333.96564 370.9069,333.68363 368.82879,331.31246 C 366.64845,328.82463 364.14517,327.04373 356.84382,325.93362 z"
         style="fill:#ffffff;fill-opacity:0.70744683;fill-rule:evenodd;stroke:none;stroke-width:1px;stroke-linecap:butt;stroke-linejoin:miter;stroke-opacity:0.48387098" />
      <path
         sodipodi:nodetypes="cssz"
         id="path4265"
         d="M 372.85714,373.07647 C 375.19554,376.69153 369.53156,380.83527 365.71429,382.36218 C 359.59316,384.81063 364.11854,374.67221 365,373.79075 C 367.71293,371.07782 370.36632,369.22577 372.85714,373.07647 z"
         style="fill:#ffffff;fill-opacity:0.5585104;fill-rule:evenodd;stroke:none;stroke-width:1px;stroke-linecap:butt;stroke-linejoin:miter;stroke-opacity:1" />
    </g>
    <rect
       ry="0"
       y="294.99719"
       x="33.470676"
       height="480"
       width="640"
       id="rect4267"
       style="opacity:1;fill:url(#radialGradient4275);fill-opacity:1;stroke:none;stroke-width:18.89999962;stroke-linecap:round;stroke-linejoin:round;stroke-miterlimit:4;stroke-dasharray:none;stroke-opacity:1"
       inkscape:export-xdpi="105.98404"
       inkscape:export-ydpi="105.98404" />
  </g>
</svg>
