<?xml version="1.0" encoding="UTF-8" standalone="no"?>
<!-- Created with Inkscape (http://www.inkscape.org/) -->
<svg
   xmlns:dc="http://purl.org/dc/elements/1.1/"
   xmlns:cc="http://creativecommons.org/ns#"
   xmlns:rdf="http://www.w3.org/1999/02/22-rdf-syntax-ns#"
   xmlns:svg="http://www.w3.org/2000/svg"
   xmlns="http://www.w3.org/2000/svg"
   xmlns:xlink="http://www.w3.org/1999/xlink"
   xmlns:sodipodi="http://sodipodi.sourceforge.net/DTD/sodipodi-0.dtd"
   xmlns:inkscape="http://www.inkscape.org/namespaces/inkscape"
   width="640.013"
   height="480"
   id="svg2"
   sodipodi:version="0.32"
   inkscape:version="0.46"
   sodipodi:docname="bg2.svg"
   inkscape:output_extension="org.inkscape.output.svg.inkscape"
   inkscape:export-filename="C:\Users\Jesper\Pictures\bg0.png"
   inkscape:export-xdpi="105.98405"
   inkscape:export-ydpi="105.98405"
   version="1.0">
  <defs
     id="defs4">
    <linearGradient
       id="linearGradient3812">
      <stop
         style="stop-color:#8a1290;stop-opacity:1;"
         offset="0"
         id="stop3814" />
      <stop
         style="stop-color:#5d1290;stop-opacity:1;"
         offset="1"
         id="stop3816" />
    </linearGradient>
    <linearGradient
       id="linearGradient3802">
      <stop
         style="stop-color:#921398;stop-opacity:1;"
         offset="0"
         id="stop3804" />
      <stop
         style="stop-color:#540e74;stop-opacity:1;"
         offset="1"
         id="stop3806" />
    </linearGradient>
    <linearGradient
       id="linearGradient3794">
      <stop
         style="stop-color:#99139f;stop-opacity:1;"
         offset="0"
         id="stop3796" />
      <stop
         style="stop-color:#711290;stop-opacity:1;"
         offset="1"
         id="stop3798" />
    </linearGradient>
    <linearGradient
       id="linearGradient3835">
      <stop
         style="stop-color:#b345ae;stop-opacity:1;"
         offset="0"
         id="stop3837" />
      <stop
         id="stop3843"
         offset="0.6111111"
         style="stop-color:#9137a7;stop-opacity:1;" />
      <stop
         style="stop-color:#702aa0;stop-opacity:1;"
         offset="1"
         id="stop3839" />
    </linearGradient>
    <linearGradient
       id="linearGradient3803">
      <stop
         style="stop-color:#851888;stop-opacity:0.45045045;"
         offset="0"
         id="stop3805" />
      <stop
         style="stop-color:#611888;stop-opacity:1;"
         offset="1"
         id="stop3807" />
    </linearGradient>
    <linearGradient
       id="linearGradient3795">
      <stop
         style="stop-color:#b753b3;stop-opacity:1;"
         offset="0"
         id="stop3797" />
      <stop
         style="stop-color:#72306f;stop-opacity:1;"
         offset="1"
         id="stop3799" />
    </linearGradient>
    <linearGradient
       id="linearGradient3779">
      <stop
         style="stop-color:#843a9d;stop-opacity:1;"
         offset="0"
         id="stop3781" />
      <stop
         style="stop-color:#381e5c;stop-opacity:1;"
         offset="1"
         id="stop3783" />
    </linearGradient>
    <linearGradient
       id="linearGradient3741">
      <stop
         style="stop-color:#fb96ff;stop-opacity:1;"
         offset="0"
         id="stop3743" />
      <stop
         id="stop3769"
         offset="0.40277779"
         style="stop-color:#d456d0;stop-opacity:1;" />
      <stop
         style="stop-color:#4a1243;stop-opacity:1;"
         offset="1"
         id="stop3745" />
    </linearGradient>
    <linearGradient
       id="linearGradient3537">
      <stop
         style="stop-color:#1e7436;stop-opacity:0;"
         offset="0"
         id="stop3539" />
      <stop
         id="stop3739"
         offset="0.5"
         style="stop-color:#1e7436;stop-opacity:0;" />
      <stop
         style="stop-color:#1e7436;stop-opacity:0.47747749;"
         offset="1"
         id="stop3541" />
    </linearGradient>
    <linearGradient
       inkscape:collect="always"
       id="linearGradient2387">
      <stop
         style="stop-color:#2c1124;stop-opacity:1;"
         offset="0"
         id="stop2389" />
      <stop
         style="stop-color:#2c1124;stop-opacity:0;"
         offset="1"
         id="stop2391" />
    </linearGradient>
    <inkscape:perspective
       sodipodi:type="inkscape:persp3d"
       inkscape:vp_x="0 : 526.18109 : 1"
       inkscape:vp_y="0 : 1000 : 0"
       inkscape:vp_z="744.09448 : 526.18109 : 1"
       inkscape:persp3d-origin="372.04724 : 350.78739 : 1"
       id="perspective10" />
    <radialGradient
       inkscape:collect="always"
       xlink:href="#linearGradient2387"
       id="radialGradient3657"
       gradientUnits="userSpaceOnUse"
       gradientTransform="matrix(3.5466034e-2,-0.5549537,1.3885725,8.873016e-2,-178.18675,622.50934)"
       cx="376.95026"
       cy="431.96719"
       fx="376.95026"
       fy="431.96719"
       r="105.87857" />
    <radialGradient
       inkscape:collect="always"
       xlink:href="#linearGradient2387"
       id="radialGradient3663"
       gradientUnits="userSpaceOnUse"
       gradientTransform="matrix(3.5466034e-2,-0.5549537,1.3885725,8.873016e-2,-178.18675,622.50934)"
       cx="376.95026"
       cy="431.96719"
       fx="376.95026"
       fy="431.96719"
       r="105.87857" />
    <radialGradient
       inkscape:collect="always"
       xlink:href="#linearGradient3741"
       id="radialGradient3747"
       cx="373.38257"
       cy="514.10419"
       fx="373.38257"
       fy="514.10419"
       r="339.50656"
       gradientTransform="matrix(0.9425635,0,0,0.7069083,1.9457185,165.435)"
       gradientUnits="userSpaceOnUse" />
    <radialGradient
       inkscape:collect="always"
       xlink:href="#linearGradient3835"
       id="radialGradient3782"
       gradientUnits="userSpaceOnUse"
       gradientTransform="matrix(0.9822533,0,0,1.0434729,-13.177121,-5.8704788)"
       cx="333.77032"
       cy="553.96912"
       fx="333.77032"
       fy="553.96912"
       r="317.07071" />
    <radialGradient
       inkscape:collect="always"
       xlink:href="#linearGradient3779"
       id="radialGradient3784"
       gradientUnits="userSpaceOnUse"
       gradientTransform="matrix(0.9990031,0,0,0.7825918,-18.976292,132.02761)"
       cx="405.10431"
       cy="483.51993"
       fx="405.10431"
       fy="483.51993"
       r="365.0838" />
    <radialGradient
       inkscape:collect="always"
       xlink:href="#linearGradient3794"
       id="radialGradient3800"
       cx="416.97903"
       cy="525.80481"
       fx="416.97903"
       fy="525.80481"
       r="187.49402"
       gradientTransform="matrix(0.9606115,0,0,1.5024937,-2.4033064,-249.57533)"
       gradientUnits="userSpaceOnUse" />
    <radialGradient
       inkscape:collect="always"
       xlink:href="#linearGradient3802"
       id="radialGradient3808"
       cx="362.39362"
       cy="483.49005"
       fx="362.39362"
       fy="483.49005"
       r="394.26492"
       gradientTransform="matrix(0.9606115,0,0,0.6030425,-2.4033064,208.22999)"
       gradientUnits="userSpaceOnUse" />
    <radialGradient
       inkscape:collect="always"
       xlink:href="#linearGradient3812"
       id="radialGradient3818"
       cx="356.63651"
       cy="517.72473"
       fx="356.63651"
       fy="517.72473"
       r="400.9259"
       gradientTransform="matrix(0.9348964,0.2186086,0.1549017,-0.6677311,-64.691606,816.52079)"
       gradientUnits="userSpaceOnUse" />
  </defs>
  <sodipodi:namedview
     id="base"
     pagecolor="#ffffff"
     bordercolor="#666666"
     borderopacity="1.0"
     gridtolerance="10000"
     guidetolerance="10"
     objecttolerance="10"
     inkscape:pageopacity="0.0"
     inkscape:pageshadow="2"
     inkscape:zoom="0.87628109"
     inkscape:cx="334.83591"
     inkscape:cy="167.02006"
     inkscape:document-units="px"
     inkscape:current-layer="layer1"
     showgrid="false"
     inkscape:window-width="1286"
     inkscape:window-height="978"
     inkscape:window-x="210"
     inkscape:window-y="11" />
  <metadata
     id="metadata7">
    <rdf:RDF>
      <cc:Work
         rdf:about="">
        <dc:format>image/svg+xml</dc:format>
        <dc:type
           rdf:resource="http://purl.org/dc/dcmitype/StillImage" />
      </cc:Work>
    </rdf:RDF>
  </metadata>
  <g
     inkscape:label="Layer 1"
     inkscape:groupmode="layer"
     id="layer1"
     transform="translate(-33.876007,-288.85953)">
    <rect
       style="opacity:1;fill:url(#radialGradient3747);fill-opacity:1;stroke:none;stroke-width:18.89999962;stroke-linecap:round;stroke-linejoin:round;stroke-miterlimit:4;stroke-dasharray:none;stroke-opacity:1"
       id="rect2465"
       width="640.013"
       height="480"
       x="33.876007"
       y="288.85953"
       ry="0"
       inkscape:export-filename="C:\Users\Jesper\Documents\Visual Studio 2008\Projects\L2Stack\Debug\data\bg2.png"
       inkscape:export-xdpi="90"
       inkscape:export-ydpi="90" />
    <path
       style="fill:url(#radialGradient3784);fill-opacity:1;fill-rule:evenodd;stroke:#000000;stroke-width:2.95868349;stroke-linecap:butt;stroke-linejoin:miter;stroke-miterlimit:4;stroke-dasharray:none;stroke-opacity:1"
       d="M 579.48906,278.31466 C 566.23146,278.31466 552.97384,278.31466 539.71625,278.31466 C 538.84827,301.07088 532.27026,323.40633 504.78235,320.91068 C 471.49948,323.84293 532.63182,355.10547 495.48199,369.06333 C 486.04355,388.88739 529.79362,430.68974 487.51039,430.02754 C 456.26596,444.69898 406.90829,408.78374 445.31181,381.53213 C 483.71235,367.39078 444.28617,340.45963 422.02118,357.3947 C 390.93893,377.61583 361.13977,348.59475 361.89683,316.06309 C 345.41332,279.91877 308.26812,322.08935 312.32586,348.22217 C 311.45476,374.5179 305.12697,403.20594 281.60662,418.57733 C 267.33655,427.6312 231.744,463.48821 224.11072,437.00338 C 205.2826,429.0893 157.0164,422.4058 188.30694,393.17887 C 223.55341,365.16179 178.90396,343.52239 155.71116,331.98487 C 127.7122,302.74046 124.43498,355.57495 96.945772,355.38748 C 74.739422,374.75979 54.141909,365.84374 34.529854,349.52173 C 19.394227,343.4398 3.4315137,363.35873 26.863671,357.79328 C 46.683899,373.24665 72.621198,391.58801 96.698607,369.27278 C 110.29246,353.48664 132.52465,349.93978 143.227,334.53674 C 155.61634,349.56979 208.72553,355.4332 185.8818,380.68303 C 172.63551,392.23419 157.8585,406.84475 162.87698,424.32795 C 138.70134,431.88215 113.12076,449.29353 127.34646,477.97372 C 123.28011,509.29523 87.639231,459.17685 80.924028,494.1784 C 71.73651,516.99309 113.4102,531.273 84.906301,552.46966 C 66.765347,573.51467 35.53247,554.94232 42.634505,527.94283 C 30.434517,511.52328 63.277323,487.09439 31.094479,481.02041 C 12.56154,471.87266 7.8756108,498.99204 27.78566,485.52629 C 52.535255,500.44446 14.825657,531.48604 40.558054,550.9104 C 31.661086,585.23824 76.931697,571.92349 92.329772,562.10749 C 92.280234,541.46176 129.91092,527.3207 100.12284,513.13168 C 87.409424,487.56728 126.05721,512.20982 135.43214,510.38306 C 147.47454,475.09478 176.04532,512.11751 187.92248,527.26062 C 211.94854,546.09666 179.39531,562.17688 165.51816,570.0597 C 150.42257,593.81514 207.36761,586.30223 175.57016,605.6763 C 158.20883,621.42223 121.07854,659.14263 123.23067,683.38737 C 125.03875,726.07752 56.651989,687.52015 81.885485,659.69472 C 110.34995,644.54135 78.087262,592.96454 62.813022,629.97694 C 61.057857,663.2721 26.336117,626.17629 14.864941,648.29014 C 35.678296,651.87793 63.314704,665.98701 73.575357,634.2671 C 105.28474,629.16823 66.560977,664.64584 64.755979,677.16498 C 49.493962,707.06075 127.53831,710.30749 89.278188,730.26784 C 58.300039,715.435 -8.9495556,720.30449 14.864941,748.8274 C 32.688268,760.15878 52.128347,727.76338 72.56715,744.29311 C 100.04834,756.54088 25.715086,777.8487 53.576313,789.37291 C 72.994533,769.22561 89.498514,747.03174 112.45408,729.56907 C 128.97776,687.89885 223.01364,599.83196 196.50568,584.64963 C 174.69783,566.58919 217.44298,542.16273 236.49739,549.46179 C 256.28269,554.58252 269.19986,520.30674 290.83956,541.7894 C 321.76715,545.75205 285.53997,577.07887 314.67254,582.59943 C 318.21759,602.61399 281.74725,612.27652 303.95149,635.00542 C 310.9796,658.74553 343.01263,678.58452 342.99509,700.24269 C 312.20048,715.44684 366.97316,756.98178 322.79632,754.48332 C 286.73422,762.89257 317.13028,709.03225 291.83857,696.81511 C 268.6494,686.21665 222.88337,682.56706 229.24746,720.83543 C 217.57111,740.94156 229.51366,776.69238 220.56098,789.37291 C 246.65614,790.6887 235.96953,753.09493 239.79148,736.5983 C 240.54826,708.59482 291.59329,694.77341 290.74002,729.86526 C 287.1853,757.26437 311.44733,785.3813 339.00738,768.37465 C 368.43578,762.05724 355.76969,736.88555 345.23451,720.61637 C 358.67976,692.28226 386.78862,716.17357 408.14396,711.22721 C 423.36333,736.61256 450.8715,735.26791 476.99705,732.79272 C 504.41547,727.84972 542.59274,727.46086 557.26124,755.58445 C 561.60342,768.73183 563.70317,804.98478 577.91458,783.39266 C 586.97728,752.88124 565.45798,727.26952 534.30076,729.42965 C 509.3514,722.81099 483.56947,711.75575 457.77708,722.16663 C 427.42193,734.39991 417.57192,700.19791 394.97272,693.20046 C 362.43234,703.19802 361.20133,665.52918 342.28824,650.20709 C 312.42049,642.95324 307.69236,598.5181 342.8791,597.14961 C 356.87317,583.99218 293.53554,568.79553 333.84798,553.97191 C 344.10602,525.69282 297.07688,519.49668 276.69743,518.50107 C 255.1153,530.4835 220.55731,548.44382 201.75007,522.07469 C 191.33339,498.17576 171.8351,481.56295 147.66754,475.25105 C 151.77066,439.41568 208.38229,435.7344 221.79055,467.55276 C 248.89699,476.98628 276.3504,451.86958 297.89504,437.44638 C 318.30767,422.27268 323.90735,396.44646 331.36167,373.70201 C 330.18796,348.06358 356.94971,321.60523 355.43137,362.47237 C 349.33221,398.0517 397.15247,388.89426 417.72091,383.15247 C 387.8216,402.06592 409.67466,436.69302 436.16332,444.53005 C 457.32191,465.66209 489.35068,454.91356 510.83881,455.65705 C 521.69991,481.03759 529.61035,514.78479 564.30611,513.45828 C 598.16052,532.45417 540.67506,556.31517 520.9225,544.82974 C 500.49834,542.46907 475.09379,497.11333 460.99297,527.9354 C 471.30039,557.36471 473.26587,577.61397 496.31312,597.08856 C 522.05746,604.73872 555.2762,631.51608 519.49307,637.1842 C 489.87786,616.21173 487.23639,689.59388 522.44335,669.15585 C 548.05464,652.87603 597.43896,684.50628 604.59168,641.71171 C 613.5134,613.17069 662.23566,634.65245 639.8026,660.0408 C 654.14885,671.12869 698.75481,668.4468 693.18811,642.39114 C 686.52678,639.53841 664.75786,645.83294 670.0166,624.60362 C 652.10061,611.38373 612.00192,605.27035 598.57495,629.00007 C 589.1611,662.93058 555.17697,647.20219 530.51005,654.30973 C 508.83517,655.40947 547.87815,635.37161 557.99288,634.22511 C 594.78844,615.07575 532.45186,608.88694 521.30841,593.94889 C 506.0812,577.1735 509.46062,550.4555 538.16236,560.12534 C 569.69455,575.29112 588.24479,547.26134 588.89696,519.44054 C 568.54236,502.77068 554.66171,479.62877 537.63665,459.93786 C 520.50197,430.98652 569.46539,407.73556 538.06164,384.75771 C 524.27798,368.49633 561.55261,350.87896 530.35006,341.97472 C 535.26315,319.40258 591.9622,328.69002 572.7646,292.75408 C 573.72878,287.44247 576.82235,282.88161 579.48906,278.31466 z"
       id="path3707"
       sodipodi:nodetypes="ccccccccccccccccccccccccccccccccccccccccccccccccccccccccccccccccccccccccccccccccccccccccccccccccccc" />
    <path
       style="fill:none;fill-rule:evenodd;stroke:#000000;stroke-width:0.96061152px;stroke-linecap:butt;stroke-linejoin:miter;stroke-opacity:1"
       d="M 352.74999,204.95444 C 353.0393,204.80979 353.3969,204.95444 352.74999,204.95444 z"
       id="path3773" />
    <path
       style="fill:url(#radialGradient3808);fill-opacity:1;fill-rule:evenodd;stroke:#000000;stroke-width:2.49758983;stroke-linecap:butt;stroke-linejoin:miter;stroke-miterlimit:4;stroke-dasharray:none;stroke-opacity:1"
       d="M 255.72379,264.12735 C 258.57401,260.32705 248.49697,270.40409 245.64676,274.20437 C 242.68125,278.15839 241.37966,281.19575 240.22066,285.83172 C 239.18918,289.95765 236.59387,293.3625 235.56972,297.45907 C 234.54564,301.55538 233.24426,304.68546 233.24426,309.08642 C 233.24426,312.68079 232.52014,318.18413 231.69394,321.48892 C 230.53577,326.12161 230.91879,332.16367 230.91879,336.99205 C 230.91879,342.37266 233.24426,346.46838 233.24426,351.72002 C 233.24426,357.14811 235.58537,364.92898 237.89519,369.54862 C 240.59206,374.94236 243.37947,380.63352 244.8716,386.60206 C 246.49513,393.09617 248.74738,396.60863 248.74738,403.6555 C 248.74738,410.66867 246.16952,415.76963 244.8716,422.25926 C 243.75251,427.85474 239.21187,435.22457 234.79457,438.53755 C 231.03906,441.35418 227.24487,446.3315 223.16722,449.38974 C 217.97601,453.28315 212.74601,457.31339 206.88894,460.24193 C 202.30707,462.53286 197.9264,464.33561 193.71128,466.44318 C 189.36959,468.61403 186.62003,469.04856 182.85908,471.86928 C 179.99811,474.015 176.20911,474.80668 172.78205,476.52021 C 167.61573,479.10337 162.86822,482.03605 157.27892,484.27177 C 150.61999,486.93535 143.67386,490.29915 137.12486,493.57365 C 131.3685,496.45184 125.28262,499.05347 119.29625,500.55007 C 112.38683,502.27742 105.87835,505.201 98.367035,505.201 C 92.18599,505.201 86.715224,507.52647 80.538434,507.52647 C 73.594898,507.52647 66.733167,509.07678 59.609209,509.07678 C 51.900142,509.07678 44.796036,509.85194 37.129672,509.85194 C 31.698202,509.85194 27.16406,509.07678 21.626543,509.07678 C 16.190071,509.07678 10.31235,509.54265 5.3482581,508.30162 C 0.09888793,506.98928 -6.9548726,506.75131 -12.480341,506.75131 C -18.763382,506.75131 -24.57782,505.201 -31.084095,505.201 C -32.590423,505.201 -31.288548,512.90991 -30.308938,516.82835 C -28.983824,522.12881 -31.57173,525.62074 -26.433156,526.90538 C -24.477853,527.39421 -17.867882,524.37649 -15.580966,523.80475 C -11.558782,522.79921 -8.0221197,522.29299 -3.9536193,521.47928 C -1.1123748,520.91103 3.2226521,522.20448 6.1234146,521.47928 C 10.326511,520.42851 14.448168,520.66373 18.525918,521.47928 C 22.218093,522.21772 27.393911,522.25444 30.928421,522.25444 C 35.012642,522.25444 39.478813,520.70413 44.10608,520.70413 C 49.83136,520.70413 54.62307,519.15382 60.384366,519.15382 C 61.417908,519.15382 62.45145,519.15382 63.484992,519.15382 C 68.30292,519.15382 74.495183,517.72693 78.988121,516.82835 C 83.499462,515.92608 87.674744,516.40079 92.165781,515.27804 C 96.489597,514.19708 101.12247,514.78297 105.34344,513.72772 C 109.21429,512.76001 113.65974,512.95257 117.74594,512.95257 C 123.13364,512.95257 126.09351,512.45532 129.37329,516.82835 C 129.78607,517.37873 124.37429,525.97218 123.9472,527.68054 C 122.9215,531.78333 119.62494,534.77475 117.74594,538.53273 C 116.07081,541.88299 111.86956,543.63395 109.21923,546.28429 C 105.8035,549.70001 100.47837,552.1515 96.041558,553.2607 C 92.392477,554.17297 87.311438,557.28904 84.414216,559.46195 C 81.229793,561.85027 77.489297,562.53683 74.337182,564.1129 C 70.842826,565.86007 66.803821,566.38381 63.484992,567.21352 C 58.430658,568.4771 53.98244,570.81938 48.757019,571.86445 C 43.903217,572.83522 40.370417,574.73626 36.354517,575.74023 C 31.920694,576.84869 28.013261,579.91086 23.952013,581.94149 C 19.139932,584.34753 13.075797,589.71708 9.2240405,593.56884 C 5.7529235,597.03995 1.9033942,600.45857 -0.077837025,604.42103 C -1.6047395,607.47483 -9.0882301,611.71214 -1.62815,609.84712 C 2.1425667,608.90444 6.0927728,605.21151 9.2240405,603.64587 C 13.189836,601.66297 17.105201,600.25426 20.851387,597.44462 C 23.563261,595.41072 27.125195,594.30771 30.153265,592.79368 C 33.527296,591.10667 38.208145,589.81101 41.780612,588.91789 C 46.48715,587.74126 51.97531,586.14602 55.733427,584.26696 C 59.264074,582.50163 65.799834,582.13794 69.686244,581.16633 C 74.787751,579.89096 78.159802,578.86745 82.863903,576.51539 C 86.461395,574.71664 89.463336,572.92765 93.71609,571.86445 C 97.969986,570.80098 102.35598,568.31967 106.11859,566.43836 C 110.35141,564.32195 113.22623,562.10939 116.97079,560.23711 C 120.41806,558.51347 124.03344,555.71527 126.27267,554.03586 C 129.08686,551.9252 131.29525,550.56358 134.02423,547.8346 C 137.55126,544.30757 141.80974,540.82424 144.87642,537.75758 C 148.57845,534.05553 149.59732,531.48636 153.40314,527.68054 C 156.9685,524.11517 160.51585,519.63296 164.25533,516.82835 C 168.0748,513.96375 171.51418,510.14756 175.88268,507.52647 C 180.66117,504.65938 184.74673,501.03525 189.8355,498.99975 C 194.02642,497.32338 196.94315,493.89561 200.68768,492.02334 C 204.64484,490.04476 207.41565,487.49662 210.76472,485.82209 C 214.67999,483.86445 216.87777,481.99041 220.0666,480.39599 C 222.7515,479.05354 226.26599,477.49056 228.59332,475.74506 C 231.55691,473.52236 233.48719,471.36022 237.12003,469.5438 C 240.578,467.81483 244.20287,462.4255 246.42191,459.46677 C 248.5123,456.67959 249.90672,452.49717 251.07285,450.16489 C 252.5767,447.15721 254.15565,443.99929 255.72379,440.86301 C 257.33355,437.6435 259.08854,435.68383 260.37473,433.11146 C 262.15187,429.55716 264.45628,427.47959 267.35114,424.58473 C 270.61764,421.31823 273.21821,418.71766 276.65301,415.28285 C 279.68614,412.24973 284.26559,409.11635 287.50521,408.30645 C 292.72322,407.00194 297.73962,404.97268 303.00833,403.6555 C 306.86555,402.6912 311.14011,402.88035 315.41084,402.88035 C 320.04353,402.88035 324.34442,403.36964 328.5885,404.43066 C 334.38725,405.88035 340.13107,407.70389 345.64194,409.0816 C 349.82147,410.12648 353.15105,412.70298 357.26928,413.73254 C 360.24233,414.4758 364.33517,417.67543 367.34632,419.9338 C 371.66795,423.17501 374.38539,426.97287 378.19851,430.78598 C 382.30446,434.89194 385.877,438.46447 389.82586,442.41333 C 392.94954,445.537 396.31136,448.36913 399.90289,450.16489 C 402.51026,451.46858 406.37793,455.86477 408.42961,457.91645 C 411.50777,460.99463 415.64533,463.71583 419.2818,466.44318 C 422.91881,469.17093 427.6543,470.16474 430.13399,472.64443 C 432.77952,475.28996 437.08009,475.74506 440.98619,475.74506 C 446.54811,475.74506 452.55844,477.47539 458.03962,478.84568 C 463.98472,480.33196 470.01224,480.48231 475.86822,481.9463 C 479.97673,482.97343 485.20987,482.90531 489.04588,481.9463 C 492.84561,480.99638 498.30097,481.9463 502.22354,481.9463 C 506.75288,481.9463 511.29736,482.19711 515.4012,481.17115 C 519.75999,480.08145 523.72765,481.84617 527.02855,483.49662 C 531.69848,485.83158 534.64762,487.23991 538.65589,491.24818 C 541.13356,493.72585 536.73392,494.28516 535.55527,498.99975 C 534.54485,503.04144 532.67783,507.0801 530.90434,510.62709 C 529.36428,513.70721 528.57886,518.58737 528.57886,522.25444 C 528.57886,525.96641 527.8037,530.47885 527.8037,534.65694 C 527.8037,540.0523 528.84969,544.26698 530.12918,549.38491 C 531.60092,555.2719 532.04699,560.97212 534.78011,566.43836 C 536.87278,570.62368 537.40494,575.10584 540.20621,578.84087 C 543.46224,583.18223 546.06393,588.20146 549.50809,592.79368 C 553.54066,598.17044 557.11648,603.5027 561.91059,608.29681 C 565.70916,612.09538 570.04148,614.20119 573.53794,616.82353 C 578.48401,620.53308 587.44619,622.55078 593.692,623.79994 C 600.36924,625.13539 608.10408,630.23083 613.84607,633.10182 C 618.82218,635.58987 624.89971,637.22175 630.12436,638.52791 C 634.39077,639.59451 637.86024,642.78343 641.7517,644.72917 C 645.76285,646.73474 650.0967,650.74869 653.37905,654.03104 C 657.25123,657.90321 660.61697,664.37898 661.90578,669.53417 C 663.53397,676.04697 667.63489,683.73363 671.20765,689.68824 C 674.42396,695.04876 676.72499,701.40683 681.28468,705.96652 C 684.58993,709.27176 686.95063,713.00434 689.81141,716.81871 C 692.13064,719.91102 696.87877,722.50682 700.6636,725.34543 C 706.17019,729.47537 712.46558,733.18431 718.49219,736.19763 C 720.6764,737.28973 719.13287,729.75912 720.04251,726.12059 C 721.11568,721.82789 720.04251,715.86716 720.04251,711.39262 C 720.04251,708.29881 722.47712,703.20446 723.14313,700.54043 C 723.77004,698.03279 719.3413,700.54043 715.39157,700.54043 C 712.61242,700.54043 707.76995,695.92197 704.53938,695.11434 C 701.4213,694.33481 697.28258,690.18301 695.2375,688.13792 C 692.07796,684.97839 690.60169,682.99038 687.48594,678.83604 C 685.09953,675.65418 683.58958,671.8185 682.05984,668.75902 C 679.99213,664.6236 679.00518,661.84389 676.63375,658.68198 C 674.02367,655.20189 674.67248,652.06977 671.9828,649.3801 C 669.9189,647.3162 668.12379,643.71798 666.55671,641.62853 C 664.87215,639.38247 659.79482,637.52607 658.02999,636.20244 C 655.30607,634.1595 651.45807,631.18083 649.50327,629.22604 C 646.83513,626.55789 644.26929,626.31753 641.7517,623.79994 C 639.65207,621.7003 634.44846,619.76074 631.67467,618.37385 C 627.16731,616.12016 623.26984,614.14096 618.49701,612.94775 C 613.29822,611.64805 609.05752,608.84377 603.76904,607.52165 C 599.60474,606.48057 594.98857,603.45556 592.14169,601.3204 C 589.33287,599.21379 585.80726,597.34474 582.83982,595.11915 C 579.40281,592.5414 575.91073,590.69749 573.53794,588.91789 C 570.49878,586.63854 569.11533,586.04561 566.56153,583.4918 C 564.11796,581.04824 561.49228,579.05828 559.58512,576.51539 C 557.10319,573.20615 554.54445,568.75953 552.60871,564.88805 C 550.02196,559.71454 547.73471,557.01938 546.40746,551.71039 C 545.50379,548.0957 545.63231,544.12082 545.63231,540.08304 C 545.63231,536.00951 547.01299,532.23483 547.95777,528.4557 C 548.88848,524.73285 549.46889,521.63606 550.28324,518.37866 C 551.13274,514.98067 553.41158,512.84172 554.15902,509.85194 C 555.115,506.02804 557.63189,502.13106 558.80997,499.77491 C 560.3652,496.66444 564.96005,498.01801 568.887,498.99975 C 572.56976,499.92044 577.62272,496.56978 580.51434,495.12396 C 584.28745,493.23742 589.73033,492.06629 592.91684,490.47303 C 596.56766,488.64762 600.86168,487.66335 604.54419,485.82209 C 608.7637,483.71234 613.04292,483.12303 616.9467,481.17115 C 621.76906,478.75997 626.19572,477.3218 630.89951,474.9699 C 635.03228,472.90351 638.42745,469.26804 642.52686,467.21833 C 646.11048,465.42652 650.3507,460.16964 652.6039,457.91645 C 655.35812,455.16223 656.18432,452.63805 659.5803,450.94005 C 662.79853,449.33094 667.24796,445.57688 670.43249,443.18848 C 674.60728,440.0574 678.72946,436.96577 682.83499,433.88661 C 686.51166,431.12911 690.63043,429.20277 693.68719,426.9102 C 696.61289,424.71591 699.99873,423.14549 702.21391,421.48411 C 704.6199,419.67961 709.03341,418.42271 712.29094,417.60832 C 717.66799,416.26406 720.31118,414.80725 719.26735,410.63192 C 718.50614,407.5871 715.52143,405.72526 714.61641,402.10519 C 713.44485,397.41898 711.89438,398.71613 707.64,399.77972 C 704.36554,400.59834 700.53916,401.16736 696.78781,402.10519 C 692.21368,403.24873 689.09489,405.92233 685.93562,409.0816 C 683.1045,411.91272 678.42316,413.61299 675.08344,415.28285 C 671.30303,417.17305 667.24191,418.81604 663.45609,420.70895 C 659.08165,422.89617 656.29749,425.69032 652.6039,428.46051 C 649.51524,430.777 647.60042,434.23916 644.85233,436.98723 C 641.52585,440.31371 636.87017,443.41909 634.00013,446.28911 C 631.50596,448.78329 626.4665,451.60624 623.14795,453.26552 C 619.3135,455.18274 614.12246,459.19039 611.5206,461.79224 C 609.05656,464.25629 602.99322,466.44351 599.89326,467.99349 C 596.41455,469.73285 593.0558,470.09044 589.04106,471.09411 C 584.74969,472.16696 578.56245,471.09411 573.53794,471.09411 C 564.77654,471.09411 554.7074,470.06848 546.40746,467.99349 C 541.63541,466.80048 536.24842,466.81026 531.67949,465.66802 C 527.40771,464.60008 523.91833,466.05081 520.05214,464.11771 C 516.34163,462.26245 507.02877,461.79224 502.99869,461.79224 C 495.64935,461.79224 488.87365,459.27729 482.06948,457.91645 C 477.06887,456.91633 471.48807,457.59658 466.56635,456.36614 C 462.10869,455.25173 457.05644,455.70441 452.61353,454.81583 C 448.23703,453.94053 444.25035,453.5002 440.21103,452.49036 C 437.26524,451.75392 431.81746,446.58276 429.35884,444.73879 C 424.81575,441.33149 418.9461,437.98211 413.85571,435.43692 C 408.72598,432.87206 404.00421,428.68604 399.90289,424.58473 C 396.02909,420.71094 390.46988,419.02751 386.72524,415.28285 C 383.02946,411.58708 375.00718,409.03624 370.44694,406.75614 C 365.99097,404.52814 362.25893,401.88697 358.04444,399.77972 C 354.56627,398.04063 350.95543,396.6228 347.96741,395.12879 C 344.43435,393.36225 339.98723,392.93995 336.34006,392.02816 C 333.58818,391.34019 329.35125,388.92133 326.26303,387.37722 C 323.21115,385.85128 319.31029,385.05767 316.18599,384.2766 C 313.314,383.5586 309.2629,383.50144 305.3338,383.50144 C 300.93923,383.50144 296.33309,386.60206 291.38098,386.60206 C 287.83214,386.60206 282.89509,390.06986 280.5288,391.253 C 277.31486,392.85997 276.31259,393.57848 271.22692,393.57848 C 266.98442,393.57848 261.55176,390.67878 258.04926,388.92753 C 253.84699,386.8264 251.03864,384.20818 249.52254,381.17597 C 247.91448,377.95985 248.74738,373.14247 248.74738,369.54862 C 248.74738,365.49714 247.13019,361.52955 246.42191,358.69643 C 245.45485,354.82816 244.8716,351.34021 244.8716,347.06908 C 244.8716,342.0734 246.51825,339.22119 248.74738,336.99205 C 251.02855,334.71089 253.45138,329.90953 254.94864,326.91501 C 256.74915,323.31399 260.51896,320.52147 262.7002,317.61314 C 264.90377,314.67504 267.88478,313.20371 270.45177,310.63673 C 274.03475,307.05374 275.82917,304.48417 278.97848,301.33486 C 282.08055,298.23279 283.94322,294.19844 286.73005,290.48267 C 288.67354,287.89134 289.26154,282.31905 290.60583,279.63048 C 292.21276,276.41661 293.37286,274.76362 294.48162,270.32859 C 295.94408,264.47874 286.55104,271.19326 285.17974,271.87891 C 282.27643,273.33056 280.49266,278.15243 278.97848,281.18079 C 276.88198,285.37381 274.39672,288.06496 272.00208,291.25782 C 269.55407,294.52185 266.24112,296.85135 263.47535,298.23423 C 259.9051,300.01936 250.54372,311.28888 247.19707,312.96221 C 244.05367,314.5339 251.6884,291.41743 254.17347,288.93236 C 257.18486,285.92097 261.39114,281.63427 263.47536,278.85532 C 266.36635,275.00066 273.16087,274.22013 274.32755,269.55344 C 274.89851,267.26958 265.68444,269.49525 264.25051,268.77828 C 259.32141,266.31373 258.3203,270.6186 255.72379,264.12735 z"
       id="path3790"
       sodipodi:nodetypes="cssssssssssssssssssssssssssssssssssssssssssssssssssssssssssssssssssssssssssssssssssssssssssssssssssssssssssssssssssssssssssssssssssssssssssssssssssssssssssssssssssssssssssssssssssssssssssssssssssssssssssssssssssssssssssssssssssssc" />
    <path
       style="fill:url(#radialGradient3800);fill-opacity:1;fill-rule:evenodd;stroke:#000000;stroke-width:2.49758983;stroke-linecap:butt;stroke-linejoin:miter;stroke-miterlimit:4;stroke-dasharray:none;stroke-opacity:1"
       d="M 219.29144,812.16296 C 219.29144,806.01771 225.80083,799.77004 227.043,793.5592 C 228.59755,785.78648 231.32038,778 233.24426,770.30451 C 235.2385,762.3275 240.15319,751.01556 244.87159,744.72435 C 249.15164,739.01763 249.49868,732.34571 254.94863,726.89575 C 259.00039,722.84399 260.99586,717.5156 265.02567,714.49324 C 269.35734,711.24449 271.47373,708.16859 275.87786,705.96653 C 279.86561,703.97265 282.12257,701.68143 285.95489,699.76527 C 289.61161,697.93691 293.68156,695.89572 296.80708,695.11434 C 301.83895,693.85637 306.12912,692.01371 311.53506,692.01371 C 317.78671,692.01371 323.7774,690.4634 330.13881,690.4634 C 330.96766,690.4634 338.28695,696.76829 340.21584,698.21496 C 347.03624,703.33026 353.58074,708.62621 360.36991,713.71809 C 367.51336,719.07568 371.34224,726.79756 376.6482,733.87216 C 382.13788,741.19174 384.3353,749.80612 389.82586,757.12685 C 395.08092,764.1336 399.08552,773.32072 403.00352,781.15671 C 405.70573,786.56114 409.34361,791.72354 412.30539,796.65983 C 414.67406,800.60762 415.79481,804.41383 417.73149,808.28718 C 419.58782,811.99985 419.47044,813.90191 423.15758,817.58905 C 427.19552,821.62699 427.27112,821.4054 433.23462,819.91452 C 437.6399,818.8132 442.02608,818.23185 444.86196,816.8139 C 448.70835,814.8907 439.80874,809.8081 437.88555,805.9617 C 435.75847,801.70754 435.92766,798.57772 432.45946,795.10952 C 428.46127,791.11133 426.44705,787.86813 423.15758,783.48217 C 419.57234,778.70184 417.76838,772.43309 414.63086,767.20388 C 411.88373,762.62534 408.35174,757.82413 404.55383,754.02622 C 401.64254,751.11494 397.71254,745.06215 396.02711,740.84856 C 394.15636,736.1717 389.67467,731.60349 386.72523,727.6709 C 383.4815,723.34594 380.20084,718.45495 376.6482,713.71809 C 372.73911,708.50597 368.83677,704.35635 364.2457,699.76527 C 360.3057,695.82528 355.84374,692.13848 351.84319,688.13792 C 348.11075,684.40549 344.8454,680.3436 342.54131,675.73543 C 340.47432,671.60144 339.08832,667.27913 337.11522,663.33293 C 335.46952,660.04152 334.78974,656.74407 334.78974,652.48073 C 334.78974,650.02044 336.42558,644.38708 337.11522,641.62854 C 338.0712,637.80461 339.58105,634.46497 341.76616,631.55151 C 344.25035,628.23924 347.45835,625.15068 350.29288,623.02479 C 354.04295,620.21223 356.30918,617.54361 360.36991,614.49807 C 363.90746,611.8449 367.95649,610.85732 371.99725,609.84712 C 375.80139,608.8961 380.13411,606.26374 383.6246,603.64587 C 387.94581,600.40497 392.38778,598.87671 396.80226,596.66946 C 402.09703,594.02208 406.41165,591.98906 411.53023,588.9179 C 415.31046,586.64976 417.49074,581.35416 418.50665,577.29056 C 419.5381,573.1647 419.81228,568.96739 420.83211,564.88805 C 421.98026,560.29548 425.17085,556.67354 428.58367,553.2607 C 432.25317,549.59122 438.55295,546.33818 443.31165,543.95882 C 447.7679,541.7307 452.11927,538.39228 456.48931,536.20726 C 460.25409,534.32487 462.81261,532.04616 466.56634,529.23085 C 470.14961,526.5434 472.55619,525.00271 474.31791,521.47929 C 475.77119,518.57272 476.64338,515.56106 476.64338,511.40226 C 476.64338,505.50301 471.77511,499.61917 469.66697,494.34882 C 466.98962,487.65544 464.60042,481.68243 461.9154,474.9699 C 459.22972,468.2557 456.48931,462.76316 456.48931,455.591 C 456.48931,449.79508 455.71416,443.79053 455.71416,437.76239 C 455.71416,431.22835 458.79837,424.65035 460.36509,418.38348 C 462.31342,410.59017 464.62114,402.90961 466.56634,395.12879 C 468.00752,389.36408 469.04782,383.65257 470.44213,378.07535 C 471.98847,371.88995 475.65663,366.54227 478.96884,361.02191 C 482.54978,355.05368 487.53367,350.09353 490.59619,343.96846 C 492.57678,340.00729 494.60121,337.50875 496.02229,334.66659 C 497.87167,330.96783 500.15214,329.5075 501.44838,326.91502 C 503.57861,322.65459 506.42711,320.38598 508.4248,318.3883 C 511.06675,315.74635 513.3426,313.47049 516.17635,310.63674 C 519.77351,307.03959 524.85343,305.06028 528.57886,301.33486 C 531.93021,297.98352 534.9886,295.55862 538.65589,292.80813 C 541.62631,290.58032 544.68503,288.28629 547.95777,285.83173 C 552.54737,282.38952 557.8435,279.4352 562.68575,276.52985 C 566.83798,274.03852 570.85022,271.67245 575.08825,269.55345 C 579.89603,267.14955 574.47698,266.14719 571.98762,264.9025 C 568.37727,263.09733 565.10649,261.24433 561.13543,260.25157 C 557.07141,259.23557 552.74506,261.34613 550.28324,262.57704 C 546.31766,264.55982 543.50155,265.96788 539.43105,268.00313 C 535.7523,269.84251 532.54589,274.11315 529.35401,277.30501 C 526.06242,280.59661 523.29297,282.81973 519.27698,285.83173 C 515.10312,288.96212 511.65488,291.90352 508.4248,295.13361 C 505.28903,298.26937 502.03868,301.51972 498.34776,305.21064 C 494.60145,308.95695 490.78077,312.00247 486.72041,316.06283 C 482.81365,319.96959 478.39149,322.51713 475.09306,326.91502 C 471.7427,331.38218 469.03111,335.93829 466.56634,340.86784 C 463.94863,346.10327 460.38941,351.16271 457.26447,356.37097 C 453.94757,361.89912 451.10547,369.05542 448.73774,374.97473 C 446.57326,380.38594 443.16165,385.65174 441.76133,391.25301 C 440.38053,396.77625 439.15187,402.46603 437.88555,407.53129 C 436.68139,412.34797 437.1104,417.95936 437.1104,423.03442 C 437.1104,428.20213 437.1104,433.36984 437.1104,438.53755 C 437.1104,442.96014 437.88555,446.85052 437.88555,450.94005 C 437.88555,454.77775 440.05146,459.60367 440.98618,463.34255 C 442.04314,467.57039 443.72023,471.13612 445.63712,474.9699 C 447.54762,478.79091 449.5334,481.98731 451.06321,485.04694 C 452.6152,488.15091 450.28806,493.62435 450.28806,496.67429 C 450.28806,501.11452 447.74784,506.26249 445.63712,509.07679 C 442.4629,513.30907 439.6814,517.79291 436.33524,522.25445 C 433.24953,526.36874 429.86238,530.27762 427.03336,533.10664 C 424.04546,536.09454 420.80664,538.54547 417.73149,540.08304 C 413.81523,542.04117 411.85159,545.26813 408.42961,547.83461 C 404.72608,550.61226 402.20099,553.2972 399.90289,556.36133 C 397.94919,558.96626 396.63339,563.2381 396.02711,565.66321 C 395.0493,569.57443 392.57326,572.85219 389.82586,576.5154 C 386.27101,581.2552 381.41181,586.8955 376.6482,590.46821 C 372.88163,593.29313 368.97704,597.38431 365.79601,599.7701 C 362.44538,602.28305 357.00725,604.16447 353.3935,605.97134 C 349.04325,608.14647 344.82918,609.88473 341.76616,612.94775 C 339.00985,615.70405 335.76248,616.62597 332.46428,619.92416 C 329.14833,623.24011 327.48635,625.78929 323.93756,628.45088 C 320.69062,630.88609 318.19039,634.51911 316.96115,636.97761 C 314.9501,640.99971 313.38493,642.75578 312.31021,647.05463 C 311.55854,650.06128 309.52695,652.93853 307.65927,654.8062 C 305.30035,657.16512 304.37443,659.70276 302.23318,662.55777 C 300.30489,665.1288 297.21193,668.47761 295.25676,671.08448 C 292.5512,674.6919 289.97716,675.58894 287.50521,678.0609 C 284.49865,681.06745 279.5392,683.06645 275.87786,685.81246 C 271.68884,688.95421 268.1637,691.20114 265.02567,694.33918 C 261.52401,697.84084 258.58086,699.05647 255.72379,702.8659 C 253.47884,705.85918 249.67005,708.91964 247.19707,711.39262 C 244.23424,714.35544 241.22626,716.58826 238.67035,719.14419 C 235.75029,722.06424 233.78592,725.03724 231.69393,729.22122 C 229.64171,733.32568 226.79158,737.20332 225.49269,742.39888 C 223.82644,749.06386 220.0666,753.63434 220.0666,761.00263 C 220.0666,767.01613 219.29144,773.89358 219.29144,780.38154 C 219.29144,786.06603 219.29144,791.7505 219.29144,797.43499 C 219.29144,802.20116 220.37459,807.83038 219.29144,812.16296 z"
       id="path3792"
       sodipodi:nodetypes="cssssssssssssssssssssssssssssssssssssssssssssssssssssssssssssssssssssssssssssssssssssssssssssssssssssssssssssssssssssssss" />
    <path
       style="fill:url(#radialGradient3818);fill-opacity:1;fill-rule:evenodd;stroke:#000000;stroke-width:2.68973351;stroke-linecap:butt;stroke-linejoin:miter;stroke-miterlimit:4;stroke-dasharray:none;stroke-opacity:1"
       d="M 632.53364,895.9225 C 604.86532,869.50909 577.1708,842.92367 546.39006,820.11712 C 528.04345,804.44519 511.05885,787.17559 495.5185,768.71533 C 479.9707,748.30247 472.36413,722.75635 470.62602,697.38083 C 469.11727,679.86477 469.96626,661.73453 463.74179,644.99687 C 459.5062,633.78831 450.95426,624.68481 440.97531,618.29393 C 429.06244,610.4162 415.58545,605.12571 401.81976,601.53514 C 386.63868,597.88395 370.93322,597.24933 355.39021,597.66077 C 336.19588,596.53418 317.13417,593.7942 298.15306,590.80501 C 275.39333,586.41969 253.02131,579.42418 232.292,568.95362 C 221.76657,562.57829 215.50251,551.46718 210.10126,540.78908 C 209.1947,538.92987 206.65761,538.25282 205.10747,539.74476 C 203.01744,541.34396 203.63745,544.13647 203.66117,546.3776 C 202.85435,558.99384 194.64763,569.99622 184.58063,577.06036 C 174.91309,584.06215 164.20216,589.57282 153.11196,593.93478 C 141.98637,598.10692 130.22017,600.16764 118.4726,601.63497 C 84.75914,607.23751 51.388214,615.62838 19.714734,628.59641 C 3.3667653,634.74114 -13.758136,639.67362 -28.406479,649.48553 C -35.931911,654.89003 -42.656241,661.54359 -51.106887,665.55324 C -55.220909,665.91454 -57.808218,661.66713 -58.580547,658.13576 C -59.484665,654.73025 -60.717298,650.4715 -58.072018,647.51487 C -54.647735,644.77878 -50.019707,644.61252 -46.227891,642.57668 C -36.081391,638.54742 -27.489788,631.6337 -18.066368,626.26223 C -4.1170583,617.78241 10.574973,609.78983 26.81946,606.8761 C 48.299591,602.6955 70.60715,604.14452 91.779673,598.1473 C 109.62602,593.62217 126.56148,586.22969 143.4217,578.96506 C 154.3286,573.68843 165.19428,567.51515 173.29606,558.32737 C 178.47738,550.56717 178.32524,540.85032 178.6998,531.88308 C 178.56919,511.38529 172.94735,491.47289 167.64408,471.83556 C 161.98572,455.38152 150.95659,441.57115 139.95588,428.38216 C 131.76119,418.84251 122.11713,410.69392 112.01574,403.26065 C 101.08797,394.98975 90.465259,386.30956 80.403362,376.99639 C 65.14265,363.41166 50.323471,349.32602 34.631773,336.23201 C 27.226214,329.69185 19.330844,323.60889 12.747732,316.20782 C 11.421837,314.4814 9.3928958,311.97528 10.758408,309.78315 C 13.289021,306.99155 17.455607,308.35764 20.459432,309.52225 C 27.669817,312.27114 34.406556,316.10376 41.48874,319.15569 C 71.118952,333.45168 98.785343,351.57893 124.84945,371.60987 C 134.49466,379.11418 144.72962,387.05564 157.12502,389.01304 C 166.5807,390.42539 177.25333,387.30725 182.85568,379.16963 C 187.75793,372.36829 191.30776,364.679 196.49968,358.07046 C 202.391,349.79716 206.27274,340.10707 207.44878,329.99282 C 210.2481,311.11865 208.69197,291.98832 208.48046,272.99892 C 208.19029,262.3687 208.02439,251.73318 208.1364,241.09938 C 206.83925,237.87142 211.29609,234.80583 214.04885,236.59043 C 223.90564,240.14417 232.82775,239.73062 232.2428,251.16303 C 230.13653,268.98274 228.86438,286.91246 228.95305,304.86575 C 228.74189,316.78947 228.76701,328.93455 225.58343,340.50996 C 220.07542,355.41943 208.76583,366.9513 199.72511,379.6883 C 193.47719,390.45579 193.30763,403.3352 193.4351,415.44279 C 193.44193,434.26153 199.82832,453.14132 211.88021,467.66613 C 225.60936,486.39638 241.84842,503.16806 259.09561,518.65498 C 272.59721,529.87309 288.61018,538.12764 305.74791,542.00226 C 330.27376,548.32123 355.79842,548.08151 380.92403,547.60356 C 397.17271,547.52842 413.61252,547.69042 429.5156,551.44103 C 438.60276,555.98316 444.89123,564.45339 453.67199,569.46158 C 469.00708,581.14803 480.87477,597.28639 498.16514,606.37286 C 519.97277,617.6474 544.48704,622.07966 568.67005,624.60303 C 593.68015,627.74179 618.69,622.97722 643.35813,619.30364 C 669.13691,615.34538 695.28107,615.10867 721.22009,612.80314 C 723.2223,612.41656 724.91438,614.11759 724.82807,616.09766 C 724.69218,619.38001 722.27137,621.98895 721.47656,625.11863 C 718.25875,633.88105 717.22205,643.37725 718.07256,652.65957 C 715.89341,655.79637 711.43483,655.17606 708.35885,653.90457 C 688.1752,649.69349 667.42982,651.81905 647.12517,653.81238 C 623.91007,656.32319 600.31712,659.60423 577.05939,655.62099 C 556.22154,652.2257 536.49168,644.41492 516.55729,637.7414 C 513.84715,638.036 513.718,641.67151 514.85732,643.55003 C 519.47703,655.5166 517.58614,668.5639 516.56566,680.98845 C 515.1908,695.7797 515.44895,710.92023 519.53385,725.30225 C 522.57627,736.66801 528.12883,747.61301 536.92638,755.59517 C 545.78093,764.06717 556.03002,770.86659 565.4236,778.69577 C 595.24057,801.59388 628.54275,820.01397 655.76418,846.22406 C 660.55664,850.9872 665.74754,855.55559 669.50464,861.18965 C 670.61384,865.21051 667.16221,868.69239 663.87992,870.38279 C 653.24886,877.35234 643.92326,886.132 635.33493,895.44748 C 634.55296,896.04039 633.46571,896.30046 632.53364,895.9225 z"
       id="path3810"
       sodipodi:nodetypes="ccccccccccccccccccccccccccccccccccccccccccccccccccccccccccccccccccccccccccccc" />
    <path
       style="fill:url(#radialGradient3782);fill-opacity:1;fill-rule:evenodd;stroke:#000000;stroke-width:2.76238132;stroke-linecap:butt;stroke-linejoin:miter;stroke-miterlimit:4;stroke-dasharray:none;stroke-opacity:1"
       d="M 432.24406,278.31262 L 342.9511,278.31262 C 344.78917,297.63319 342.10388,317.38085 334.8475,335.382 C 319.52614,380.6695 292.50339,420.61323 274.89936,464.91058 C 267.99855,480.88144 261.75132,497.49637 251.44806,511.60651 C 244.86688,516.77988 235.88598,515.19263 228.3958,513.34058 C 195.91268,506.00189 180.28407,503.06772 148.0966,494.66839 C 120.22043,486.36722 77.231665,467.53177 49.257356,459.83224 C 41.754871,457.53969 31.189497,451.17831 20.09671,444.31854 L 20.09671,520.06009 C 67.370834,527.97564 106.86064,539.31149 155.46349,555.05107 C 176.17037,561.51315 206.55946,582.32727 227.16798,589.11309 C 245.33075,595.66581 261.90337,607.79902 271.79912,624.72339 C 282.96901,642.7079 289.4144,663.14616 299.94682,681.4831 C 312.02824,704.11839 327.78279,724.49437 344.70074,743.63081 C 355.7371,756.52395 366.94404,769.51636 377.11509,783.20469 L 544.52789,783.20469 C 527.76128,760.26141 508.34837,739.24052 488.29389,719.23002 C 458.00322,688.15398 427.73879,656.15331 406.36783,617.94195 C 384.84608,580.16531 371.13442,537.09011 371.52853,493.24398 C 372.10616,462.1669 382.62571,432.42797 394.5194,404.12535 C 409.40418,367.33693 425.10545,330.26621 430.70929,290.63688 C 431.29874,286.56321 431.84131,282.44616 432.24406,278.31262 z"
       id="path3728" />
    <path
       sodipodi:type="inkscape:offset"
       inkscape:radius="6.511044"
       inkscape:original="M 359.5 252.9375 C 361.41345 273.05027 358.64766 293.60449 351.09375 312.34375 C 335.14416 359.48819 307.01336 401.0738 288.6875 447.1875 C 281.50371 463.81323 274.97573 481.09254 264.25 495.78125 C 257.39897 501.16675 248.0473 499.52174 240.25 497.59375 C 206.43496 489.95416 190.16352 486.89998 156.65625 478.15625 C 127.63706 469.5147 82.902604 449.89024 53.78125 441.875 C 45.971137 439.48845 34.98513 432.89105 23.4375 425.75 L 23.4375 504.59375 C 72.65003 512.83388 113.74801 524.61504 164.34375 541 C 185.89969 547.72702 217.54645 569.40469 239 576.46875 C 257.90749 583.29012 275.13599 595.91292 285.4375 613.53125 C 297.0654 632.25318 303.78572 653.53618 314.75 672.625 C 327.32682 696.18842 343.73211 717.3914 361.34375 737.3125 C 372.83265 750.73431 384.50565 764.28165 395.09375 778.53125 L 569.34375 778.53125 C 551.88965 754.64723 531.68928 732.7685 510.8125 711.9375 C 479.27981 679.58723 447.77849 646.2469 425.53125 606.46875 C 403.12702 567.14313 388.83973 522.30023 389.25 476.65625 C 389.8513 444.3049 400.80613 413.36938 413.1875 383.90625 C 428.6826 345.60937 445.04138 307.00427 450.875 265.75 C 451.48862 261.50929 452.04948 257.24053 452.46875 252.9375 L 359.5 252.9375 z "
       style="fill:none;fill-opacity:1;fill-rule:evenodd;stroke:#000000;stroke-width:4.27600002;stroke-linecap:butt;stroke-linejoin:miter;stroke-miterlimit:4;stroke-dasharray:none;stroke-opacity:0.57978725"
       id="path3822"
       d="M 359.5,246.4375 C 357.66875,246.44144 355.92381,247.21628 354.69286,248.5721 C 353.46192,249.92792 352.85877,251.73939 353.03125,253.5625 C 354.84906,272.67002 352.2052,292.18708 345.0625,309.90625 C 345.01762,310.01964 344.97594,310.13427 344.9375,310.25 C 329.36021,356.29397 301.29925,397.79089 282.625,444.78125 C 275.52662,461.2093 269.26405,477.38567 259.625,490.9375 C 255.49416,493.69894 248.95808,493.04809 241.8125,491.28125 C 241.77094,491.27042 241.72927,491.26 241.6875,491.25 C 207.79837,483.59367 191.6799,480.55098 158.3125,471.84375 C 130.12331,463.44936 85.598164,443.87784 55.5,435.59375 C 49.265123,433.68855 38.377223,427.33172 26.875,420.21875 C 24.867441,418.9768 22.344948,418.91864 20.282277,420.06673 C 18.219606,421.21482 16.939835,423.38934 16.9375,425.75 L 16.9375,504.59375 C 16.945418,507.76937 19.242874,510.47615 22.375,511 C 71.172917,519.17071 111.86089,530.83909 162.34375,547.1875 C 162.36453,547.19803 162.38536,547.20845 162.40625,547.21875 C 172.1506,550.2597 185.34806,557.20633 198.625,564.34375 C 211.90194,571.48117 225.26607,578.80288 236.96875,582.65625 C 254.65196,589.03593 270.42364,600.75505 279.8125,616.8125 C 279.84302,616.86502 279.87427,616.91711 279.90625,616.96875 C 290.96052,634.76709 297.66072,655.97008 309.09375,675.875 C 322.01408,700.082 338.66758,721.48952 356.46875,741.625 C 367.96695,755.05768 379.47497,768.40976 389.875,782.40625 C 391.10248,784.05624 393.03726,785.02942 395.09375,785.03125 L 569.34375,785.03125 C 571.79077,785.02571 574.0281,783.64877 575.13561,781.46672 C 576.24311,779.28467 576.0338,776.66593 574.59375,774.6875 C 556.84525,750.40062 536.41008,728.30152 515.40625,707.34375 C 483.92141,675.04257 452.94442,642.12684 431.21875,603.28125 C 431.20837,603.2708 431.19795,603.26038 431.1875,603.25 C 409.24775,564.73968 395.35229,520.96586 395.75,476.71875 C 396.32543,445.75938 406.90535,415.66453 419.1875,386.4375 C 419.19815,386.40633 419.20857,386.37508 419.21875,386.34375 C 434.68685,348.11359 451.32145,309.02381 457.3125,266.65625 C 457.93428,262.35916 458.50419,258.00967 458.9375,253.5625 C 459.10998,251.73939 458.50683,249.92792 457.27589,248.5721 C 456.04494,247.21628 454.3,246.44144 452.46875,246.4375 L 359.5,246.4375 z"
       transform="matrix(0.9606115,0,0,0.9606115,-2.4033064,35.348937)" />
    <path
       sodipodi:type="inkscape:offset"
       inkscape:radius="15.853868"
       inkscape:original="M 359.5 252.9375 C 361.41345 273.05027 358.64766 293.60449 351.09375 312.34375 C 335.14416 359.48819 307.01336 401.0738 288.6875 447.1875 C 281.50371 463.81323 274.97573 481.09254 264.25 495.78125 C 257.39897 501.16675 248.0473 499.52174 240.25 497.59375 C 206.43496 489.95416 190.16352 486.89998 156.65625 478.15625 C 127.63706 469.5147 82.902604 449.89024 53.78125 441.875 C 45.971137 439.48845 34.98513 432.89105 23.4375 425.75 L 23.4375 504.59375 C 72.65003 512.83388 113.74801 524.61504 164.34375 541 C 185.89969 547.72702 217.54645 569.40469 239 576.46875 C 257.90749 583.29012 275.13599 595.91292 285.4375 613.53125 C 297.0654 632.25318 303.78572 653.53618 314.75 672.625 C 327.32682 696.18842 343.73211 717.3914 361.34375 737.3125 C 372.83265 750.73431 384.50565 764.28165 395.09375 778.53125 L 569.34375 778.53125 C 551.88965 754.64723 531.68928 732.7685 510.8125 711.9375 C 479.27981 679.58723 447.77849 646.2469 425.53125 606.46875 C 403.12702 567.14313 388.83973 522.30023 389.25 476.65625 C 389.8513 444.3049 400.80613 413.36938 413.1875 383.90625 C 428.6826 345.60937 445.04138 307.00427 450.875 265.75 C 451.48862 261.50929 452.04948 257.24053 452.46875 252.9375 L 359.5 252.9375 z "
       style="fill:none;fill-opacity:1;fill-rule:evenodd;stroke:#000000;stroke-width:8.57600021;stroke-linecap:butt;stroke-linejoin:miter;stroke-miterlimit:4;stroke-dasharray:none;stroke-opacity:0.39361704"
       id="path3826"
       d="M 359.5,237.09375 C 355.03674,237.09493 350.78069,238.97722 347.77689,242.27841 C 344.7731,245.57961 343.2998,249.99395 343.71875,254.4375 C 345.39934,272.10257 342.92766,290.15083 336.375,306.40625 C 336.26287,306.68449 336.15866,306.96585 336.0625,307.25 C 321.01944,351.71489 293.14291,393.09546 273.96875,441.34375 C 267.15897,457.10389 261.34482,471.50005 253.40625,483.375 C 252.2919,483.49848 249.66238,483.6034 244.0625,482.21875 C 243.95866,482.18643 243.85449,482.15518 243.75,482.125 C 209.75456,474.44465 193.82294,471.46736 160.65625,462.8125 C 133.65805,454.77278 89.499808,435.26363 58,426.59375 C 54.02546,425.37924 43.218318,419.35393 31.78125,412.28125 C 26.893381,409.26221 20.754773,409.12339 15.735428,411.9184 C 10.716083,414.71341 7.601343,420.00493 7.59375,425.75 L 7.59375,504.59375 C 7.5984724,512.32933 13.184635,518.93235 20.8125,520.21875 C 69.01548,528.28984 109.14786,539.7978 159.46875,556.09375 C 159.52078,556.10443 159.57286,556.11485 159.625,556.125 C 167.88619,558.70309 180.95751,565.43352 194.21875,572.5625 C 207.47999,579.69148 220.92823,587.21679 234.03125,591.53125 C 249.95771,597.27713 263.67072,607.71352 271.75,621.53125 C 271.8212,621.65724 271.89413,621.78225 271.96875,621.90625 C 282.19992,638.37932 288.89434,659.45529 301,680.53125 C 314.41323,705.66173 331.39563,727.3694 349.46875,747.8125 C 360.9803,761.26077 372.24484,774.3667 382.375,788 C 385.36974,792.01456 390.08524,794.37811 395.09375,794.375 L 569.34375,794.375 C 575.30775,794.37283 580.76604,791.02411 583.47009,785.70834 C 586.17414,780.39257 585.66648,774.00907 582.15625,769.1875 C 563.9853,744.32255 543.18614,721.85843 522,700.71875 C 490.58383,668.48802 460.35227,636.22618 439.375,598.71875 C 439.35428,598.68743 439.33344,598.65618 439.3125,598.625 C 418.03925,561.28457 404.71405,519.05522 405.09375,476.8125 C 405.63205,447.85051 415.67271,418.95075 427.8125,390.0625 C 427.83386,389.98973 427.85469,389.91682 427.875,389.84375 C 443.30437,351.70933 460.34556,311.9338 466.5625,267.96875 C 467.19598,263.59076 467.79653,259.12275 468.25,254.46875 C 468.67832,250.02008 467.20925,245.59724 464.20439,242.28893 C 461.19953,238.98061 456.93799,237.09409 452.46875,237.09375 L 359.5,237.09375 z"
       transform="matrix(0.9606115,0,0,0.9606115,-2.4033064,35.348937)" />
  </g>
</svg>
