<?xml version="1.0" encoding="UTF-8" standalone="no"?>
<!-- Created with Inkscape (http://www.inkscape.org/) -->
<svg
   xmlns:dc="http://purl.org/dc/elements/1.1/"
   xmlns:cc="http://creativecommons.org/ns#"
   xmlns:rdf="http://www.w3.org/1999/02/22-rdf-syntax-ns#"
   xmlns:svg="http://www.w3.org/2000/svg"
   xmlns="http://www.w3.org/2000/svg"
   xmlns:xlink="http://www.w3.org/1999/xlink"
   xmlns:sodipodi="http://sodipodi.sourceforge.net/DTD/sodipodi-0.dtd"
   xmlns:inkscape="http://www.inkscape.org/namespaces/inkscape"
   width="640"
   height="480"
   id="svg2"
   sodipodi:version="0.32"
   inkscape:version="0.46"
   sodipodi:docname="bg5.svg"
   inkscape:output_extension="org.inkscape.output.svg.inkscape"
   version="1.0"
   inkscape:export-filename="C:\Users\Jesper\Documents\Visual Studio 2008\Projects\L2Stack\Debug\data\bg5.png"
   inkscape:export-xdpi="90"
   inkscape:export-ydpi="90">
  <defs
     id="defs4">
    <linearGradient
       id="linearGradient3740">
      <stop
         id="stop3742"
         offset="0"
         style="stop-color:#858800;stop-opacity:1;" />
      <stop
         id="stop3744"
         offset="1"
         style="stop-color:#8b621b;stop-opacity:1;" />
    </linearGradient>
    <linearGradient
       id="linearGradient3724">
      <stop
         style="stop-color:#858800;stop-opacity:1;"
         offset="0"
         id="stop3726" />
      <stop
         style="stop-color:#8b621b;stop-opacity:1;"
         offset="1"
         id="stop3728" />
    </linearGradient>
    <linearGradient
       id="linearGradient3410">
      <stop
         id="stop3412"
         offset="0"
         style="stop-color:#e7d24c;stop-opacity:1;" />
      <stop
         id="stop3414"
         offset="1"
         style="stop-color:#78702a;stop-opacity:1;" />
    </linearGradient>
    <linearGradient
       id="linearGradient3400">
      <stop
         style="stop-color:#ffe508;stop-opacity:0.70744681;"
         offset="0"
         id="stop3402" />
      <stop
         style="stop-color:#faff08;stop-opacity:0;"
         offset="1"
         id="stop3404" />
    </linearGradient>
    <linearGradient
       id="linearGradient3381">
      <stop
         style="stop-color:#faff08;stop-opacity:1;"
         offset="0"
         id="stop3383" />
      <stop
         style="stop-color:#faff08;stop-opacity:0;"
         offset="1"
         id="stop3385" />
    </linearGradient>
    <linearGradient
       id="linearGradient3349">
      <stop
         style="stop-color:#faff08;stop-opacity:1;"
         offset="0"
         id="stop3351" />
      <stop
         style="stop-color:#faff08;stop-opacity:0;"
         offset="1"
         id="stop3353" />
    </linearGradient>
    <linearGradient
       inkscape:collect="always"
       id="linearGradient3341">
      <stop
         style="stop-color:#faff08;stop-opacity:1;"
         offset="0"
         id="stop3343" />
      <stop
         style="stop-color:#faff08;stop-opacity:0;"
         offset="1"
         id="stop3345" />
    </linearGradient>
    <linearGradient
       id="linearGradient3267">
      <stop
         id="stop3269"
         offset="0"
         style="stop-color:#d8d632;stop-opacity:1;" />
      <stop
         id="stop3271"
         offset="1"
         style="stop-color:#847126;stop-opacity:1;" />
    </linearGradient>
    <linearGradient
       id="linearGradient3309">
      <stop
         style="stop-color:#93681d;stop-opacity:1;"
         offset="0"
         id="stop3311" />
      <stop
         style="stop-color:#6a5c44;stop-opacity:1;"
         offset="1"
         id="stop3313" />
    </linearGradient>
    <linearGradient
       id="linearGradient3165">
      <stop
         style="stop-color:#f0ee4b;stop-opacity:1;"
         offset="0"
         id="stop3167" />
      <stop
         id="stop3408"
         offset="0.31543624"
         style="stop-color:#cfc13f;stop-opacity:1;" />
      <stop
         style="stop-color:#99832d;stop-opacity:1;"
         offset="1"
         id="stop3169" />
    </linearGradient>
    <linearGradient
       id="linearGradient5760">
      <stop
         style="stop-color:#e4bd4f;stop-opacity:1;"
         offset="0"
         id="stop5762" />
      <stop
         style="stop-color:#78702a;stop-opacity:1;"
         offset="1"
         id="stop5764" />
    </linearGradient>
    <linearGradient
       id="linearGradient5724">
      <stop
         style="stop-color:#436c39;stop-opacity:1;"
         offset="0"
         id="stop5726" />
      <stop
         style="stop-color:#afd0a7;stop-opacity:1;"
         offset="1"
         id="stop5728" />
    </linearGradient>
    <linearGradient
       id="linearGradient5716">
      <stop
         style="stop-color:#98b65f;stop-opacity:1;"
         offset="0"
         id="stop5718" />
      <stop
         style="stop-color:#574617;stop-opacity:1;"
         offset="1"
         id="stop5720" />
    </linearGradient>
    <inkscape:perspective
       sodipodi:type="inkscape:persp3d"
       inkscape:vp_x="0 : 526.18109 : 1"
       inkscape:vp_y="0 : 1000 : 0"
       inkscape:vp_z="744.09448 : 526.18109 : 1"
       inkscape:persp3d-origin="372.04724 : 350.78739 : 1"
       id="perspective10" />
    <linearGradient
       inkscape:collect="always"
       xlink:href="#linearGradient3165"
       id="linearGradient3171"
       x1="57.713039"
       y1="517.00134"
       x2="444.53125"
       y2="517.00134"
       gradientUnits="userSpaceOnUse" />
    <linearGradient
       inkscape:collect="always"
       xlink:href="#linearGradient3165"
       id="linearGradient3173"
       x1="507.125"
       y1="612.28186"
       x2="743.94135"
       y2="612.28186"
       gradientUnits="userSpaceOnUse" />
    <linearGradient
       inkscape:collect="always"
       xlink:href="#linearGradient3165"
       id="linearGradient3175"
       x1="45.537136"
       y1="524.48444"
       x2="596.32379"
       y2="524.48444"
       gradientUnits="userSpaceOnUse" />
    <linearGradient
       inkscape:collect="always"
       xlink:href="#linearGradient3165"
       id="linearGradient3177"
       x1="499.44543"
       y1="510.07794"
       x2="735.34418"
       y2="510.07794"
       gradientUnits="userSpaceOnUse" />
    <linearGradient
       inkscape:collect="always"
       xlink:href="#linearGradient3165"
       id="linearGradient3179"
       x1="315.72147"
       y1="522.24219"
       x2="518.28723"
       y2="522.24219"
       gradientUnits="userSpaceOnUse" />
    <linearGradient
       inkscape:collect="always"
       xlink:href="#linearGradient3165"
       id="linearGradient3196"
       x1="352.51352"
       y1="224.22842"
       x2="466.02954"
       y2="811.63654"
       gradientUnits="userSpaceOnUse" />
    <linearGradient
       inkscape:collect="always"
       xlink:href="#linearGradient3165"
       id="linearGradient3198"
       gradientUnits="userSpaceOnUse"
       x1="352.51352"
       y1="224.22842"
       x2="466.02954"
       y2="811.63654" />
    <linearGradient
       inkscape:collect="always"
       xlink:href="#linearGradient3165"
       id="linearGradient3200"
       gradientUnits="userSpaceOnUse"
       x1="352.51352"
       y1="224.22842"
       x2="466.02954"
       y2="811.63654" />
    <linearGradient
       inkscape:collect="always"
       xlink:href="#linearGradient3165"
       id="linearGradient3202"
       gradientUnits="userSpaceOnUse"
       x1="352.51352"
       y1="224.22842"
       x2="466.02954"
       y2="811.63654" />
    <linearGradient
       inkscape:collect="always"
       xlink:href="#linearGradient3165"
       id="linearGradient3204"
       gradientUnits="userSpaceOnUse"
       x1="352.51352"
       y1="224.22842"
       x2="466.02954"
       y2="811.63654" />
    <linearGradient
       inkscape:collect="always"
       xlink:href="#linearGradient3165"
       id="linearGradient3206"
       gradientUnits="userSpaceOnUse"
       x1="352.51352"
       y1="224.22842"
       x2="466.02954"
       y2="811.63654" />
    <linearGradient
       inkscape:collect="always"
       xlink:href="#linearGradient3165"
       id="linearGradient3209"
       gradientUnits="userSpaceOnUse"
       x1="352.51352"
       y1="224.22842"
       x2="466.02954"
       y2="811.63654"
       gradientTransform="matrix(0.9652954,0,0,0.9652954,1.5803493,28.167544)" />
    <linearGradient
       inkscape:collect="always"
       xlink:href="#linearGradient3410"
       id="linearGradient3212"
       gradientUnits="userSpaceOnUse"
       x1="352.51352"
       y1="224.22842"
       x2="466.02954"
       y2="811.63654"
       gradientTransform="matrix(0.9652954,0,0,0.9652954,1.5803493,28.167544)" />
    <linearGradient
       inkscape:collect="always"
       xlink:href="#linearGradient5760"
       id="linearGradient3215"
       gradientUnits="userSpaceOnUse"
       x1="352.51352"
       y1="224.22842"
       x2="466.02954"
       y2="811.63654"
       gradientTransform="matrix(0.9652954,0,0,0.9652954,1.5803493,28.167544)" />
    <linearGradient
       inkscape:collect="always"
       xlink:href="#linearGradient3309"
       id="linearGradient3218"
       gradientUnits="userSpaceOnUse"
       x1="497.77841"
       y1="433.65201"
       x2="536.24091"
       y2="810.69336"
       gradientTransform="matrix(0.9652954,0,0,0.9652954,1.5803493,28.167544)" />
    <linearGradient
       inkscape:collect="always"
       xlink:href="#linearGradient3309"
       id="linearGradient3221"
       gradientUnits="userSpaceOnUse"
       x1="352.51352"
       y1="224.22842"
       x2="466.02954"
       y2="811.63654"
       gradientTransform="matrix(0.9652954,0,0,0.9652954,1.5803493,28.167544)" />
    <linearGradient
       inkscape:collect="always"
       xlink:href="#linearGradient5760"
       id="linearGradient3301"
       gradientUnits="userSpaceOnUse"
       x1="309.55197"
       y1="641.94495"
       x2="296.79889"
       y2="355.58038"
       spreadMethod="pad"
       gradientTransform="translate(-553.01981,268.974)" />
    <linearGradient
       inkscape:collect="always"
       xlink:href="#linearGradient5716"
       id="linearGradient3377"
       x1="375.76279"
       y1="597.04865"
       x2="370.74722"
       y2="258.81866"
       gradientUnits="userSpaceOnUse"
       spreadMethod="reflect"
       gradientTransform="matrix(0.9425444,0,0,0.9420804,2.6051618,44.501323)" />
    <linearGradient
       inkscape:collect="always"
       xlink:href="#linearGradient3341"
       id="linearGradient3347"
       x1="369.62686"
       y1="344.68045"
       x2="420.39444"
       y2="417.93677"
       gradientUnits="userSpaceOnUse"
       gradientTransform="matrix(0.9652954,0,0,0.9652954,1.5803493,28.167544)" />
    <linearGradient
       inkscape:collect="always"
       xlink:href="#linearGradient3349"
       id="linearGradient3355"
       x1="577.20972"
       y1="329.51669"
       x2="636.35681"
       y2="390.70724"
       gradientUnits="userSpaceOnUse"
       gradientTransform="matrix(0.9652954,0,0,0.9652954,1.5803493,28.167544)" />
    <linearGradient
       inkscape:collect="always"
       xlink:href="#linearGradient3400"
       id="linearGradient3367"
       x1="123.19874"
       y1="329.02469"
       x2="161.39139"
       y2="389.35342"
       gradientUnits="userSpaceOnUse"
       gradientTransform="matrix(0.9652954,0,0,0.9652954,1.5803493,28.167544)" />
    <linearGradient
       inkscape:collect="always"
       xlink:href="#linearGradient3400"
       id="linearGradient3389"
       x1="123.21262"
       y1="577.4541"
       x2="161.41014"
       y2="638.7804"
       gradientUnits="userSpaceOnUse"
       gradientTransform="matrix(0.9396639,0,0,1.2403208,4.561754,-130.64701)" />
    <linearGradient
       inkscape:collect="always"
       xlink:href="#linearGradient3400"
       id="linearGradient3406"
       x1="255.64503"
       y1="469.74118"
       x2="289.51407"
       y2="521.50299"
       gradientUnits="userSpaceOnUse"
       gradientTransform="matrix(0.9652954,0,0,0.9652954,1.5803493,28.167544)" />
    <filter
       inkscape:collect="always"
       id="filter3688"
       x="-0.16454986"
       width="1.3290997"
       y="-0.1400324"
       height="1.2800648">
      <feGaussianBlur
         inkscape:collect="always"
         stdDeviation="1.2920416"
         id="feGaussianBlur3690" />
    </filter>
    <linearGradient
       inkscape:collect="always"
       xlink:href="#linearGradient3724"
       id="linearGradient3730"
       x1="397.70801"
       y1="324.88107"
       x2="466.02954"
       y2="811.63654"
       gradientUnits="userSpaceOnUse"
       gradientTransform="matrix(0.9652954,0,0,0.9652954,1.5803493,28.167544)" />
    <linearGradient
       inkscape:collect="always"
       xlink:href="#linearGradient3740"
       id="linearGradient3738"
       x1="574.88727"
       y1="223.82843"
       x2="643.52747"
       y2="787.59009"
       gradientUnits="userSpaceOnUse"
       gradientTransform="matrix(0.9652954,0,0,0.9652954,1.5803493,28.167544)" />
    <linearGradient
       inkscape:collect="always"
       xlink:href="#linearGradient3740"
       id="linearGradient3752"
       x1="198.94446"
       y1="237.33234"
       x2="292.95651"
       y2="791.65448"
       gradientUnits="userSpaceOnUse"
       gradientTransform="matrix(0.9652954,0,0,0.9652954,1.5803493,28.167544)" />
  </defs>
  <sodipodi:namedview
     id="base"
     pagecolor="#ffffff"
     bordercolor="#666666"
     borderopacity="1.0"
     gridtolerance="10000"
     guidetolerance="10"
     objecttolerance="10"
     inkscape:pageopacity="0.0"
     inkscape:pageshadow="2"
     inkscape:zoom="0.98040841"
     inkscape:cx="341.20417"
     inkscape:cy="187.90513"
     inkscape:document-units="px"
     inkscape:current-layer="layer1"
     showgrid="false"
     inkscape:window-width="1676"
     inkscape:window-height="1000"
     inkscape:window-x="0"
     inkscape:window-y="14"
     showguides="true"
     inkscape:guide-bbox="true" />
  <metadata
     id="metadata7">
    <rdf:RDF>
      <cc:Work
         rdf:about="">
        <dc:format>image/svg+xml</dc:format>
        <dc:type
           rdf:resource="http://purl.org/dc/dcmitype/StillImage" />
      </cc:Work>
    </rdf:RDF>
  </metadata>
  <g
     inkscape:label="Layer 1"
     inkscape:groupmode="layer"
     id="layer1"
     transform="translate(-45.342155,-288.32932)">
    <rect
       style="opacity:1;fill:url(#linearGradient3377);fill-opacity:1;stroke:none;stroke-width:18.89999962;stroke-linecap:round;stroke-linejoin:round;stroke-miterlimit:4;stroke-dasharray:none;stroke-opacity:1"
       id="rect2465"
       width="640"
       height="480"
       x="45.342155"
       y="288.32932"
       ry="0"
       inkscape:export-filename="C:\Users\Jesper\Pictures\bg5.png"
       inkscape:export-xdpi="105.98405"
       inkscape:export-ydpi="105.98405" />
    <path
       style="fill:url(#linearGradient3221);fill-opacity:1;fill-rule:evenodd;stroke:none;stroke-width:1px;stroke-linecap:butt;stroke-linejoin:miter;marker:none;marker-start:none;marker-mid:none;marker-end:none;stroke-miterlimit:4;stroke-dasharray:none;stroke-dashoffset:0;stroke-opacity:1;visibility:visible;display:inline;overflow:visible;enable-background:accumulate"
       d="M 428.69339,246.80695 C 407.35878,259.31798 390.68245,278.00251 374.79985,296.62512 C 369.50171,302.73553 363.90702,309.12381 356.17829,312.14041 C 350.00635,315.06228 343.79705,319.12379 340.97271,325.61405 C 338.11644,331.29724 335.57348,337.71032 329.90599,341.19928 C 320.53741,348.3975 308.37474,352.06685 301.06324,361.79776 C 294.27912,371.74556 293.15478,384.21726 287.29982,394.62325 C 284.22215,401.53408 281.906,409.69027 275.07978,413.90726 C 267.37702,418.88992 258.08713,421.07534 251.0055,427.08505 C 242.45511,433.14841 233.7359,439.74541 228.6974,449.18524 C 223.70164,457.74373 217.76933,465.73596 210.93826,472.91889 C 204.10298,480.45413 197.17629,489.0925 196.27185,499.62222 C 195.59693,505.60531 196.56317,511.67231 195.84604,517.63263 C 194.34982,522.1154 189.48697,524.31284 185.06116,524.5466 C 178.56792,525.82656 171.94546,527.72488 166.77219,532.04523 C 164.28355,533.76122 161.93226,535.66715 159.58714,537.57201 C 146.63918,538.21953 135.43884,525.42108 136.72923,512.74636 C 137.24334,499.6478 142.85254,486.97662 141.0607,473.7474 C 140.17006,463.39583 135.404,453.92132 130.12126,445.15911 C 124.70826,435.54151 119.79447,425.19769 119.23644,413.99208 C 117.81813,401.7779 115.79375,389.11653 108.92236,378.63364 C 102.68913,366.64913 103.32891,350.70356 112.43346,340.31084 C 116.71209,335.28118 123.49645,332.69714 126.79726,326.8058 C 129.3445,320.35551 126.58934,312.9413 121.8092,308.29322 C 113.23135,297.91633 103.40865,288.46791 96.443715,276.84632 C 91.27878,269.16332 86.360955,261.23896 80.7856,253.87958 C 78.554603,252.17848 76.396615,255.08939 76.028755,257.12354 C 75.390521,260.76877 74.389214,264.84029 76.026326,268.34635 C 84.938804,280.3268 92.161926,293.55591 102.18865,304.69884 C 106.04962,309.35756 110.11919,313.85605 113.64511,318.78178 C 113.48927,321.58105 110.68414,323.08036 109.14313,325.12386 C 104.07685,330.06531 98.523622,335.1465 96.483659,342.1702 C 89.524676,358.39878 91.976339,377.88068 101.60908,392.50622 C 108.04008,407.62014 104.92064,425.09359 112.34799,439.89619 C 118.05156,451.54897 126.31006,462.39564 128.18487,475.55178 C 129.49682,491.60594 121.71745,507.15694 124.53485,523.21324 C 126.01848,537.51447 120.65318,551.225 116.55388,564.65 C 113.94467,574.5594 116.1682,585.42081 121.86138,593.86009 C 125.10214,600.23756 124.94668,608.15403 121.42388,614.3851 C 116.2335,626.05757 109.24546,636.81913 103.88193,648.40961 C 96.013546,663.731 88.037366,679.7604 87.069321,697.26806 C 86.248687,712.06645 87.775981,727.34686 82.829557,741.60089 C 78.350618,758.37958 69.527939,773.686 59.075755,787.43269 C 55.071785,795.2912 60.790178,805.98122 69.519982,807.11218 C 77.255836,809.08249 86.405185,805.89527 90.387524,798.77491 C 91.041159,795.09006 87.309944,792.0507 83.87178,791.95751 C 79.187146,790.1481 78.460592,783.80383 80.748768,779.8502 C 84.473396,769.82129 88.670037,759.92972 91.168106,749.49543 C 96.621096,729.83002 99.035228,709.47249 100.39722,689.15907 C 102.90607,674.71727 111.37299,662.40831 117.98293,649.62062 C 126.53455,634.26099 134.36031,618.38062 139.67403,601.5917 C 145.65788,590.57048 154.74474,581.34874 159.14037,569.45046 C 163.82674,559.24498 168.02137,548.07574 177.00191,540.78346 C 184.46645,535.58376 194.58615,535.3985 201.28478,528.95223 C 205.39976,523.52491 204.435,516.22516 203.08365,510.0088 C 201.92296,502.86166 201.8162,494.70657 206.57522,488.75781 C 214.35755,477.27569 225.28071,468.06345 231.51938,455.51291 C 234.57468,449.5147 237.84016,443.31816 243.37886,439.22306 C 253.50086,430.80464 265.78091,425.65553 276.63439,418.33577 C 281.82919,414.79936 286.21081,410.05583 288.9591,404.37835 C 295.0427,393.74163 297.74921,381.67927 300.82191,369.94244 C 303.78698,362.15055 311.18743,357.3228 318.40686,353.89344 C 326.46026,349.69817 335.49595,345.6208 340.12754,337.33355 C 343.68951,330.89742 345.22432,322.70005 351.80158,318.44996 C 359.17,313.46584 368.93719,311.96321 374.59862,304.59272 C 388.39304,289.5491 399.13753,271.49719 415.73839,259.18891 C 420.57311,255.34994 425.52551,251.65583 430.20166,247.62141 C 430.13152,246.91518 429.29001,246.66146 428.69339,246.80695 z M 166.01238,551.62913 C 166.08909,551.79488 165.84663,551.55241 166.01238,551.62913 z"
       id="path3649"
       sodipodi:nodetypes="ccccccccccccccccccccccccccccccccccccccccccccccccccccc" />
    <path
       style="fill:url(#linearGradient3218);fill-opacity:1;fill-rule:evenodd;stroke:none;stroke-width:1px;stroke-linecap:butt;stroke-linejoin:miter;marker:none;marker-start:none;marker-mid:none;marker-end:none;stroke-miterlimit:4;stroke-dasharray:none;stroke-dashoffset:0;stroke-opacity:1;visibility:visible;display:inline;overflow:visible;enable-background:accumulate"
       d="M 713.84767,428.19198 C 696.52077,434.17564 678.099,437.97962 662.47586,448.0107 C 655.94504,453.33963 656.63495,464.90466 663.65231,469.51869 C 667.46406,474.95878 665.70426,481.90446 664.59924,487.91525 C 663.48455,495.73862 660.48457,504.22398 653.29267,508.41274 C 643.883,514.47033 633.45219,520.27346 627.77932,530.34799 C 622.45615,538.89555 617.56792,548.59117 608.43285,553.68508 C 597.69364,560.25974 585.43204,565.44651 577.71086,575.85201 C 569.17582,586.693 566.11803,600.45203 562.22192,613.37579 C 558.86937,620.3668 553.39109,627.44035 545.34621,628.95163 C 540.37628,629.49516 535.37174,628.23217 530.41139,629.00358 C 526.75066,626.52566 528.07966,621.39217 525.88857,618.01798 C 521.93928,609.08385 514.0624,602.79853 506.3695,597.179 C 503.44137,593.44189 505.74172,588.02201 509.11456,585.41446 C 517.99979,575.36681 520.35255,560.91792 517.67805,548.05404 C 515.73863,538.12295 513.30019,528.14264 508.87117,519.00151 C 506.62941,514.82478 504.64996,510.23987 500.90955,507.16521 C 500.24271,506.94062 500.59663,508.33524 501.1207,508.46232 C 504.80683,516.01312 504.90792,524.68112 507.7925,532.56579 C 510.97746,541.6479 513.9918,551.19978 512.79885,560.94674 C 511.62392,571.4514 505.89141,580.93885 498.46624,588.25493 C 494.05288,592.54492 494.7118,599.96322 498.1572,604.63463 C 499.87099,606.97517 502.34801,608.56331 504.24769,610.74798 C 509.04883,615.26725 514.11056,620.40468 515.02699,627.25398 C 517.86333,641.47282 511.49087,655.61508 513.66897,669.872 C 514.66882,679.25131 516.9084,688.56572 516.4146,698.05237 C 510.844,704.45644 510.21809,713.90415 512.85508,721.7021 C 513.7367,735.68953 508.95549,749.69219 511.97555,763.60044 C 512.86951,773.02904 511.58721,783.56031 504.78038,790.70329 C 500.55191,795.46521 495.40169,799.36815 491.58841,804.50635 C 493.75758,808.74801 499.41872,811.89512 503.92609,809.30266 C 509.04732,805.54384 512.70745,800.24452 516.98775,795.6377 C 522.88856,787.93509 525.32698,777.96728 524.59995,768.36949 C 524.78007,754.81989 523.23158,741.11146 525.88656,727.70503 C 525.96044,719.15448 523.39366,710.11135 527.11255,701.97375 C 529.71596,695.32473 536.38388,691.54816 542.7189,689.09322 C 550.31212,684.32103 553.41743,675.22398 554.96609,666.83109 C 557.4575,655.41132 557.6939,643.03607 564.16656,632.89493 C 568.98185,626.9849 574.98645,621.09723 575.82563,613.11643 C 578.64789,602.11069 581.36869,590.29009 589.56589,581.8851 C 600.53216,570.14649 617.66276,566.4953 627.93638,553.95187 C 633.9625,546.43201 637.15793,536.91032 644.19924,530.14764 C 649.19603,524.93174 656.12208,522.39335 661.72268,517.96794 C 666.61742,514.39905 670.72837,509.65202 672.88295,503.9375 C 678.46297,491.87504 680.41655,477.65949 676.05033,464.90337 C 674.68604,462.62249 671.958,460.94076 671.94782,458.02564 C 675.20254,453.5982 681.14683,453.28045 685.72503,450.93815 C 696.75426,446.79605 708.05746,443.44822 719.21713,439.68503 C 719.34775,435.47331 716.01809,432.3436 714.81297,428.5238 C 714.54103,428.31726 714.21059,428.06406 713.84767,428.19198 z M 516.56543,635.48916 C 516.4801,635.63733 516.4801,635.34099 516.56543,635.48916 z"
       id="rect2744" />
    <path
       style="fill:url(#linearGradient3215);fill-opacity:1;fill-rule:evenodd;stroke:url(#linearGradient3752);stroke-width:0.96529537px;stroke-linecap:butt;stroke-linejoin:miter;marker:none;marker-start:none;marker-mid:none;marker-end:none;stroke-miterlimit:4;stroke-dasharray:none;stroke-dashoffset:0;stroke-opacity:1;visibility:visible;display:inline;overflow:visible;enable-background:accumulate"
       d="M 49.58245,257.80633 C 44.624366,265.32037 45.954956,274.80253 47.030639,283.22821 C 50.390159,305.05319 62.134164,324.8005 77.21403,340.61058 C 89.015876,354.17439 93.578122,372.74227 93.050907,390.41378 C 92.917706,396.35577 91.661779,402.18868 91.079223,408.07586 C 90.230632,426.12357 98.477037,443.70041 110.95316,456.42451 C 126.2575,476.34002 143.20806,495.06591 156.8302,516.22153 C 162.86169,529.1302 160.35539,544.91532 152.26059,556.35871 C 137.35505,582.58845 122.21816,609.34186 115.345,638.99578 C 111.02214,657.54047 111.72784,676.69853 110.58403,695.5826 C 109.74854,714.31012 107.90783,733.17015 102.28676,751.13867 C 97.62633,767.10935 89.700704,782.20196 78.661973,794.69155 C 76.603654,798.97056 83.233592,803.60411 86.467197,800.00576 C 96.329764,793.50482 102.54737,783.06292 108.37811,773.08679 C 114.75141,760.47924 116.61201,746.2553 121.3295,733.06377 C 127.50179,722.38599 140.07845,716.95891 152.03684,716.60963 C 165.72861,714.76096 180.48215,716.55003 192.17468,724.34565 C 198.30779,730.46995 198.65065,739.85657 197.81562,747.96522 C 196.97176,763.98859 201.01494,781.17217 212.55558,792.88445 C 217.46764,797.95449 224.0223,801.79768 231.17864,802.26309 C 235.14486,801.12207 235.08646,794.66252 231.32947,793.27377 C 223.03905,785.97108 214.42259,777.5475 212.17439,766.27567 C 208.50843,749.37916 212.31388,731.44607 206.1687,714.99291 C 203.60949,706.67128 198.91795,698.148 201.15782,689.19882 C 203.6861,679.45754 213.46275,673.08254 223.19824,672.54602 C 231.64487,671.66181 240.72753,672.14496 248.2311,667.48653 C 259.60954,661.45001 268.70689,649.75208 269.12819,636.564 C 268.94405,629.69983 266.66209,623.05746 266.74374,616.17224 C 272.32373,609.5318 281.62899,608.40468 289.77527,608.2276 C 298.93084,608.05181 308.01392,605.37161 317.17857,606.4115 C 326.45039,609.38994 331.73617,619.78826 330.69456,629.1434 C 332.32573,643.41816 339.74055,656.81724 350.72444,666.03578 C 360.90739,675.64477 373.5942,682.43863 382.63952,693.27521 C 386.66447,701.50258 383.83883,711.88328 389.80052,719.3445 C 394.6234,725.60691 402.82229,729.67648 404.72065,737.88995 C 407.45987,751.32311 402.021,764.5247 401.6965,777.91748 C 401.09758,789.12014 402.83663,801.37231 410.53428,810.04972 C 412.9739,812.30151 417.01011,810.87629 418.05379,807.87387 C 419.59749,804.81147 417.90312,801.59944 416.89083,798.71248 C 412.43891,781.12435 415.76182,762.91597 418.29512,745.31066 C 419.45209,736.21728 417.96344,725.84363 410.77485,719.44978 C 406.05669,714.96741 399.8065,710.67763 399.01021,703.66929 C 398.05291,696.11506 401.69803,688.00808 397.83559,680.88871 C 391.30926,666.43731 378.47885,656.47731 367.70051,645.35352 C 362.60621,640.08432 357.74512,633.91316 356.93853,626.36817 C 355.67508,618.92363 357.13591,611.41028 357.20294,603.95556 C 356.44972,593.25069 351.00155,583.55131 344.60133,575.19979 C 337.91056,562.84607 338.48778,546.1343 348.03971,535.38908 C 355.04757,529.2832 364.85897,529.75995 373.37974,527.6023 C 383.79182,524.39779 393.27713,518.10422 404.3295,517.12033 C 423.10235,513.73991 442.40448,512.49267 460.49929,506.03996 C 474.15621,501.68895 487.81131,495.60334 497.94489,485.18412 C 503.26867,478.31263 504.54306,468.43694 512.20026,463.41425 C 520.60704,458.88351 530.37196,458.51635 539.43807,456.03662 C 551.89874,453.14227 563.88674,446.82502 572.19069,436.95087 C 574.39896,433.88644 576.80766,430.33654 576.72422,426.46153 C 574.95442,423.68429 571.09502,425.34979 569.31998,427.27867 C 561.28911,433.69543 552.78911,439.99947 542.76114,442.85036 C 529.15425,447.21077 514.56943,447.8199 501.19047,452.93071 C 493.71899,457.22443 490.7023,465.96807 489.05355,473.94119 C 485.79178,483.71398 476.08125,489.64126 466.49668,491.92615 C 444.56598,498.4383 421.56135,499.94927 399.43436,505.62673 C 383.63199,509.24479 368.1994,514.289 352.79428,519.26985 C 346.52639,520.45944 339.34037,515.13547 340.25702,508.42114 C 340.38206,500.00769 346.40262,492.25481 344.1182,483.71561 C 342.86413,479.98754 346.63695,477.32248 348.58269,474.69614 C 356.03571,465.85739 365.76057,459.39799 375.39981,453.21831 C 378.50108,450.13667 375.98687,443.82938 371.47829,444.16867 C 365.30647,444.02495 360.55741,448.65154 355.09445,450.81316 C 342.1106,457.3944 328.15079,462.31421 316.26647,470.87882 C 311.7993,474.17906 307.71548,478.28872 302.59623,480.51538 C 295.29077,481.00057 289.95488,472.14522 292.79314,465.67066 C 295.79666,454.70524 305.33114,447.52079 311.1574,438.17452 C 316.37943,430.44929 319.02657,420.37552 315.76265,411.34863 C 313.20989,402.80349 306.98619,396.135 301.30471,389.54689 C 292.44019,375.07326 298.44427,353.81242 313.6535,346.2124 C 329.19576,336.80346 348.62632,336.16205 363.40259,325.22716 C 376.18424,316.42669 386.3235,304.45115 395.97074,292.44607 C 399.96441,286.81161 402.60936,279.19811 399.59692,272.53081 C 396.04332,263.11607 385.51852,256.95409 375.56539,258.58453 C 367.2799,258.34113 357.7833,260.63463 353.04482,268.0386 C 348.05443,277.06309 349.42531,288.71509 342.33844,296.7198 C 333.23838,307.11667 321.24368,315.08213 314.3881,327.34407 C 305.73065,338.45511 292.47829,345.7853 286.38147,358.89086 C 281.02495,370.47832 283.70693,384.14705 289.65149,394.9629 C 294.16699,403.92684 301.72445,412.01692 302.09769,422.54002 C 302.16729,431.04636 296.3186,437.92487 291.07577,444.01744 C 285.68973,450.43334 280.6048,457.95215 280.57259,466.65695 C 280.27472,472.16222 280.49507,478.89273 275.6124,482.56933 C 270.05575,485.92707 263.446,483.2817 257.81678,481.53114 C 251.72578,479.46931 244.8158,477.49568 240.95226,471.95108 C 238.5157,468.1949 238.73026,463.18823 241.28408,459.55307 C 244.99014,452.90116 251.08448,447.13399 251.79504,439.17477 C 254.11191,427.10184 248.86572,414.43853 239.84043,406.377 C 233.58936,399.31804 226.50399,391.55711 226.11154,381.6054 C 225.58667,367.91953 231.12212,354.79357 230.4389,341.09403 C 231.21519,329.77804 233.32701,317.62634 241.39016,309.05433 C 248.61669,300.22756 258.11179,292.8146 262.36975,281.90855 C 263.33366,275.12013 257.09231,269.53102 250.8767,268.36425 C 240.06009,264.01403 226.58768,264.02489 217.12153,271.50146 C 207.8593,279.48829 206.12892,293.78044 211.05827,304.59299 C 217.35815,324.42386 216.50565,345.53972 215.0447,366.02455 C 214.65201,376.07663 213.51859,386.38966 216.02671,396.25267 C 220.35231,407.36527 231.78762,413.51571 236.88282,424.12919 C 240.42256,432.17709 239.09576,442.00196 233.64163,448.88461 C 229.30827,455.57331 223.85103,462.74578 224.78849,471.19433 C 225.60466,480.46876 232.98975,487.63535 240.94343,491.58549 C 246.65642,495.28816 250.52527,502.29769 249.09754,509.17321 C 248.13607,521.51725 243.65058,533.68937 245.69823,546.17107 C 246.47734,553.78164 249.70563,560.85366 251.11594,568.31384 C 251.91803,575.26171 249.61878,582.32582 245.27185,587.74695 C 241.13011,594.06682 237.24639,601.78141 239.50432,609.50567 C 241.51006,618.13999 248.79244,623.84454 253.95358,630.56117 C 258.32868,637.72162 256.61508,647.97018 249.79074,653.00429 C 243.1067,658.52637 234.05556,658.98463 225.85802,660.27834 C 215.46347,661.57691 203.86598,660.12731 195.89127,652.73645 C 184.98805,643.23961 179.72423,629.39765 173.57746,616.71481 C 167.68954,604.79595 160.67571,592.98531 158.63066,579.65654 C 158.60003,565.89557 165.7546,553.5849 172.62745,542.14615 C 176.74258,534.98302 180.2205,526.12521 177.00144,517.95344 C 171.94736,505.26691 157.661,499.61776 152.0806,487.26178 C 148.13137,479.73129 147.71652,470.50302 151.13208,462.6973 C 155.74101,450.39356 164.55104,439.52706 165.80185,426.0884 C 169.39025,404.9689 165.04342,382.94046 171.69232,362.26939 C 174.87742,352.5476 178.67534,342.45233 177.18681,332.04335 C 176.50961,317.8209 176.41142,303.39674 179.67065,289.44929 C 180.79327,283.50139 182.7697,277.67125 183.96356,271.7947 C 182.86783,267.33271 175.34232,267.33667 174.36557,271.89456 C 165.18807,286.87084 163.29423,304.95291 163.60042,322.16467 C 163.324,332.15077 163.73831,342.91914 158.26868,351.74164 C 151.5553,360.04103 139.88035,362.32512 129.77755,360.62183 C 118.90545,360.08623 107.12086,357.21342 99.784133,348.57351 C 89.243261,336.07056 82.428034,320.61227 70.166495,309.53533 C 61.421017,299.32659 58.215528,285.71798 57.125861,272.62303 C 56.334983,267.17574 54.983748,260.7522 49.884104,257.746 L 49.733277,257.746 L 49.58245,257.80633 z"
       id="rect2738" />
    <path
       style="fill:url(#linearGradient3212);fill-opacity:1;fill-rule:evenodd;stroke:url(#linearGradient3738);stroke-width:1.73753166;stroke-linecap:butt;stroke-linejoin:miter;marker:none;marker-start:none;marker-mid:none;marker-end:none;stroke-miterlimit:4;stroke-dasharray:none;stroke-dashoffset:0;stroke-opacity:1;visibility:visible;display:inline;overflow:visible;enable-background:accumulate"
       d="M 497.8166,245.1267 C 487.44092,246.3825 480.80557,259.49912 485.96156,268.59545 C 493.5504,288.53668 502.92861,308.19355 517.00184,324.43175 C 519.81239,331.54889 513.95953,339.11819 517.27333,346.1509 C 520.74301,354.89883 529.48656,360.01768 538.00265,362.92028 C 546.56138,366.57225 554.99994,371.44742 560.62113,379.06144 C 559.38005,390.63756 556.63939,402.03119 555.91531,413.6608 C 555.54356,429.88663 560.3939,445.58122 565.37935,460.83398 C 567.99257,469.32529 570.86993,477.96607 570.97841,486.93166 C 570.82658,501.34926 564.69596,514.90605 557.16458,526.91813 C 552.42522,535.31982 549.24089,545.64634 552.53571,555.12881 C 557.5696,568.76845 570.03574,577.97638 575.26864,591.51805 C 583.21772,607.97276 589.7581,625.54401 590.6713,643.9672 C 591.52092,654.20166 592.08671,664.50471 591.76934,674.76384 C 590.4744,682.16726 586.51429,689.00863 586.60685,696.66792 C 585.31884,705.98594 584.04386,715.84871 587.58523,724.85098 C 592.63243,741.67387 592.43957,759.82078 588.11489,776.77622 C 587.052,782.4736 585.6939,788.72014 588.16221,794.22894 C 590.76655,797.58522 596.61965,795.78543 597.604,791.84587 C 598.80742,788.18591 598.01421,784.25224 598.30646,780.47585 C 598.20514,769.63004 596.56525,758.80698 597.3361,747.95672 C 596.21721,735.29725 593.47717,722.71537 594.17708,709.94759 C 593.66229,704.58635 594.28279,698.98689 596.98803,694.24618 C 599.56556,687.89425 599.92157,680.94111 599.94652,674.17657 C 600.98676,666.98689 601.33754,659.69922 600.68959,652.45733 C 600.40737,643.60696 601.32584,634.66875 599.5694,625.91879 C 598.29573,618.45522 596.72005,611.01069 594.53778,603.762 C 589.86053,590.78576 582.34182,578.37658 581.91795,564.24732 C 581.47621,555.31067 585.62998,545.86151 593.62627,541.38894 C 601.42237,535.88078 607.86461,527.62688 609.04593,517.92819 C 611.61538,505.65097 615.22,493.36453 622.05422,482.7237 C 629.96931,468.03393 639.54678,453.68268 642.67433,437.01161 C 644.17346,423.74269 642.90014,410.28219 645.1625,397.07997 C 646.72452,383.32172 648.7969,368.91573 644.20571,355.49644 C 642.43173,350.63526 639.89272,346.0456 638.65922,340.9926 C 647.82995,331.51644 662.1658,329.59398 671.14745,319.87676 C 675.08421,312.55063 673.33915,303.20562 668.34206,296.83034 C 667.50675,292.28524 671.79428,288.85498 675.57815,287.37145 C 686.65999,281.56709 699.41135,279.62597 710.09108,272.96944 C 713.13429,268.36878 707.19793,262.03127 702.31694,264.17022 C 695.97889,265.8086 690.08791,268.8098 683.77148,270.5179 C 675.0388,273.66286 665.76185,277.42398 660.06128,285.12554 C 656.07507,291.77559 656.95611,300.2607 660.16239,307.02067 C 660.97839,312.0972 656.43187,316.26092 651.9004,317.50041 C 644.10771,321.32863 636.62258,325.83796 629.58762,330.92235 C 623.19829,335.72007 616.54826,341.53625 608.16379,341.90176 C 602.57335,342.28066 597.44598,339.68367 592.20438,338.18721 C 589.04298,333.75238 590.80178,328.15207 591.66121,323.2874 C 592.90768,310.94397 601.18517,300.57855 602.24949,288.20301 C 601.68145,281.73175 596.74134,276.96883 593.99323,271.37639 C 591.50057,267.00023 590.29839,262.04134 589.64032,257.1024 C 588.57105,253.38524 583.99637,250.07439 580.28902,252.36642 C 577.06105,254.66091 577.6723,259.17174 577.87744,262.6186 C 578.81493,271.80386 584.00829,279.75418 589.218,287.08689 C 591.56789,291.89556 588.61553,297.02058 587.04389,301.57779 C 583.89927,310.61566 579.26453,319.28131 577.99644,328.86608 C 577.63947,333.49972 581.0489,337.25941 583.51488,340.83084 C 586.28479,344.59394 589.67161,348.79755 589.23253,353.74865 C 588.68316,356.56749 585.49499,357.29866 584.2407,359.66503 C 582.39679,362.09918 581.40767,365.14423 579.44439,367.44773 C 575.96661,369.53431 572.10111,366.97648 568.69699,366.00353 C 558.19047,362.37444 548.59149,356.55503 539.81648,349.80164 C 537.14528,347.86645 533.90201,346.79685 531.33044,344.76329 C 528.40615,341.44445 529.24745,336.5566 531.02879,332.90825 C 532.93879,325.96407 529.74947,318.56572 525.08619,313.45152 C 521.3816,309.66086 517.39455,305.94537 515.27838,300.97026 C 509.66018,289.89909 508.8318,277.07448 510.16972,264.91634 C 510.37876,258.81888 510.13518,252.14608 506.6023,246.95785 C 504.15343,244.9948 500.79357,245.04426 497.8166,245.1267 z M 589.36883,258.88216 C 589.44554,259.04791 589.20308,258.80545 589.36883,258.88216 z"
       id="rect2742"
       sodipodi:nodetypes="cssscsssssscccssssssssssssssssssssccsssssssssssssssssssscccsssssscssccssssscsccsssssscsccsssssscscccsssssssssssscccssc" />
    <path
       style="fill:url(#linearGradient3209);fill-opacity:1;fill-rule:evenodd;stroke:url(#linearGradient3730);stroke-width:2.41323853;stroke-linecap:butt;stroke-linejoin:miter;marker:none;marker-start:none;marker-mid:none;marker-end:none;stroke-miterlimit:4;stroke-dasharray:none;stroke-dashoffset:0;stroke-opacity:1;visibility:visible;display:inline;overflow:visible;enable-background:accumulate"
       d="M 498.71321,255.14869 C 489.03743,259.62682 483.4518,270.00101 482.00153,280.2162 C 478.54737,296.99147 469.48422,312.5855 456.39703,323.67091 C 447.9536,331.72077 440.13136,340.46283 431.02187,347.78688 C 422.71573,350.03003 416.02037,355.79662 408.1279,358.95762 C 400.9572,361.46049 392.94628,359.22116 387.03724,354.76043 C 382.20275,351.23325 377.74243,347.18968 372.52614,344.20463 C 367.42839,340.88541 363.15811,336.44461 359.88543,331.33071 C 353.72689,322.31491 348.40031,312.36223 339.59785,305.56574 C 332.13186,298.7974 323.51844,292.21737 320.01124,282.38719 C 318.00663,275.24879 319.97831,267.6583 317.96165,260.51815 C 315.2604,256.34225 307.77945,258.83484 307.76572,263.68552 C 304.2892,280.62192 310.65743,299.11489 323.82417,310.31988 C 327.85103,313.79184 332.36261,316.70316 335.86723,320.75535 C 348.1522,333.93005 355.83148,351.01595 358.97658,368.65513 C 360.62257,379.6381 357.40205,390.58585 353.23438,400.64518 C 350.31175,408.05061 346.84041,415.63892 347.3688,423.80146 C 347.55196,430.9969 350.15072,437.90352 354.00997,443.91318 C 361.9411,457.77419 374.53434,468.23432 387.92542,476.57819 C 392.28415,479.6699 395.51941,484.55168 395.81491,489.97464 C 397.11181,496.886 398.65483,504.0086 402.82005,509.82917 C 406.52449,516.57353 408.02652,524.59659 406.35988,532.15558 C 404.75491,551.85617 403.34617,572.06606 408.45831,591.40066 C 412.64296,609.48417 416.89806,627.97076 415.26446,646.66082 C 414.3424,658.80186 412.69973,670.87588 411.80309,683.0193 C 408.28851,719.96377 404.80952,756.91824 402.06831,793.9274 C 401.48528,798.36336 400.83425,802.92637 400.9911,807.3559 C 403.13718,811.29577 410.2484,809.48307 410.22603,804.95563 C 417.97636,777.36806 417.20599,748.4687 420.09718,720.18709 C 423.07513,687.2941 428.75301,654.36099 426.25573,621.23696 C 424.18979,595.60925 417.02855,570.34674 418.66753,544.47147 C 419.42702,532.31662 419.62776,519.35297 426.22556,508.65939 C 431.48339,498.84973 431.83416,487.02874 438.08502,477.693 C 443.32838,470.49321 450.32006,464.19544 452.89692,455.39329 C 457.41339,444.20003 461.75432,432.43401 461.01575,420.15582 C 460.43859,403.03651 453.44752,386.84145 444.31491,372.60041 C 441.36789,367.94486 438.31576,362.43111 439.92069,356.74603 C 441.4148,350.57822 446.28666,345.85757 451.71161,342.90936 C 463.91068,334.75978 475.84941,325.17664 482.82726,311.97849 C 492.72238,295.63144 497.83839,276.94312 501.39794,258.31607 C 501.40368,256.8953 500.58092,254.53543 498.71321,255.14869 z"
       id="rect2736" />
    <path
       style="opacity:1;fill:url(#linearGradient3367);fill-opacity:1;fill-rule:nonzero;stroke:none;stroke-width:2.70000005;stroke-linecap:butt;stroke-linejoin:round;marker:none;marker-start:none;marker-mid:none;marker-end:none;stroke-miterlimit:4;stroke-dasharray:none;stroke-dashoffset:0;stroke-opacity:1;visibility:visible;display:inline;overflow:visible;enable-background:accumulate"
       d="M 130.24313,363.55407 C 116.62093,362.4089 107.62523,366.10688 97.860668,381.61326 C 95.73628,386.51018 93.521589,400.6185 93.179385,406.14021 C 92.13207,414.1841 92.943979,419.00376 94.392657,426.79261 C 95.112817,432.21393 98.221417,435.66437 101.26429,440.07547 C 103.28592,443.14354 107.71265,444.80794 109.50339,439.89327 C 111.94628,435.61179 123.22133,426.38172 129.08372,427.0355 C 137.08437,426.80147 144.77895,431.25838 152.73141,429.16727 C 159.54209,424.83708 158.97247,422.95294 161.70128,416.00847 C 165.42547,401.7408 163.58713,394.91261 164.55762,384.28724 C 165.21696,382.44249 160.52508,365.06697 130.24313,363.55407 z"
       id="path2453"
       sodipodi:nodetypes="ccccccccccc" />
    <path
       style="opacity:1;fill:#ffffff;fill-opacity:0.60638296;fill-rule:nonzero;stroke:none;stroke-width:2;stroke-linecap:butt;stroke-linejoin:round;marker:none;marker-start:none;marker-mid:none;marker-end:none;stroke-miterlimit:4;stroke-dasharray:none;stroke-dashoffset:0;stroke-opacity:0.38829789;visibility:visible;display:inline;overflow:visible;enable-background:accumulate"
       d="M 153.65683,375.05359 C 138.4169,368.67378 118.07361,354.86929 102.67478,381.03958 C 97.438215,396.23925 109.686,401.85239 117.94275,381.82841 C 126.02943,365.366 141.76271,381.21461 153.65683,375.05359 z"
       id="path2444"
       sodipodi:nodetypes="cccc" />
    <path
       style="opacity:1;fill:url(#linearGradient3347);fill-opacity:1;fill-rule:nonzero;stroke:none;stroke-width:2.70000005;stroke-linecap:butt;stroke-linejoin:round;marker:none;marker-start:none;marker-mid:none;marker-end:none;stroke-miterlimit:4;stroke-dasharray:none;stroke-dashoffset:0;stroke-opacity:1;visibility:visible;display:inline;overflow:visible;enable-background:accumulate"
       d="M 390.41553,366.27795 C 372.12687,371.17987 359.18422,390.70688 353.98592,408.05954 C 351.7464,419.57215 351.51925,432.5231 357.89297,442.80648 C 365.70048,452.76278 380.87788,462.07974 386.64863,456.02134 C 399.28595,449.17377 414.26063,411.46216 440.94206,422.73688 C 445.66705,418.31135 452.55246,414.13583 452.30273,406.78116 C 452.36352,395.30403 443.33042,386.97406 437.77749,377.79526 C 427.35054,359.0631 420.99349,362.22341 390.41553,366.27795 z"
       id="path2445"
       sodipodi:nodetypes="cccccccc" />
    <path
       style="opacity:1;fill:#ffffff;fill-opacity:0.63829794;fill-rule:nonzero;stroke:none;stroke-width:2;stroke-linecap:butt;stroke-linejoin:round;marker:none;marker-start:none;marker-mid:none;marker-end:none;stroke-miterlimit:4;stroke-dasharray:none;stroke-dashoffset:0;stroke-opacity:0.38829789;visibility:visible;display:inline;overflow:visible;enable-background:accumulate"
       d="M 408.30152,367.86102 C 401.99364,369.09987 395.83851,371.10379 389.86575,373.45131 C 382.66984,376.60286 375.53383,380.89645 371.13765,387.58924 C 370.54552,389.07967 370.7872,390.78315 371.37897,392.23473 C 375.20689,392.57503 379.3604,395.42113 383.05301,393.04919 C 388.11203,389.19823 393.37496,385.51503 399.37325,383.27601 C 405.13998,380.90037 411.31657,379.70346 417.13429,377.52306 C 419.51956,376.40081 421.55349,372.9273 419.19325,370.78054 C 416.46762,367.83557 412.04427,367.59914 408.30152,367.86102 z M 362.23883,409.1274 C 359.39567,410.20422 358.03314,413.53392 358.55864,416.48777 C 358.74174,420.66912 359.94615,424.72406 361.42436,428.6143 C 363.58661,429.27514 364.30034,426.42512 364.1834,424.81714 C 364.64718,420.82917 367.25555,416.61083 365.52687,412.68692 C 364.78093,411.27321 363.34472,410.03455 362.23883,409.1274 z"
       id="path2450" />
    <path
       style="opacity:1;fill:url(#linearGradient3355);fill-opacity:1;fill-rule:nonzero;stroke:none;stroke-width:2.70000005;stroke-linecap:butt;stroke-linejoin:round;marker:none;marker-start:none;marker-mid:none;marker-end:none;stroke-miterlimit:4;stroke-dasharray:none;stroke-dashoffset:0;stroke-opacity:1;visibility:visible;display:inline;overflow:visible;enable-background:accumulate"
       d="M 633.75482,341.13739 C 633.09859,339.49683 622.76162,342.18279 622.06952,342.59805 C 618.61135,344.67295 614.82828,346.13724 611.26063,347.5643 C 607.16362,349.20309 603.39677,349.58551 600.15959,352.82268 C 597.07482,355.90746 593.7706,355.29129 591.39562,359.2496 C 588.94925,363.32687 584.88363,366.66237 581.17099,368.88997 C 577.44951,371.12285 573.84896,374.10115 570.36209,376.19327 C 567.95131,377.63974 565.55583,384.41119 564.51944,387.00217 C 563.01027,390.7751 563.04899,394.47604 561.59812,398.1032 C 560.20362,401.58946 562.14009,406.90947 559.26106,409.7885 C 558.12964,410.91991 559.26106,419.55736 559.26106,421.47379 C 559.26106,425.07676 559.26106,428.67972 559.26106,432.28269 C 559.26106,437.39784 570.42021,461.97471 572.12107,466.22688 C 578.12295,561.71308 627.41411,465.70007 636.83487,417.65014 C 638.44023,413.63676 638.56917,377.30334 640.18173,373.27195 C 641.49939,369.97778 641.64239,366.47285 641.64239,362.46305 C 641.64239,358.30771 640.46801,354.99907 639.0132,351.36202 C 637.32535,347.1424 633.75482,346.05568 633.75482,341.13739 z"
       id="path2447"
       sodipodi:nodetypes="csssssssssssccsssc" />
    <path
       style="opacity:1;fill:#ffffff;fill-opacity:0.60106387;fill-rule:nonzero;stroke:none;stroke-width:2;stroke-linecap:butt;stroke-linejoin:round;marker:none;marker-start:none;marker-mid:none;marker-end:none;stroke-miterlimit:4;stroke-dasharray:none;stroke-dashoffset:0;stroke-opacity:0.38829789;visibility:visible;display:inline;overflow:visible;enable-background:accumulate"
       d="M 616.05119,355.7345 C 608.53693,357.47018 601.31012,360.44835 594.50235,364.05662 C 588.59005,367.38296 582.88277,371.35174 578.45219,376.53008 C 576.98336,378.67205 577.47345,381.50919 578.19351,383.78839 C 580.96017,383.29645 583.73352,383.86939 586.36526,384.64267 C 590.94931,385.44963 595.04187,382.41739 598.29201,379.57872 C 608.40917,372.12524 619.76316,366.62707 630.37979,359.95766 C 627.4348,355.22427 620.84276,355.92194 616.05119,355.7345 z M 571.70793,398.26782 C 568.62044,399.95806 567.85961,403.74457 567.86949,407.00489 C 567.57711,411.15907 567.11791,416.07863 570.16949,419.38366 C 571.82353,421.09409 573.85171,418.85971 574.39266,417.24191 C 575.20584,414.39308 575.8347,411.46995 576.34826,408.55574 C 576.80742,405.37248 575.66524,402.18683 573.29004,400.09178 C 572.6671,399.63854 572.29528,398.3804 571.70793,398.26782 z"
       id="path2454" />
    <path
       style="opacity:1;fill:#ffcd08;fill-opacity:0.19680852;fill-rule:nonzero;stroke:none;stroke-width:2.70000005;stroke-linecap:butt;stroke-linejoin:round;marker:none;marker-start:none;marker-mid:none;marker-end:none;stroke-miterlimit:4;stroke-dasharray:none;stroke-dashoffset:0;stroke-opacity:1;visibility:visible;display:inline;overflow:visible;filter:url(#filter3688);enable-background:accumulate"
       d="M 554.90925,632.18124 C 538.49681,611.18794 525.56945,663.34636 548.29207,645.44721 L 551.55381,640.00604 L 554.90925,632.18124 L 554.90925,632.18124 z"
       id="path2458"
       transform="matrix(0.9652954,0,0,0.9652954,1.5803493,28.167544)" />
    <path
       style="opacity:1;fill:url(#linearGradient3389);fill-opacity:1;fill-rule:nonzero;stroke:none;stroke-width:2.70000005;stroke-linecap:butt;stroke-linejoin:round;marker:none;marker-start:none;marker-mid:none;marker-end:none;stroke-miterlimit:4;stroke-dasharray:none;stroke-dashoffset:0;stroke-opacity:1;visibility:visible;display:inline;overflow:visible;enable-background:accumulate"
       d="M 163.72534,687.48821 C 177.6908,681.18138 194.12119,668.60235 186.7483,656.34378 C 179.37541,644.0852 165.3862,621.17843 161.42653,606.93969 C 159.22164,597.95416 154.85443,588.50299 147.37818,586.27655 C 142.1725,583.4996 138.36072,589.57984 136.28549,595.00461 C 128.08096,610.91831 121.35072,629.17617 117.13951,647.48069 C 116.63307,663.79687 112.18295,678.85654 114.15488,695.18502 C 114.94732,701.22181 120.5014,708.6015 125.15078,704.41175 C 130.63052,682.6391 149.75989,693.79505 163.72534,687.48821 z"
       id="path2449"
       sodipodi:nodetypes="ccccccccc" />
    <path
       style="opacity:1;fill:#ffffff;fill-opacity:0.29787233;fill-rule:nonzero;stroke:none;stroke-width:2;stroke-linecap:butt;stroke-linejoin:round;marker:none;marker-start:none;marker-mid:none;marker-end:none;stroke-miterlimit:4;stroke-dasharray:none;stroke-dashoffset:0;stroke-opacity:0.38829789;visibility:visible;display:inline;overflow:visible;enable-background:accumulate"
       d="M 144.29324,599.13976 C 137.85026,601.12242 134.93477,607.9392 132.16984,613.4833 C 128.741,620.73377 124.86676,627.9081 122.69475,635.63999 C 122.83256,638.11438 126.1228,636.00475 125.98279,634.28254 C 127.91437,629.65449 132.84592,627.2602 136.48978,624.09199 C 140.70488,619.36404 147.42477,618.67316 153.37305,619.16964 C 158.09318,617.67931 158.3317,611.30473 156.28587,607.55963 C 154.16706,602.96109 149.68857,598.7132 144.29324,599.13976 z"
       id="path2460"
       sodipodi:nodetypes="cccc" />
    <path
       style="opacity:1;fill:url(#linearGradient3406);fill-opacity:1;fill-rule:nonzero;stroke:none;stroke-width:2.70000005;stroke-linecap:butt;stroke-linejoin:round;marker:none;marker-start:none;marker-mid:none;marker-end:none;stroke-miterlimit:4;stroke-dasharray:none;stroke-dashoffset:0;stroke-opacity:1;visibility:visible;display:inline;overflow:visible;enable-background:accumulate"
       d="M 329.07989,501.07338 C 329.26639,487.12012 305.48612,482.37139 287.70519,483.37494 C 279.88896,483.87899 261.49938,489.58226 256.07885,497.26706 C 248.77467,505.33698 246.29312,544.55748 251.7705,552.16485 C 254.33308,569.90268 264.87846,569.30425 268.2111,552.41752 C 268.0816,548.42617 267.83712,544.36405 269.4005,540.55996 C 271.87748,532.54247 280.01117,528.16471 287.8191,526.87553 C 298.73132,524.85915 309.99673,525.25501 320.75147,522.27137 C 326.58441,520.73375 333.60173,518.77005 336.11228,512.63218 C 338.14931,505.77688 329.09683,508.09853 329.07989,501.07338 z"
       id="path2451"
       sodipodi:nodetypes="cccccccccc" />
    <path
       style="opacity:1;fill:#ffffff;fill-opacity:0.33510634;fill-rule:nonzero;stroke:none;stroke-width:2.17627382;stroke-linecap:butt;stroke-linejoin:round;marker:none;marker-start:none;marker-mid:none;marker-end:none;stroke-miterlimit:4;stroke-dasharray:none;stroke-dashoffset:0;stroke-opacity:0.36702127;visibility:visible;display:inline;overflow:visible;enable-background:accumulate"
       d="M 284.60715,491.28702 C 275.188,492.04549 266.33415,496.93033 259.96196,503.77553 C 258.46498,505.84188 256.68903,509.43076 259.0567,511.44378 C 262.46727,512.68023 265.07743,509.2013 267.9213,507.92288 C 274.04222,503.87811 281.22229,502.05013 288.31751,500.60816 C 291.27683,499.92079 295.11577,497.38215 293.80762,493.88126 C 292.09808,490.3973 287.68524,491.58745 284.60715,491.28702 z"
       id="path2446"
       sodipodi:nodetypes="ccccccc" />
    <rect
       inkscape:export-ydpi="106.04"
       inkscape:export-xdpi="106.04"
       inkscape:export-filename="C:\Users\Jesper\Pictures\bg5.png"
       ry="0"
       y="288.32932"
       x="45.342155"
       height="480"
       width="640"
       id="rect3037"
       style="opacity:1;fill:#000000;fill-opacity:0.22872338;stroke:none;stroke-width:18.89999962;stroke-linecap:round;stroke-linejoin:round;stroke-miterlimit:4;stroke-dasharray:none;stroke-opacity:1" />
  </g>
</svg>
