<?xml version="1.0" encoding="UTF-8" standalone="no"?>
<!-- Created with Inkscape (http://www.inkscape.org/) -->
<svg
   xmlns:dc="http://purl.org/dc/elements/1.1/"
   xmlns:cc="http://creativecommons.org/ns#"
   xmlns:rdf="http://www.w3.org/1999/02/22-rdf-syntax-ns#"
   xmlns:svg="http://www.w3.org/2000/svg"
   xmlns="http://www.w3.org/2000/svg"
   xmlns:xlink="http://www.w3.org/1999/xlink"
   xmlns:sodipodi="http://sodipodi.sourceforge.net/DTD/sodipodi-0.dtd"
   xmlns:inkscape="http://www.inkscape.org/namespaces/inkscape"
   width="640.00043"
   height="480"
   id="svg3292"
   sodipodi:version="0.32"
   inkscape:version="0.46"
   sodipodi:docname="bg8.svg"
   inkscape:output_extension="org.inkscape.output.svg.inkscape"
   version="1.0"
   inkscape:export-filename="C:\Users\Jesper\Documents\Visual Studio 2008\Projects\L2Stack\Debug\data\bg8.png"
   inkscape:export-xdpi="90"
   inkscape:export-ydpi="90">
  <defs
     id="defs3294">
    <linearGradient
       id="linearGradient3904">
      <stop
         style="stop-color:#c74215;stop-opacity:1;"
         offset="0"
         id="stop3906" />
      <stop
         id="stop4274"
         offset="0.69127518"
         style="stop-color:#79280c;stop-opacity:1;" />
      <stop
         style="stop-color:#2c0e04;stop-opacity:1;"
         offset="1"
         id="stop3908" />
    </linearGradient>
    <linearGradient
       id="linearGradient3896">
      <stop
         id="stop4234"
         offset="0"
         style="stop-color:#eee0b5;stop-opacity:1;" />
      <stop
         style="stop-color:#712a04;stop-opacity:1;"
         offset="0.82550335"
         id="stop4236" />
      <stop
         style="stop-color:#000000;stop-opacity:1;"
         offset="1"
         id="stop3900" />
    </linearGradient>
    <inkscape:perspective
       sodipodi:type="inkscape:persp3d"
       inkscape:vp_x="0 : 526.18109 : 1"
       inkscape:vp_y="0 : 1000 : 0"
       inkscape:vp_z="744.09448 : 526.18109 : 1"
       inkscape:persp3d-origin="372.04724 : 350.78739 : 1"
       id="perspective3300" />
    <inkscape:perspective
       id="perspective3309"
       inkscape:persp3d-origin="372.04724 : 350.78739 : 1"
       inkscape:vp_z="744.09448 : 526.18109 : 1"
       inkscape:vp_y="0 : 1000 : 0"
       inkscape:vp_x="0 : 526.18109 : 1"
       sodipodi:type="inkscape:persp3d" />
    <radialGradient
       inkscape:collect="always"
       xlink:href="#linearGradient3896"
       id="radialGradient3902"
       cx="376.32935"
       cy="510.64792"
       fx="376.32935"
       fy="510.64792"
       r="220.2588"
       gradientTransform="matrix(0.8826452,0,0,1.0706986,-5.0674317,-8.4162245)"
       gradientUnits="userSpaceOnUse" />
    <radialGradient
       inkscape:collect="always"
       xlink:href="#linearGradient3904"
       id="radialGradient3910"
       cx="367.5"
       cy="506.36835"
       fx="367.5"
       fy="506.36835"
       r="362.54681"
       gradientTransform="matrix(0.8826452,0,0,0.6619834,5.6318434,201.06021)"
       gradientUnits="userSpaceOnUse" />
    <inkscape:perspective
       id="perspective7420"
       inkscape:persp3d-origin="372.04724 : 350.78739 : 1"
       inkscape:vp_z="744.09448 : 526.18109 : 1"
       inkscape:vp_y="0 : 1000 : 0"
       inkscape:vp_x="0 : 526.18109 : 1"
       sodipodi:type="inkscape:persp3d" />
    <inkscape:perspective
       id="perspective7433"
       inkscape:persp3d-origin="372.04724 : 350.78739 : 1"
       inkscape:vp_z="744.09448 : 526.18109 : 1"
       inkscape:vp_y="0 : 1000 : 0"
       inkscape:vp_x="0 : 526.18109 : 1"
       sodipodi:type="inkscape:persp3d" />
  </defs>
  <sodipodi:namedview
     id="base"
     pagecolor="#ffffff"
     bordercolor="#666666"
     borderopacity="1.0"
     gridtolerance="10000"
     guidetolerance="10"
     objecttolerance="10"
     inkscape:pageopacity="0.0"
     inkscape:pageshadow="2"
     inkscape:zoom="0.9899495"
     inkscape:cx="311.65541"
     inkscape:cy="574.9621"
     inkscape:document-units="px"
     inkscape:current-layer="layer1"
     showgrid="false"
     inkscape:window-width="1680"
     inkscape:window-height="1000"
     inkscape:window-x="0"
     inkscape:window-y="14" />
  <metadata
     id="metadata3297">
    <rdf:RDF>
      <cc:Work
         rdf:about="">
        <dc:format>image/svg+xml</dc:format>
        <dc:type
           rdf:resource="http://purl.org/dc/dcmitype/StillImage" />
      </cc:Work>
    </rdf:RDF>
  </metadata>
  <g
     inkscape:label="Layer 1"
     inkscape:groupmode="layer"
     id="layer1"
     transform="translate(-10.003746,-296.2677)">
    <rect
       style="opacity:1;fill:url(#radialGradient3910);fill-opacity:1;fill-rule:evenodd;stroke:none;stroke-width:0.90636706px;stroke-linecap:butt;stroke-linejoin:miter;marker:none;marker-start:none;marker-mid:none;marker-end:none;stroke-miterlimit:4;stroke-dasharray:none;stroke-dashoffset:0;stroke-opacity:1;visibility:visible;display:inline;overflow:visible;enable-background:accumulate"
       id="rect3894"
       width="640.00043"
       height="480"
       x="10.003746"
       y="296.2677"
       ry="0"
       inkscape:export-filename="C:\Users\Jesper\Pictures\bg8.png"
       inkscape:export-xdpi="99.297516"
       inkscape:export-ydpi="99.297516" />
    <path
       style="opacity:1;fill:url(#radialGradient3902);fill-opacity:1;fill-rule:nonzero;stroke:#000000;stroke-width:2.38278079;stroke-linecap:butt;stroke-linejoin:round;marker:none;marker-start:none;marker-mid:none;marker-end:none;stroke-miterlimit:4;stroke-dasharray:none;stroke-dashoffset:0;stroke-opacity:1;visibility:visible;display:inline;overflow:visible;enable-background:accumulate"
       d="M 139.93857,622.41172 C 125.85143,551.87665 138.04718,473.03777 158.85239,432.70052 C 179.6576,392.36324 226.94215,331.22707 259.72612,314.20979 C 277.27621,305.10002 307.77857,300.75067 322.79588,314.3429 C 333.86912,300.30554 355.16726,302.92829 366.90446,306.64655 C 385.07435,312.40264 452.79861,348.50595 494.88801,445.30591 C 522.526,508.86955 528.38816,560.47758 508.75815,648.88305 C 492.63536,721.49346 415.44995,763.59215 401.57981,766.7435 C 387.70967,769.89485 356.18662,780.60944 335.38143,763.59215 C 314.57621,746.57487 318.35898,740.90244 318.35898,745.94459 C 318.35898,750.98676 313.3153,767.37377 297.55376,768.00404 C 281.79225,768.63431 250.26921,775.56728 221.89848,749.72622 C 193.52774,723.88515 152.14291,683.51955 139.93857,622.41172 z"
       id="path3826"
       sodipodi:nodetypes="csscsssssssss" />
    <path
       style="fill:#000000"
       d="M 13.117358,695.36035 C 13.628981,651.84215 14.282734,615.20206 14.570136,613.93796 C 14.857499,612.67384 16.155585,612.04733 17.454767,612.54573 C 18.926839,613.11045 20.302063,620.85231 21.104395,633.09169 C 21.812506,643.89358 22.936108,654.14933 23.60129,655.88222 C 25.202071,660.05259 27.858755,659.88753 28.956074,655.54953 C 29.545154,653.22058 30.353518,654.29806 31.395167,658.80064 C 32.271848,662.59014 34.456431,665.9282 36.390769,666.43387 C 40.046788,667.38967 44.275959,674.8991 44.326574,680.52494 C 44.343339,682.38933 45.256378,685.25836 46.35555,686.90055 C 48.088523,689.48965 48.738592,689.38293 51.24815,686.09737 C 54.63431,681.66411 54.733648,681.87152 58.30614,700.83434 C 59.646778,707.95052 62.026951,715.84206 63.595395,718.3711 C 65.16388,720.90012 67.09746,726.72246 67.892246,731.30962 C 69.107838,738.32527 70.010664,739.55541 73.576883,739.05499 C 77.230035,738.54239 78.158367,739.9878 80.288971,749.50533 C 82.828197,760.84839 86.110121,764.33619 86.110121,755.69169 C 86.110121,753.01931 87.006136,750.27922 88.101265,749.60259 C 89.196395,748.92596 90.092406,746.63374 90.092406,744.50875 C 90.092406,742.38378 90.988423,740.64516 92.083556,740.64516 C 93.17868,740.64516 94.074698,742.81126 94.074698,745.45871 C 94.074698,752.82405 96.120537,756.56948 100.14363,756.56948 C 104.45338,756.56948 105.10807,757.48022 106.94155,766.0262 C 108.02889,771.09438 107.60444,772.77537 104.98358,773.78078 C 103.05856,774.51927 100.88998,773.88452 99.877649,772.28623 C 98.619861,770.30037 98.109251,770.21765 98.087468,771.99618 C 98.070707,773.36468 95.996128,774.48436 93.477359,774.48436 C 90.958554,774.48436 87.69103,773.36468 86.216229,771.99618 C 84.071049,770.00563 83.815786,770.00563 84.939945,771.99618 C 85.712789,773.36468 85.396256,774.48436 84.236474,774.48436 C 83.076732,774.48436 82.057086,773.36468 81.970611,771.99618 C 81.844871,770.00563 81.612565,770.00563 80.809138,771.99618 C 80.256754,773.36468 78.087441,774.48436 75.988478,774.48436 C 73.889473,774.48436 72.101365,773.36468 72.01489,771.99618 C 71.889149,770.00563 71.656842,770.00563 70.853415,771.99618 C 70.11484,773.82592 62.219834,774.48436 41.018109,774.48436 L 12.187135,774.48436 L 13.117358,695.36035 z M 111.45573,773.28172 C 110.65719,772.48344 110.00385,770.45683 110.00385,768.77813 C 110.00385,766.5376 110.59287,766.31483 112.21899,767.94045 C 113.43734,769.15841 114.09067,771.18503 113.67086,772.44405 C 113.25106,773.70307 112.25424,774.08003 111.45573,773.28172 z M 234.84316,772.99145 C 234.38238,772.17035 233.4314,769.09494 232.72986,766.15722 C 231.9805,763.01911 229.60835,760.25354 226.97896,759.45252 C 224.51743,758.70267 221.15949,756.94243 219.51679,755.5409 C 217.87409,754.13936 211.16543,750.11043 204.60871,746.58773 C 198.05195,743.06504 191.50504,738.49537 190.06,736.43292 C 188.61496,734.37046 186.36345,732.67749 185.05663,732.67075 C 183.74981,732.66402 177.75252,728.08536 171.72932,722.49597 C 165.7061,716.90654 158.70643,710.95031 156.17445,709.25984 C 153.64245,707.56939 149.26808,701.62308 146.45354,696.04579 C 143.63902,690.46851 138.93623,683.15619 136.00291,679.79619 C 128.65607,671.38068 120.83151,651.8437 115.33048,628.17959 C 110.7577,608.50865 110.73456,607.80525 113.36705,568.46337 C 116.5345,521.12558 117.98834,510.76857 124.96258,485.85591 C 134.16207,452.99467 163.53445,388.23007 174.61449,376.37616 C 177.17278,373.63917 181.59184,366.7475 184.43462,361.06134 C 187.27738,355.37518 190.83549,350.00072 192.34149,349.1181 C 193.84749,348.23547 198.74257,343.25422 203.21942,338.04867 C 207.69631,332.84311 218.09625,322.68666 226.33047,315.47877 C 234.56468,308.27086 241.22213,301.78104 241.12477,301.05692 C 240.60948,297.22408 241.70861,296.11238 243.41052,298.74507 C 244.69729,300.7356 245.35083,300.90148 245.37118,299.2427 C 245.3945,297.33827 254.51079,296.75453 284.22898,296.75453 C 308.2837,296.75453 323.05629,297.49744 323.05629,298.70714 C 323.05629,302.43796 332.88736,303.26567 337.93432,299.95978 C 341.99836,297.29772 349.22821,296.75453 380.59524,296.75453 C 416.6006,296.75453 418.42178,296.94009 419.62544,300.73132 C 420.31986,302.91859 424.88113,307.45466 429.76166,310.81153 C 451.62216,325.84739 486.20748,368.40168 497.21319,393.80484 C 499.23173,398.46405 502.03093,403.22826 503.43359,404.39203 C 504.83627,405.5558 508.81086,413.38842 512.26598,421.79782 C 515.72108,430.20724 521.06656,442.501 524.14479,449.1173 C 535.19919,472.87753 543.57993,509.55228 546.94928,548.91144 C 552.21993,610.48078 550.35478,630.90598 536.9941,657.93089 C 534.31688,663.34615 532.12646,669.25359 532.12646,671.05855 C 532.12646,672.8635 530.28896,676.00269 528.04312,678.03452 C 525.79731,680.06634 519.81682,688.26688 514.75316,696.25791 C 509.6895,704.24893 504.5584,710.78704 503.35071,710.78704 C 502.14305,710.78704 498.90819,713.25034 496.16223,716.26103 C 487.72853,725.50767 474.20094,736.66407 471.42264,736.66407 C 469.97281,736.66407 464.97105,739.85091 460.30762,743.74592 C 455.64417,747.64093 449.25588,751.34214 446.11137,751.97086 C 440.23634,753.14552 426.5958,767.04495 426.5958,771.85684 C 426.5958,773.94772 418.25914,774.48436 385.77734,774.48436 C 358.37597,774.48436 344.95888,773.79145 344.95888,772.37632 C 344.95888,771.21692 343.83886,770.91266 342.46995,771.7002 C 341.10104,772.48774 340.62653,772.41777 341.41553,771.54472 C 343.32392,769.43306 335.46974,758.56002 332.036,758.56002 C 330.55321,758.56002 326.27219,762.14299 322.52264,766.52219 L 315.70526,774.48436 L 275.69311,774.48436 C 253.68642,774.48436 235.30393,773.81255 234.84316,772.99145 z M 282.5463,735.58295 C 283.1948,733.89354 283.12368,731.9098 282.38829,731.17464 C 280.75752,729.54437 274.80732,733.07178 273.72804,736.30864 C 272.54823,739.84705 281.18225,739.13653 282.5463,735.58295 z M 388.31367,736.30864 C 387.23439,733.07178 381.28418,729.54437 379.65342,731.17464 C 378.91803,731.9098 378.84692,733.89354 379.49544,735.58295 C 380.85945,739.13653 389.49351,739.84705 388.31367,736.30864 z M 301.1537,723.79558 C 301.1537,719.95512 293.91399,715.96631 292.14299,718.83102 C 290.53416,721.43331 294.73221,726.71138 298.41076,726.71138 C 299.91939,726.71138 301.1537,725.39926 301.1537,723.79558 z M 368.78021,723.81275 C 370.10371,722.21852 370.60705,719.97673 369.89876,718.83102 C 368.12773,715.96631 360.88804,719.95512 360.88804,723.79558 C 360.88804,727.54883 365.66999,727.55923 368.78021,723.81275 z M 227.48137,721.73502 C 227.48137,720.09281 226.02763,718.7492 224.25083,718.7492 C 221.60501,718.7492 221.46897,719.28962 223.49908,721.73502 C 224.86239,723.37722 226.31611,724.72083 226.72957,724.72083 C 227.14305,724.72083 227.48137,723.37722 227.48137,721.73502 z M 440.53382,719.59399 C 440.53382,718.00255 439.30078,717.35663 437.5471,718.02937 C 435.9044,718.65955 434.56039,720.39481 434.56039,721.8855 C 434.56039,723.47694 435.79342,724.12287 437.5471,723.45012 C 439.18979,722.81994 440.53382,721.08469 440.53382,719.59399 z M 253.36624,717.79982 C 253.36624,714.14075 244.32666,707.99551 241.50693,709.73766 C 238.73256,711.45183 238.87532,715.40969 241.81761,718.3511 C 245.22438,721.75685 253.36624,721.3682 253.36624,717.79982 z M 420.96335,717.44542 C 425.46145,713.37594 425.55136,711.57615 421.33738,709.95958 C 417.32521,708.42042 408.67551,713.77633 408.67551,717.79982 C 408.67551,721.78082 416.41817,721.55752 420.96335,717.44542 z M 280.84403,716.36056 C 283.5116,713.69378 284.11198,701.61212 281.65245,700.0925 C 278.86434,698.36987 267.30426,707.06407 267.30426,710.8836 C 267.30426,717.13169 276.39447,720.80876 280.84403,716.36056 z M 390.8861,716.68864 C 396.7239,713.56528 395.59154,707.26668 388.40694,702.89879 C 380.70247,698.21483 378.80833,699.12687 378.80833,707.5206 C 378.80833,717.32303 383.31141,720.74125 390.8861,716.68864 z M 212.80434,701.87893 C 213.47221,700.13902 211.21551,696.25088 207.26621,692.33711 C 203.60032,688.70416 198.24029,682.6357 195.35508,678.85162 C 192.46988,675.06756 189.42849,672.62333 188.59642,673.42003 C 185.82832,676.0704 193.79107,692.59947 200.79943,698.75104 C 208.50534,705.51484 211.14472,706.20255 212.80434,701.87893 z M 234.45038,702.82488 C 233.77354,701.73008 230.53174,700.83434 227.24633,700.83434 C 223.77107,700.83434 221.78757,701.6668 222.50351,702.82488 C 223.18034,703.91967 226.42214,704.81542 229.70751,704.81542 C 233.18277,704.81542 235.16629,703.98295 234.45038,702.82488 z M 439.53825,702.82488 C 440.25416,701.6668 438.27064,700.83434 434.79537,700.83434 C 431.51,700.83434 428.26821,701.73008 427.59137,702.82488 C 426.87544,703.98295 428.85894,704.81542 432.3342,704.81542 C 435.61961,704.81542 438.86142,703.91967 439.53825,702.82488 z M 461.24227,698.75104 C 468.25064,692.59947 476.21342,676.0704 473.44535,673.42003 C 472.61325,672.62333 469.57183,675.06756 466.68663,678.85162 C 463.80145,682.6357 458.44142,688.70416 454.77549,692.33711 C 450.8262,696.25088 448.5695,700.13902 449.23737,701.87893 C 450.89698,706.20255 453.53641,705.51484 461.24227,698.75104 z M 250.17631,696.58363 C 255.54109,694.14001 258.24486,689.67986 255.41962,687.93428 C 252.31974,686.01902 243.41052,691.39607 243.41052,695.18223 C 243.41052,699.48448 243.68357,699.54102 250.17631,696.58363 z M 305.98932,695.7158 C 307.74898,693.95668 309.11829,689.23784 309.11829,684.93286 C 309.11829,680.72263 310.97704,672.94885 313.24887,667.65781 C 317.84652,656.94998 319.91576,640.36222 319.72006,615.78271 C 319.57756,597.8838 316.14377,589.36404 309.07239,589.36404 C 305.58213,589.36404 305.12435,590.77407 305.03325,601.80493 C 304.96537,610.02645 303.32472,618.2964 300.19571,626.18905 C 295.71181,637.49937 295.45858,637.7631 295.41675,631.16541 C 295.39241,627.33361 296.95795,616.69941 298.89569,607.53384 C 301.61711,594.66153 303.85617,589.22572 308.73473,583.64735 C 314.72021,576.80327 315.05164,575.57348 315.07115,560.13584 C 315.08979,545.37968 314.51344,542.91617 308.94916,533.96785 C 303.32271,524.9195 302.92308,523.15773 304.19274,512.99877 C 305.24031,504.617 306.49749,501.61652 309.3397,500.71471 C 314.71511,499.00913 313.98269,493.67552 307.68349,488.65423 C 302.98559,484.9094 302.62511,483.90405 304.9683,481.08152 C 309.70546,475.37536 306.08621,453.31666 297.70685,436.8244 L 290.4899,422.61985 L 294.60203,410.94362 C 296.86371,404.52169 300.21849,395.27528 302.05711,390.39604 C 306.68786,378.10714 304.21457,373.06015 292.79684,371.49966 C 265.54631,367.77527 262.92642,370.14991 274.87662,387.74205 C 288.59411,407.93584 288.12544,416.66947 273.99011,404.26223 C 268.27755,399.24805 266.03773,398.48046 259.78924,399.39551 C 239.83819,402.31721 235.47011,405.7884 230.6826,422.52564 C 226.92298,435.66939 221.63371,440.69019 206.95643,445.04756 C 193.47344,449.05036 188.89887,452.35002 184.76829,461.05188 C 180.2601,470.54937 181.98693,490.45413 187.23148,489.44442 C 189.22123,489.06135 191.08946,485.75263 192.07346,480.86904 C 193.95477,471.53183 199.79086,465.95051 207.67298,465.95051 C 216.15198,465.95051 216.63263,469.47249 208.67164,473.26768 C 201.32675,476.76914 200.01396,479.49659 203.83499,483.31646 C 206.93582,486.41635 203.03798,497.07245 196.18916,504.21889 C 193.27042,507.26448 188.58896,514.00797 185.78591,519.20445 C 181.68617,526.80481 179.52127,528.77982 174.71604,529.30335 C 165.62772,530.2935 164.58387,532.70141 170.07616,540.00633 C 172.78931,543.61492 175.58713,548.13496 176.29346,550.05086 C 176.99983,551.96675 179.47259,553.53431 181.78846,553.53431 C 187.97996,553.53431 185.41279,558.38757 178.81125,559.16283 C 174.83949,559.62924 172.64798,561.43021 171.11651,565.48636 C 169.93875,568.60558 166.90679,572.09982 164.37882,573.25131 C 158.58785,575.88905 158.60348,577.66863 164.46239,582.76132 C 168.47005,586.24489 169.16495,588.75424 169.29994,600.23067 C 169.50233,617.43388 175.58135,630.27191 192.28783,648.77771 C 199.05028,656.2685 206.14247,664.32756 208.04821,666.68677 C 211.49469,670.95329 216.34753,671.84368 231.46165,670.98269 C 241.27952,670.42339 244.74518,668.04817 247.37748,660.07465 C 249.54874,653.4977 258.80844,643.90461 260.93427,646.02979 C 261.47691,646.57227 258.67329,651.18334 254.70396,656.27662 C 247.74248,665.20922 246.94955,668.98568 252.03538,668.98568 C 254.31492,668.98568 259.51026,677.51784 262.13377,685.57008 C 263.25859,689.02233 263.71822,688.979 270.78861,684.75389 C 281.77361,678.18948 282.44357,677.33743 279.86519,673.21009 C 278.08076,670.35364 278.30545,668.50842 280.91062,664.62443 C 285.22846,658.18708 299.16256,642.06388 299.16256,643.50509 C 299.16256,644.11724 296.85412,649.65892 294.03264,655.81992 C 287.80923,669.40953 284.09256,692.09601 287.43088,696.11719 C 290.50411,699.81908 302.1365,699.56747 305.98932,695.7158 z M 224.03937,653.47105 C 221.95507,650.04471 216.11526,643.60314 211.06201,639.15645 C 205.64552,634.39008 200.87236,628.02696 199.43319,623.65395 C 195.55779,611.87815 187.57155,601.34387 179.33486,597.1431 C 175.15183,595.00971 171.72932,592.80304 171.72932,592.23936 C 171.72932,591.67569 173.23565,588.91627 175.0767,586.1073 C 177.7566,582.01849 177.99833,579.87235 176.28879,575.34469 C 173.90288,569.02564 174.65583,567.4681 180.09651,567.4681 C 182.64261,567.4681 185.0907,570.45387 187.84895,576.92316 C 190.06617,582.12346 194.91754,589.51334 198.62977,593.34513 C 202.34205,597.17692 207.56759,605.23861 210.24212,611.26 C 212.91669,617.28138 217.52676,624.44733 220.48676,627.18432 C 230.25737,636.21883 234.32324,649.44386 229.61587,656.87869 C 228.20957,659.09975 227.02199,658.37406 224.03937,653.47105 z M 263.32197,641.36183 C 263.32197,638.85274 269.16691,634.35453 270.58504,635.77225 C 272.62411,637.81068 269.58105,643.10865 266.37117,643.10865 C 264.69411,643.10865 263.32197,642.32259 263.32197,641.36183 z M 249.78913,601.10682 C 242.09756,587.11077 228.9883,567.4681 227.33912,567.4681 C 226.36673,567.4681 223.7427,563.88512 221.50794,559.50592 C 219.27313,555.12673 218.2448,551.54376 219.22272,551.54376 C 223.29124,551.54376 237.09424,569.63809 245.4123,585.87566 C 251.73926,598.22646 255.78342,603.82232 259.32484,605.12628 L 264.31754,606.96463 L 258.74928,607.12176 C 254.49586,607.24181 252.38009,605.8215 249.78913,601.10682 z M 207.89024,554.4375 C 205.88967,550.04807 206.45654,547.76558 212.18382,537.14836 C 222.49216,518.03881 226.63481,519.4433 219.41668,539.60052 C 215.7751,549.76991 215.61882,550.13337 212.78668,555.02152 L 210.19509,559.49454 L 207.89024,554.4375 z M 290.78671,483.95722 C 289.83552,477.47807 292.9314,475.77222 296.92056,480.57742 C 298.61573,482.61936 298.25518,484.06928 295.41272,486.64088 C 291.84402,489.86955 291.63714,489.74952 290.78671,483.95722 z M 227.92151,477.00576 C 222.72869,470.40617 220.54714,463.36248 222.28979,458.82254 C 224.43239,453.24075 228.40799,457.02912 230.97529,467.09905 C 234.48018,480.84638 233.48464,484.076 227.92151,477.00576 z M 253.36624,435.09712 C 250.67563,431.85611 251.31919,431.45097 256.19009,433.31956 C 257.92235,433.98407 259.33968,435.32768 259.33968,436.30536 C 259.33968,439.05873 256.11331,438.40616 253.36624,435.09712 z M 374.61086,696.11719 C 377.95538,692.0885 374.22803,669.39975 367.98042,655.75734 C 365.14321,649.56194 363.25768,644.05726 363.7904,643.52475 C 364.32307,642.99222 365.65781,644.9201 366.75647,647.80893 C 367.85515,650.69776 369.6666,653.06136 370.78198,653.06136 C 371.89734,653.06136 375.48034,656.74664 378.74419,661.25088 C 383.32585,667.57379 384.23638,670.26616 382.73893,673.06327 C 380.02787,678.12746 379.99879,678.07288 387.88231,682.72284 C 396.64759,687.89296 400.71092,688.03241 400.71092,683.16319 C 400.71092,681.10766 402.05495,678.31075 403.69764,676.94785 C 405.34033,675.58494 406.68436,673.23591 406.68436,671.72777 C 406.68436,670.21962 407.9755,668.98568 409.55354,668.98568 C 415.10202,668.98568 414.48518,665.44785 407.33779,656.27662 C 403.36846,651.18334 400.56484,646.57227 401.10749,646.02979 C 403.23618,643.90172 412.4944,653.50198 414.67064,660.09399 C 417.78264,669.5206 424.39507,672.37917 439.99838,671.04323 C 450.22145,670.16794 453.00371,669.12679 455.80452,665.1285 C 457.674,662.45965 464.36393,654.5836 470.67095,647.62616 C 486.52039,630.14221 492.39707,617.47594 492.96385,599.57723 C 493.34786,587.45036 494.05854,584.92789 497.83635,582.28259 C 503.47699,578.33294 503.42983,575.87809 497.66292,573.25131 C 495.13491,572.09982 492.10296,568.60558 490.92524,565.48636 C 489.39373,561.43021 487.20226,559.62924 483.2305,559.16283 C 476.88642,558.4178 473.99084,553.53431 479.89312,553.53431 C 482.37406,553.53431 486.00154,549.90335 490.09129,543.32631 C 493.58242,537.71194 496.00186,532.6815 495.46781,532.1476 C 494.93374,531.61369 491.53926,530.57422 487.92454,529.83764 C 482.74275,528.78176 480.37346,526.61957 476.72587,519.61804 C 474.18134,514.73384 469.50319,508.03456 466.32999,504.73074 C 459.08043,497.18281 455.02645,486.49577 458.20672,483.31646 C 462.17689,479.34748 460.60957,476.02527 453.33293,472.98583 C 445.20464,469.59063 445.90151,465.95051 454.67983,465.95051 C 462.63711,465.95051 470.40097,473.80088 470.40097,481.84682 C 470.40097,485.53072 471.62542,488.44113 473.47355,489.1501 C 477.83546,490.82341 478.47005,489.62124 479.74528,477.26906 C 480.69064,468.11254 480.13825,465.0718 476.44412,459.09637 C 471.6202,451.29348 466.282,447.98135 452.48068,444.22809 C 447.55257,442.88788 442.09019,440.73304 440.34202,439.4395 C 436.07387,436.28141 431.40013,426.74682 429.80967,417.95316 C 427.72313,406.41642 417.97317,400.26397 401.24515,399.92831 C 394.37257,399.7904 391.3319,400.87254 387.03907,404.98411 C 381.12368,410.64967 376.81719,411.75601 376.81719,407.61008 C 376.81719,405.35442 382.88684,394.46253 392.81825,378.89652 C 395.28446,375.03103 395.26999,374.06562 392.7074,371.50876 C 388.72443,367.53466 363.10562,370.83309 359.39468,375.79779 C 355.83858,380.55531 356.20923,383.06212 362.66826,397.93849 C 371.83045,419.0407 372.0407,422.32148 365.07802,435.53972 C 355.72283,453.29995 351.93435,476.04999 357.40354,481.6253 C 359.40248,483.66305 358.81455,485.02966 354.41681,488.56743 C 347.97236,493.75171 347.3296,499.01011 352.92346,500.78497 C 355.26405,501.52762 356.93673,503.83957 356.98093,506.39311 C 357.02231,508.78262 357.50813,513.87278 358.06055,517.70457 C 358.84494,523.1453 357.73801,526.75783 353.0075,534.19567 C 347.51618,542.82968 346.95196,545.2483 346.9706,560.0727 C 346.99007,575.56314 347.32247,576.80437 353.27388,583.60926 C 358.24607,589.29454 360.31149,594.48464 363.17559,608.49101 C 365.16601,618.22494 366.74289,629.32415 366.67978,633.15594 C 366.5778,639.34796 366.02786,638.58529 361.73541,626.29896 C 358.76593,617.79948 356.90576,608.02436 356.90576,600.91956 C 356.90576,591.97502 356.23089,589.36404 353.91903,589.36404 C 343.71137,589.36404 338.65699,609.93617 342.79687,634.63315 C 344.12591,642.56179 344.68957,649.89606 344.04942,650.93152 C 343.40926,651.96697 345.24493,658.70605 348.12861,665.90723 C 351.08038,673.2784 352.88338,680.8672 352.25424,683.27223 C 351.10236,687.67571 353.84363,694.74515 357.70161,697.32042 C 361.38349,699.77814 372.21123,699.00766 374.61086,696.11719 z M 430.7401,652.56372 C 428.47702,646.6042 432.88451,636.11174 441.40108,627.18432 C 445.05652,623.35254 449.98507,615.73871 452.3534,610.26472 C 454.72175,604.79074 459.70758,597.17692 463.43301,593.34513 C 467.15847,589.51334 471.68785,582.79526 473.49835,578.41607 C 478.18458,567.08119 480.07294,565.18568 484.38216,567.4912 C 487.4484,569.13168 487.66162,570.2896 485.80353,575.21064 C 484.03446,579.89604 484.25596,581.97403 486.96501,586.1073 C 488.8061,588.91627 490.31242,591.67569 490.31242,592.23936 C 490.31242,592.80304 486.88992,595.00971 482.70685,597.1431 C 474.4654,601.34631 466.48363,611.87913 462.602,623.67371 C 461.14218,628.10951 456.29751,634.53625 450.59783,639.59803 C 445.34177,644.26587 439.99959,650.10042 438.72637,652.56372 C 437.45314,655.02702 435.51802,657.04244 434.42615,657.04244 C 433.33426,657.04244 431.67555,655.02702 430.7401,652.56372 z M 390.75521,639.12757 C 389.11856,636.07044 389.24095,635.14648 391.28248,635.14648 C 394.20912,635.14648 398.71978,639.00965 398.71978,641.51622 C 398.71978,644.74971 392.81731,642.9795 390.75521,639.12757 z M 402.76681,605.10964 C 406.40701,603.77056 410.17094,598.4945 416.30081,586.13837 C 421.17987,576.30351 428.98754,564.58744 434.65416,558.59768 C 445.02595,547.63433 446.18491,543.76097 441.52939,535.61944 C 438.04825,529.53167 437.6944,523.06178 440.9011,524.13033 C 442.19823,524.56258 446.2288,530.42069 449.85792,537.14836 C 455.67147,547.92548 456.17307,550.00199 454.07481,554.60574 C 451.78265,559.63496 451.63578,559.67555 450.15999,555.6874 C 447.98753,549.8164 445.1368,550.54151 441.31058,557.93834 C 439.49131,561.45536 435.66023,566.68514 432.7971,569.56005 C 429.93394,572.43499 424.45533,580.41047 420.62237,587.28337 C 411.85269,603.0083 407.84988,607.3198 402.20428,607.12176 C 397.91277,606.97124 397.93644,606.88654 402.76681,605.10964 z M 366.31343,486.361 C 363.20245,482.91501 363.13475,482.15025 365.74872,479.98152 C 370.1199,476.35483 372.10921,478.12895 370.90796,484.58266 C 369.86414,490.19048 369.79489,490.21729 366.31343,486.361 z M 429.73311,473.91267 C 432.13228,457.91963 436.77011,451.05441 439.81547,458.98807 C 441.61031,463.66397 438.98715,471.21297 433.45179,477.30164 L 428.38935,482.87011 L 429.73311,473.91267 z M 402.70207,436.30536 C 402.70207,435.32768 404.11935,433.98407 405.85164,433.31956 C 410.72252,431.45097 411.36612,431.85611 408.67551,435.09712 C 405.9284,438.40616 402.70207,439.05873 402.70207,436.30536 z M 414.92613,690.74034 C 409.02997,685.924 406.68436,685.87763 406.68436,690.57746 C 406.68436,694.98393 414.69555,699.30872 417.63565,696.48944 C 418.94549,695.23341 418.01841,693.2663 414.92613,690.74034 z M 156.84833,635.64412 C 157.46654,632.63343 158.82765,626.9311 159.87298,622.9723 C 164.56696,605.19567 160.14172,591.35458 149.76423,591.35458 C 144.04961,591.35458 142.66735,596.77224 146.65859,603.52683 C 148.76003,607.0832 150.32749,614.79714 150.75937,623.70798 C 151.64955,642.07482 151.48402,641.1181 153.7711,641.1181 C 154.84536,641.1181 156.23009,638.65482 156.84833,635.64412 z M 511.40892,624.32435 C 511.77479,615.65992 513.38712,606.80578 515.25758,603.18986 C 517.02802,599.76723 517.99185,595.70411 517.39943,594.16072 C 515.81043,590.02116 508.83729,590.7502 504.02727,595.55876 C 500.40323,599.18169 499.9806,601.3146 500.97032,610.98546 C 502.60888,626.99564 504.44616,635.76023 506.77544,638.67804 C 509.9635,642.67153 510.73515,640.28107 511.40892,624.32435 z M 160.9191,566.61959 C 162.38513,560.78028 157.87188,550.5485 153.83013,550.5485 C 149.394,550.5485 146.67187,560.3457 149.4279,566.39263 C 152.44241,573.00682 159.28163,573.14189 160.9191,566.61959 z M 512.61385,566.39263 C 515.36984,560.3457 512.6477,550.5485 508.2116,550.5485 C 504.16986,550.5485 499.65662,560.78028 501.12264,566.61959 C 502.76012,573.14189 509.59931,573.00682 512.61385,566.39263 z M 165.55371,518.5026 C 170.65394,515.49071 181.68505,498.7504 181.68505,494.02235 C 181.68505,490.12103 172.54241,491.69463 168.41562,496.30626 C 160.64123,504.99401 154.54298,521.68566 159.14336,521.68566 C 159.70451,521.68566 162.58914,520.25329 165.55371,518.5026 z M 501.62997,509.12757 C 499.43216,504.53913 495.83044,498.76955 493.62613,496.30626 C 489.4993,491.69463 480.3567,490.12103 480.3567,494.02235 C 480.3567,499.32702 491.76899,515.92077 497.23915,518.56984 C 505.21048,522.43015 506.58545,519.47335 501.62997,509.12757 z M 319.07401,508.74714 C 319.07401,507.10494 318.17799,505.76132 317.08286,505.76132 C 315.98774,505.76132 315.09172,507.10494 315.09172,508.74714 C 315.09172,510.38933 315.98774,511.73294 317.08286,511.73294 C 318.17799,511.73294 319.07401,510.38933 319.07401,508.74714 z M 346.95003,508.74714 C 346.95003,507.10494 346.05401,505.76132 344.95888,505.76132 C 343.86376,505.76132 342.96774,507.10494 342.96774,508.74714 C 342.96774,510.38933 343.86376,511.73294 344.95888,511.73294 C 346.05401,511.73294 346.95003,510.38933 346.95003,508.74714 z M 169.73818,472.19365 C 169.73818,467.10327 170.57166,460.03316 171.5903,456.4823 C 173.63968,449.33869 171.9723,448.18391 167.29803,453.50962 C 164.09303,457.16134 160.62879,478.41269 162.69399,481.75323 C 163.35304,482.81929 165.2076,483.18692 166.81522,482.5702 C 168.80515,481.80683 169.73818,478.49456 169.73818,472.19365 z M 499.34153,470.42923 C 497.98064,459.18696 493.96844,450.02617 490.40548,450.02617 C 489.33403,450.02617 489.35271,452.65252 490.45141,456.4823 C 491.4701,460.03316 492.30357,467.19911 492.30357,472.40662 C 492.30357,480.71973 492.81736,481.87483 496.51525,481.87483 C 500.4758,481.87483 500.64435,481.19218 499.34153,470.42923 z M 322.65401,467.67062 C 322.98031,464.95375 322.29347,460.22281 321.12764,457.15743 C 319.36611,452.52565 318.50898,451.99805 316.05429,454.03463 C 312.5961,456.90381 312.2047,464.53883 315.22651,470.18341 C 317.97282,475.31337 321.89544,473.98632 322.65401,467.67062 z M 346.87996,470.06245 C 349.84332,464.52707 349.4175,456.88046 345.98745,454.03463 C 343.53703,452.00162 342.68882,452.49093 341.00959,456.9063 C 338.68336,463.02286 338.48916,466.32258 340.19406,470.76405 C 341.82014,475.00036 344.38028,474.73172 346.87996,470.06245 z M 212.54778,427.46015 C 218.7204,420.93271 223.81163,413.14104 225.94605,406.95537 C 230.07794,394.98098 240.97569,383.20063 252.72931,378.00301 C 263.20697,373.36967 263.79614,369.33484 254.2219,367.78163 C 244.7406,366.2435 240.54298,368.10099 225.94645,380.29387 C 216.3751,388.28906 211.13274,394.96378 202.62057,409.99294 C 196.55327,420.70545 191.64077,431.86796 191.64077,434.94204 C 191.64077,439.98884 192.14887,440.38828 197.11642,439.2466 C 200.12802,438.55446 207.07214,433.25053 212.54778,427.46015 z M 470.40097,434.83742 C 470.40097,431.95758 465.72271,421.13465 460.00482,410.78647 C 451.64366,395.6545 446.93554,389.7054 435.95268,380.39457 C 421.75862,368.36133 417.26177,366.43743 406.88775,367.95956 C 398.18012,369.23719 399.21874,373.53949 409.31239,378.00301 C 421.02229,383.18131 431.95055,394.95991 436.09566,406.87039 C 443.26025,427.45699 470.40097,449.58314 470.40097,434.83742 z M 312.47566,418.03663 C 319.32201,415.43446 317.15871,411.21063 308.97962,411.21063 C 304.04058,411.21063 302.01689,412.18084 301.51432,414.7897 C 300.70062,419.01373 305.5481,425.89903 306.76537,422.24824 C 307.19406,420.96265 309.76365,419.06741 312.47566,418.03663 z M 359.89247,416.07227 C 359.89247,412.17009 358.76474,411.22152 353.63088,410.8053 C 346.12489,410.19679 340.18635,415.40866 346.228,417.30232 C 348.26779,417.94167 351.28077,419.23994 352.92346,420.18738 C 357.44767,422.79675 359.89247,421.35313 359.89247,416.07227 z M 319.88672,354.90715 C 310.52005,338.79712 301.56738,329.1505 294.62035,327.68226 C 282.19977,325.05717 274.27326,325.41593 274.27326,328.60318 C 274.27326,330.85197 276.14753,331.42417 281.86633,330.92129 C 291.88509,330.04027 301.37204,336.54091 307.01596,348.15419 C 309.36965,352.99738 314.16564,360.39527 317.67364,364.59393 C 323.18544,371.19088 324.13955,371.68884 324.69742,368.25969 C 325.05245,366.07718 322.88764,360.06854 319.88672,354.90715 z M 354.07141,349.11951 C 358.50719,337.86214 369.7692,330.00519 380.15909,330.91944 C 385.89323,331.424 387.76849,330.85317 387.76849,328.60318 C 387.76849,319.95626 362.42678,327.00774 353.54705,338.12553 C 344.58787,349.3428 336.99431,363.2417 336.99431,368.42289 C 336.99431,372.66792 337.57499,372.40171 343.88848,365.26219 C 347.68026,360.97429 352.26258,353.71009 354.07141,349.11951 z M 268.29983,356.47075 C 270.28198,354.28117 273.9409,352.48967 276.43076,352.48967 C 281.51316,352.48967 287.85569,347.17313 286.12088,344.36703 C 283.73685,340.51072 248.90666,344.85083 243.63602,349.661 C 239.41671,353.51172 242.42741,358.09906 249.76758,359.00338 C 262.95783,360.62846 264.7588,360.38234 268.29983,356.47075 z M 419.58202,356.16869 C 423.7181,352.34784 417.25107,347.64587 404.52034,345.21788 C 388.08462,342.08324 377.42137,341.93987 375.63491,344.82947 C 373.84338,347.72736 380.19361,352.48967 385.8493,352.48967 C 388.20809,352.48967 391.76978,354.29227 393.76424,356.49543 C 396.8417,359.89492 398.9225,360.30939 407.51308,359.23397 C 413.0805,358.53699 418.51153,357.15761 419.58202,356.16869 z M 323.05629,330.66375 C 323.05629,329.60747 321.26425,327.78447 319.07401,326.61264 C 314.68829,324.26619 313.72263,326.43829 317.48109,330.19561 C 320.35994,333.0736 323.05629,333.3 323.05629,330.66375 z M 344.56065,330.19561 C 348.36744,326.38998 347.32763,324.35262 342.96774,327.07459 C 338.94479,329.58621 337.64459,332.58427 340.57837,332.58427 C 341.45446,332.58427 343.24649,331.50937 344.56065,330.19561 z M 334.60494,328.20508 C 338.64095,324.17029 337.27902,321.13465 331.02088,320.21642 C 326.47234,319.54905 325.04744,320.11243 325.04744,322.57819 C 325.04744,325.75034 328.65688,330.59372 331.02088,330.59372 C 331.67793,330.59372 333.29075,329.51883 334.60494,328.20508 z M 307.12715,310.68832 C 307.12715,309.59351 304.49198,308.69777 301.2712,308.69777 C 298.05046,308.69777 294.86153,309.59351 294.1847,310.68832 C 293.45236,311.87292 295.82332,312.67885 300.04059,312.67885 C 303.93821,312.67885 307.12715,311.78311 307.12715,310.68832 z M 366.27112,309.84028 C 364.30377,308.34871 360.94371,307.58592 358.80432,308.1452 C 352.23425,309.86279 354.49047,312.68245 362.3814,312.61555 C 369.11143,312.55849 369.49524,312.28465 366.27112,309.84028 z M 548.52626,772.61822 C 549.63376,768.52292 553.33091,767.80398 554.7168,771.41442 C 555.36493,773.10287 555.0273,774.48436 553.96654,774.48436 C 552.90579,774.48436 552.02418,773.36468 552.00741,771.99618 C 551.98675,770.30928 551.29669,770.46953 549.86468,772.49381 C 548.1466,774.92239 547.89685,774.9456 548.52626,772.61822 z M 558.10516,773.48908 C 558.12321,772.39428 559.45349,769.75979 561.06134,767.63464 C 562.66923,765.50951 563.98477,761.40401 563.98477,758.51134 C 563.98477,747.58966 570.93063,750.11207 573.13006,761.83248 C 573.83743,765.6019 575.36744,768.36897 576.53009,767.98155 C 579.07386,767.13388 583.53362,755.3926 583.74472,748.98748 C 583.82803,746.45957 584.63637,744.8486 585.54103,745.40754 C 586.44569,745.96647 590.13062,734.37468 593.72977,719.64797 C 597.32893,704.92129 601.02821,692.87217 601.95042,692.87217 C 602.87265,692.87217 604.1856,696.23121 604.86813,700.3367 C 606.89128,712.50647 607.4555,713.54248 610.62714,710.91109 C 612.16169,709.63791 614.02706,704.16356 614.77242,698.74588 C 615.51777,693.32818 616.81675,688.46973 617.65905,687.94932 C 618.50138,687.4289 620.37204,682.72525 621.81607,677.49676 C 623.26015,672.26827 626.13975,665.66214 628.21522,662.81645 C 631.35256,658.5148 632.29268,652.0047 633.79114,624.20299 C 634.78245,605.81129 635.914,590.44312 636.30572,590.05152 C 637.25184,589.10566 641.6029,609.43332 641.27137,613.25053 C 641.12875,614.89273 641.29397,622.05868 641.63854,629.17486 L 642.26503,642.11337 L 643.63053,632.16068 C 644.38156,626.68669 645.28743,623.99946 645.64359,626.18905 C 645.99972,628.37865 646.8859,624.79567 647.61283,618.2269 C 648.33973,611.6581 649.08514,644.1288 649.26922,690.384 L 649.60397,774.48436 L 616.75009,774.48436 C 591.81067,774.48436 583.88886,773.88496 583.86572,771.99618 C 583.84505,770.30928 583.15501,770.46953 581.72299,772.49381 C 580.13345,774.74075 579.36084,774.8639 578.60082,772.99145 C 578.04537,771.62295 576.71667,770.50326 575.64817,770.50326 C 574.57967,770.50326 574.25923,771.39901 574.93606,772.49381 C 575.61289,773.58861 575.21777,774.48436 574.05798,774.48436 C 572.89824,774.48436 571.87859,773.36468 571.79212,771.99618 C 571.66638,770.00563 571.43407,770.00563 570.63065,771.99618 C 570.07828,773.36468 567.90896,774.48436 565.80999,774.48436 C 563.71098,774.48436 561.97989,773.36468 561.96314,771.99618 C 561.94278,770.3374 561.28926,770.50326 560.00248,772.49381 C 558.94088,774.13601 558.08709,774.58388 558.10516,773.48908 z M 13.852508,601.30929 C 13.280034,599.12076 13.433432,596.946 14.193431,596.47643 C 14.953431,596.00686 15.755286,597.79745 15.975367,600.45552 C 16.459793,606.30709 15.283604,606.78012 13.852508,601.30929 z M 647.77003,602.46843 C 647.68357,600.37008 648.15418,599.19441 648.81582,599.85585 C 649.47745,600.51731 649.54816,602.23413 648.973,603.67106 C 648.33739,605.25897 647.86556,604.78732 647.77003,602.46843 z M 14.586105,590.52519 C 14.499669,588.42683 14.970276,587.25116 15.631914,587.9126 C 16.293551,588.57406 16.364257,590.29088 15.789095,591.72781 C 15.153461,593.31573 14.68164,592.84407 14.586105,590.52519 z M 13.518393,583.52997 C 12.888316,582.51081 13.134123,581.20661 14.064584,580.63173 C 14.995066,580.05683 15.75636,580.89067 15.75636,582.48472 C 15.75636,585.84111 15.128452,586.13436 13.518393,583.52997 z M 13.765216,576.09377 C 11.467355,573.79664 12.297862,569.13725 14.736557,570.64398 C 16.222149,571.56187 16.492148,571.18565 15.499802,569.5805 C 13.86093,566.92954 13.611141,554.6505 14.545704,522.68093 L 15.127597,502.77552 L 16.321885,521.68566 C 16.978724,532.08624 16.918491,542.93912 16.188021,545.80321 C 15.45753,548.66728 15.645195,552.25025 16.605027,553.76537 C 19.078147,557.66916 18.835705,573.43972 16.302532,573.43972 C 15.14279,573.43972 14.747666,574.33545 15.424497,575.43026 C 16.817262,577.68309 15.772787,578.10075 13.765216,576.09377 z M 13.93263,464.76597 C 13.384449,444.0689 12.802378,397.79936 12.639164,361.94475 L 12.342384,296.75453 L 46.073624,296.75453 C 71.195514,296.75453 80.061144,297.38959 80.809138,299.2427 C 81.612565,301.23324 81.844871,301.23324 81.970611,299.2427 C 82.175341,296.0024 91.448096,296.0024 92.755999,299.2427 C 93.559427,301.23324 93.791739,301.23324 93.917472,299.2427 C 94.003954,297.8742 95.418719,296.75453 97.06141,296.75453 C 98.70411,296.75453 100.06185,297.8742 100.07861,299.2427 C 100.09892,300.90148 100.7525,300.7356 102.03927,298.74507 C 104.91347,294.2989 104.64881,305.16307 101.72676,311.57436 C 99.952731,315.46674 98.815853,316.125 96.781894,314.43748 C 94.738085,312.74181 93.682838,313.44999 92.11655,317.56843 C 91.00326,320.49569 90.092406,324.57105 90.092406,326.62475 C 90.092406,334.54232 86.691117,331.91572 84.148426,322.03456 C 81.02669,309.90336 80.795179,310.37457 76.207703,338.195 C 73.046501,357.36562 72.484701,358.91824 70.495049,353.98257 C 69.281367,350.97188 67.430558,348.50859 66.382122,348.50859 C 65.333684,348.50859 63.907129,346.7171 63.211962,344.52751 C 61.717528,339.82047 59.116695,339.35706 57.52119,343.51357 C 56.492744,346.19293 54.165913,367.11593 51.341117,399.08531 C 49.781971,416.73113 48.577707,416.08381 45.329235,395.85377 C 44.676159,391.78667 43.142082,387.84136 41.920176,387.08642 C 40.63334,386.29136 40.252872,386.61049 41.015958,387.84482 C 41.740555,389.0169 41.35724,392.51433 40.164107,395.61689 C 38.970973,398.71946 37.089083,406.18452 35.982067,412.20591 C 34.875089,418.22729 33.332252,426.28898 32.553515,430.12076 L 31.137711,437.08766 L 29.675197,429.69297 C 28.870813,425.62588 27.442726,421.82255 26.50167,421.24113 C 23.737663,419.5334 20.331533,444.15768 20.239581,466.51224 C 20.191615,478.16588 19.013354,490.52091 17.541879,494.79987 C 15.160352,501.72525 14.841211,499.06964 13.93263,464.76597 z M 648.11495,451.02145 C 648.09286,446.64225 648.48251,444.61639 648.98088,446.51952 C 649.47924,448.42265 649.49735,452.00563 649.02109,454.48168 C 648.54482,456.95774 648.13706,455.40064 648.11495,451.02145 z M 644.17285,440.07348 C 644.17285,435.14688 644.56116,433.13146 645.03575,435.59476 C 645.51035,438.05806 645.51035,442.0889 645.03575,444.5522 C 644.56116,447.01548 644.17285,445.00006 644.17285,440.07348 z M 647.27807,422.65624 C 646.96847,404.70415 646.84423,404.14427 645.62168,415.19171 C 644.89475,421.76049 644.11762,424.8956 643.8947,422.1586 C 643.67177,419.42161 642.20891,414.94289 640.64382,412.20591 C 637.88268,407.37724 637.79194,407.52493 637.58772,417.18225 C 637.4719,422.65624 636.6513,428.92644 635.76405,431.11604 C 634.38259,434.52538 633.96406,434.09657 632.84977,428.13023 C 632.1341,424.29844 631.35497,417.36106 631.11833,412.71385 C 630.88172,408.06663 629.93733,404.25972 629.01972,404.25405 C 628.10212,404.24837 627.8876,407.60278 628.54309,411.70826 C 629.60694,418.37216 627.31239,426.52251 625.0568,424.0915 C 624.57833,423.5758 622.29015,412.03231 619.97197,398.43928 C 617.65377,384.84623 615.39032,373.35801 614.94203,372.90988 C 614.49372,372.46172 613.53675,373.95405 612.81541,376.22616 C 610.32696,384.06428 605.79879,379.47551 605.79879,369.11561 C 605.79879,361.01146 597.52916,349.22244 593.56321,351.67279 C 592.83268,352.12413 591.59042,347.80827 590.80261,342.082 C 590.01479,336.35572 586.84899,326.74815 583.76745,320.73183 L 578.16468,309.79306 L 575.9935,315.71467 C 574.79937,318.97157 573.40724,322.81274 572.89989,324.25063 C 572.39257,325.68852 571.13313,326.3433 570.10115,325.70571 C 568.03519,324.42926 560.00248,304.05318 560.00248,300.08906 C 560.00248,296.74477 572.21382,295.97001 574.25451,299.18483 C 575.4978,301.14348 575.88472,301.04203 575.93163,298.74507 C 575.98583,296.09101 576.20706,296.09101 577.92277,298.74507 C 579.20955,300.7356 579.86308,300.90148 579.88344,299.2427 C 579.92306,296.00899 585.25456,296.00899 586.5598,299.2427 C 587.36322,301.23324 587.59553,301.23324 587.72127,299.2427 C 587.83985,297.36594 595.46228,296.75453 618.74123,296.75453 L 649.60397,296.75453 L 649.60397,369.40927 C 649.60397,409.36938 649.15594,442.06402 648.6084,442.06402 C 648.06083,442.06402 647.46219,433.33051 647.27807,422.65624 z M 125.933,299.07684 C 125.933,298.16449 127.23762,297.41803 128.83213,297.41803 C 130.42666,297.41803 131.26977,298.16449 130.70574,299.07684 C 129.37671,301.22661 125.933,301.22661 125.933,299.07684 z M 550.04675,298.74507 C 550.04675,297.65027 550.94276,296.75453 552.03789,296.75453 C 553.13303,296.75453 554.02903,297.65027 554.02903,298.74507 C 554.02903,299.83986 553.13303,300.7356 552.03789,300.7356 C 550.94276,300.7356 550.04675,299.83986 550.04675,298.74507 z"
       id="path6894" />
    <path
       style="fill:#fff9c4;fill-opacity:1"
       d="M 271.02853,708.73827 C 271.02853,706.79439 279.08782,701.62748 280.27254,702.81182 C 280.74906,703.28823 278.8641,705.16807 276.08374,706.98928 C 273.30337,708.81051 271.02853,709.59754 271.02853,708.73827 z M 386.00748,707.07109 C 383.89251,705.52507 382.54728,703.87511 383.01802,703.40448 C 383.48879,702.93388 385.60438,703.81376 387.71932,705.35977 C 389.83429,706.90579 391.17953,708.55577 390.70879,709.02639 C 390.23801,709.49701 388.12243,708.61712 386.00748,707.07109 z M 294.15388,666.5402 C 293.47753,665.44617 294.80946,660.93505 297.11376,656.51551 C 300.83425,649.37978 301.73288,648.74812 305.13891,650.87457 C 309.08269,653.33675 310.42824,656.69203 307.11519,655.80261 C 306.09262,655.52808 303.03469,658.27929 300.31979,661.91642 C 297.6049,665.55353 294.83025,667.63424 294.15388,666.5402 z M 360.64261,660.37325 C 358.23817,657.12205 355.51511,654.92895 354.59135,655.49969 C 353.6676,656.07044 352.9118,655.68206 352.9118,654.63665 C 352.9118,652.80282 357.49437,650.31211 360.86838,650.31211 C 361.76953,650.31211 363.65967,653.23205 365.06868,656.80088 C 366.47771,660.36971 367.98859,663.9635 368.42621,664.78707 C 370.67767,669.02417 364.41333,665.47187 360.64261,660.37325 z M 208.05529,650.41127 C 202.33001,648.09096 189.14526,633.02824 189.14526,628.80777 C 189.14526,626.86965 186.97451,622.09033 184.32137,618.18707 C 179.6082,611.25313 178.44321,607.95292 178.92287,602.8941 C 179.66964,595.01785 191.74743,610.23993 197.92654,626.84513 C 200.47093,633.68269 203.90997,638.08528 210.27767,642.65683 C 215.13134,646.14144 219.10255,649.73861 219.10255,650.65054 C 219.10255,652.71488 213.43659,652.59215 208.05529,650.41127 z M 442.78368,650.58363 C 442.78368,649.63488 446.22001,646.47796 450.41997,643.56828 C 457.61884,638.58097 466.74953,625.65536 466.74953,620.45178 C 466.74953,616.54856 478.90789,600.12412 481.22556,600.89644 C 485.02254,602.16172 484.44462,607.86733 479.82681,614.70603 C 477.35481,618.36689 474.27069,624.50672 472.97319,628.35008 C 470.31846,636.21382 466.4129,641.29321 457.99229,647.8336 C 452.32447,652.23588 442.78368,653.96105 442.78368,650.58363 z M 356.26546,629.25556 C 354.42095,625.38871 352.96587,618.88627 353.03197,614.80564 C 353.13591,608.38745 353.65861,609.26597 356.90571,621.31631 C 358.97016,628.97781 360.42526,635.48027 360.1392,635.76621 C 359.85317,636.05216 358.10999,633.12235 356.26546,629.25556 z M 303.94934,624.8561 C 305.46084,619.64013 307.08747,613.12639 307.56401,610.38114 C 308.09877,607.30068 308.53461,608.6763 308.70246,613.97425 C 308.93487,621.31007 304.67277,634.33971 302.04077,634.33971 C 301.57896,634.33971 302.43781,630.07209 303.94934,624.8561 z M 241.4169,626.63629 C 238.48069,623.49751 234.28092,617.94271 232.08405,614.29227 C 229.88718,610.64185 225.6752,606.24697 222.72411,604.52591 C 215.01069,600.02744 203.12533,584.83793 203.12533,579.47861 C 203.12533,576.59197 201.65796,574.5254 199.14111,573.86742 C 193.1917,572.31208 192.05754,566.77954 196.13606,559.20851 C 200.3902,551.31141 202.5765,550.77821 204.96387,557.05554 C 205.92068,559.5714 208.1552,562.83424 209.92945,564.30631 C 212.88747,566.76048 212.86326,567.20441 209.63823,569.65126 C 205.38927,572.87492 207.80895,573.28695 213.40542,570.29272 C 220.28509,566.61194 231.62638,575.97192 241.02069,593.08364 C 248.91554,607.46408 254.5218,612.37769 263.03465,612.37769 C 265.12524,612.37769 267.73113,613.94997 268.82547,615.87165 C 270.40343,618.64252 271.56058,618.91021 274.41688,617.16515 C 282.69626,612.10685 278.44306,602.91637 266.03564,599.05467 C 261.39914,597.61158 258.68924,594.42737 254.05272,584.97441 C 250.75742,578.25592 243.68387,568.11903 238.3337,562.44799 L 228.60615,552.13698 L 229.99257,538.07127 C 230.75511,530.33513 232.38228,522.39953 233.6085,520.43661 C 235.30945,517.71382 235.16444,516.00082 232.99688,513.21156 C 230.26974,509.70217 230.32092,509.69568 234.27286,513.04944 C 239.11047,517.15481 241.76011,517.39403 246.89388,514.18891 C 249.91625,512.30197 251.69561,512.50935 255.85396,515.2332 C 259.85853,517.85629 261.04276,518.01743 261.04276,515.93919 C 261.04276,512.69068 254.64065,506.75444 244.79077,500.86986 C 240.79513,498.48276 236.33341,495.09319 234.87586,493.33746 C 233.4183,491.58176 236.2381,492.71568 241.14209,495.85728 C 246.04609,498.99889 251.85586,502.52623 254.05272,503.69583 C 256.24959,504.86543 259.95124,509.7307 262.27863,514.50752 L 266.51021,523.19268 L 262.39696,530.3499 C 260.13466,534.28641 256.63191,539.68256 254.61308,542.34144 C 249.92755,548.51236 252.84246,552.34124 259.51007,548.77393 C 263.80985,546.47345 272.08548,535.00237 271.45526,532.21638 C 271.03885,530.37554 280.81146,528.16171 283.1033,529.57771 C 284.1512,530.22517 285.00861,531.97057 285.00861,533.45639 C 285.00861,535.05224 288.27813,536.71012 292.99722,537.50716 C 300.62428,538.79535 303.53975,542.68146 298.98867,545.49334 C 297.89024,546.172 296.99153,548.28046 296.99153,550.17881 C 296.99153,552.07718 294.3319,556.74099 291.08122,560.54285 C 287.83056,564.34475 285.13441,569.02765 285.08976,570.94933 C 285.04512,572.871 284.27934,574.44327 283.38803,574.44327 C 281.08791,574.44327 272.56971,582.63917 273.69778,583.76688 C 276.1317,586.20005 291.49589,579.31683 294.18927,574.58664 C 305.19057,555.26583 308.97444,552.07898 308.97444,562.13433 C 308.97444,570.98907 307.24111,574.1201 299.38467,579.45708 C 292.48758,584.14235 292.3084,584.59138 292.775,596.02046 C 293.13199,604.76505 292.1821,609.82498 289.05903,615.81491 C 285.291,623.04185 283.90426,623.99543 275.44957,625.17337 C 270.27191,625.89472 264.29112,627.80305 262.15891,629.41405 C 255.86555,634.16909 247.40341,633.03585 241.4169,626.63629 z M 399.84489,629.97623 C 397.64802,628.63092 391.80635,626.50376 386.8634,625.24919 C 373.75455,621.92206 368.50003,613.51711 369.1047,596.84303 C 369.55352,584.46653 369.44118,584.17125 362.48677,579.44702 C 354.64501,574.12002 352.9118,570.98619 352.9118,562.13433 C 352.9118,552.07898 356.69567,555.26583 367.69696,574.58664 C 370.11595,578.83491 381.38678,584.42602 387.53171,584.42602 C 390.4741,584.42602 386.19679,578.90366 380.77409,575.70136 C 377.49386,573.76428 375.33966,571.3227 375.98697,570.27564 C 376.63429,569.22858 374.7643,565.52099 371.83143,562.03653 C 366.73868,555.98597 365.07341,552.76623 362.10524,543.23119 C 360.96682,539.57416 361.76752,538.7872 367.7726,537.66098 C 371.6188,536.93964 376.01669,534.56396 377.54567,532.38168 C 379.85841,529.0808 381.2168,528.75259 385.6275,530.42902 C 388.54351,531.53736 391.71659,534.48178 392.67878,536.97222 C 395.35386,543.89603 404.10454,551.1932 407.95919,549.71448 C 411.00653,548.54548 411.02043,548.06644 408.12601,543.97139 C 406.38919,541.51417 402.82285,535.80613 400.20081,531.2869 L 395.43345,523.07009 L 399.63633,514.39976 C 402.68497,508.11056 406.40906,504.33512 413.1968,500.65237 C 418.34349,497.85998 425.53325,492.88283 429.17404,489.59202 L 435.79365,483.60873 L 428.80362,491.26195 C 424.9591,495.47122 419.11743,500.29125 415.82212,501.97317 C 407.17173,506.38833 400.84348,512.69103 400.84348,516.89142 C 400.84348,520.30447 401.09772,520.28233 404.83778,516.5434 C 409.2461,512.13641 413.86294,511.37776 415.92965,514.7208 C 416.66766,515.91455 418.93446,516.45653 420.96696,515.92516 C 426.1961,514.55813 428.63398,518.39603 431.05545,531.80711 C 434.13891,548.88476 433.91815,549.75474 423.42411,561.88087 C 418.14459,567.98151 411.12881,578.41739 407.8335,585.07172 C 402.99989,594.83246 400.53869,597.59732 395.09749,599.3791 C 391.38797,600.59382 386.64648,603.69444 384.56082,606.26934 C 381.00097,610.6642 380.97434,611.17809 384.12559,614.65914 C 388.09094,619.03946 391.52522,619.37985 394.58375,615.69566 C 395.80365,614.22621 400.35533,611.9596 404.6986,610.65873 C 411.74792,608.54734 413.47992,606.63401 420.83647,592.83143 C 427.20562,580.88147 430.90996,576.31507 437.14485,572.72778 C 442.97624,569.37269 445.81664,568.6905 447.3931,570.26648 C 448.5926,571.46564 450.96703,572.41817 452.6696,572.38324 C 455.26506,572.32999 455.19695,571.88862 452.24802,569.65126 C 449.02297,567.20441 448.99877,566.76048 451.95679,564.30631 C 453.73105,562.83424 455.96557,559.5714 456.92238,557.05554 C 459.32623,550.73484 462.03133,551.33188 465.59659,558.97004 C 469.49088,567.3131 468.64814,572.12561 462.77603,575.07681 C 460.19192,576.37551 457.93629,579.40423 457.76354,581.80726 C 457.39456,586.93943 446.51738,599.83103 437.33843,606.01505 C 433.79432,608.40279 429.14174,613.79122 426.99935,617.98936 C 424.85696,622.18753 421.77053,626.72882 420.1406,628.08112 C 415.758,631.71725 404.41717,632.77622 399.84489,629.97623 z M 504.85311,603.5596 C 504.7664,601.45491 505.2384,600.2757 505.90205,600.93912 C 506.56568,601.60259 506.63662,603.32459 506.05971,604.76585 C 505.42218,606.35857 504.94893,605.88548 504.85311,603.5596 z M 155.35133,601.56306 C 155.26462,599.45838 155.73662,598.27915 156.40028,598.94259 C 157.06391,599.60603 157.13484,601.32804 156.55794,602.76931 C 155.92041,604.36201 155.44715,603.88892 155.35133,601.56306 z M 307.32289,599.40013 C 307.68203,596.10582 308.87458,593.83315 309.97301,594.34976 C 312.28258,595.43597 311.54649,600.48216 308.65385,603.39322 C 307.33786,604.71762 306.88977,603.37329 307.32289,599.40013 z M 350.91465,598.40186 C 350.91465,594.76005 351.74347,592.68863 352.9118,593.4105 C 354.01024,594.08915 354.90895,596.33528 354.90895,598.40186 C 354.90895,600.46844 354.01024,602.71457 352.9118,603.39322 C 351.74347,604.11509 350.91465,602.04365 350.91465,598.40186 z M 200.16333,540.55656 C 198.83558,538.40882 199.39935,522.13579 200.75461,523.49063 C 201.2216,523.95748 202.90897,523.03455 204.50433,521.43969 C 209.73031,516.21529 212.37637,517.96343 211.43564,526.019 C 210.10247,537.43512 203.49875,545.95173 200.16333,540.55656 z M 453.99772,537.57739 C 449.96112,531.41865 449.64032,518.53995 453.52351,518.53995 C 459.14187,518.53995 463.94526,529.50045 461.89892,537.65124 C 460.35248,543.8109 458.06932,543.78956 453.99772,537.57739 z M 273.49448,514.11937 C 271.71219,506.61866 268.78922,501.43599 263.03609,495.57574 C 258.64445,491.10235 255.0513,485.60456 255.0513,483.3584 C 255.0513,481.11226 254.42615,478.64954 253.66207,477.88568 C 251.1018,475.3262 251.47896,471.2883 254.27831,471.2883 C 255.8019,471.2883 257.04845,471.93808 257.04845,472.73224 C 257.04845,473.52637 261.2225,476.13758 266.32413,478.53492 C 271.42576,480.93223 276.89054,484.18399 278.46806,485.76104 C 280.0456,487.33811 282.10719,488.15214 283.04941,487.57 C 283.99161,486.98785 285.04255,489.89957 285.38485,494.04042 C 285.90806,500.37021 287.12046,502.13007 292.99722,505.09034 C 299.5275,508.37981 299.69295,508.69025 295.5128,509.81043 C 292.01973,510.74649 291.29165,512.01824 292.19312,515.60894 C 293.48994,520.77437 288.61798,524.52959 280.61964,524.52959 C 276.66002,524.52959 275.60013,522.98104 273.49448,514.11937 z M 371.47284,521.93964 C 368.23254,520.1391 367.56388,518.70498 368.94582,516.5199 C 371.72122,512.13153 371.35275,511.15264 366.39259,509.73695 C 362.12675,508.51943 362.22445,508.31159 368.32014,505.63661 C 373.96785,503.15825 377.42252,497.49232 377.79988,490.08914 C 377.84187,489.26556 378.77494,488.4826 379.87337,488.34922 C 380.97181,488.21582 384.33715,486.0318 387.35191,483.4958 C 390.3667,480.9598 394.86028,478.26734 397.33767,477.51253 C 399.81508,476.75771 403.41481,474.75949 405.33707,473.07203 C 408.52407,470.27431 408.83208,470.35684 408.83208,474.00853 C 408.83208,481.3763 404.21152,491.37288 398.63955,496.05996 C 392.96634,500.83221 388.13837,512.03563 387.01621,523.03217 C 386.77645,525.38175 376.34818,524.64877 371.47284,521.93964 z M 426.80646,512.66813 C 426.80646,511.50524 427.70518,510.55375 428.80362,510.55375 C 429.90205,510.55375 430.80077,510.94995 430.80077,511.43419 C 430.80077,511.91843 429.90205,512.86991 428.80362,513.54858 C 427.70518,514.22725 426.80646,513.83105 426.80646,512.66813 z M 167.17657,505.9104 C 167.17657,504.45468 169.54666,501.0855 172.44342,498.42335 C 177.87822,493.42874 177.94099,493.77604 173.28268,503.0667 C 170.37462,508.86655 167.17657,510.35593 167.17657,505.9104 z M 488.60358,503.0667 C 487.08947,500.04692 485.52224,496.90236 485.12085,496.07878 C 484.71945,495.25521 485.17089,494.58137 486.12403,494.58137 C 487.78298,494.58137 494.70967,504.89718 494.70967,507.36784 C 494.70967,510.53069 491.05536,507.95658 488.60358,503.0667 z M 254.05272,498.57446 C 253.37386,497.47636 253.77017,496.57792 254.93343,496.57792 C 256.0967,496.57792 257.04845,497.47636 257.04845,498.57446 C 257.04845,499.67257 256.65215,500.57102 256.16775,500.57102 C 255.68335,500.57102 254.7316,499.67257 254.05272,498.57446 z M 356.90612,494.58137 C 354.496,493.02431 354.81185,492.63998 358.52185,492.61539 C 361.09333,492.59834 362.58727,493.46804 361.89899,494.58137 C 360.41472,496.98221 360.62229,496.98221 356.90612,494.58137 z M 300.48653,493.25909 C 301.85957,492.70523 304.10638,492.70523 305.47942,493.25909 C 306.85246,493.81297 305.72906,494.26614 302.98298,494.26614 C 300.23688,494.26614 299.11349,493.81297 300.48653,493.25909 z M 227.09116,484.59863 C 225.91545,482.40243 225.40283,480.60553 225.95205,480.60553 C 226.50127,480.60553 227.91259,482.40243 229.08831,484.59863 C 230.26405,486.79484 230.77666,488.59174 230.22744,488.59174 C 229.67823,488.59174 228.26689,486.79484 227.09116,484.59863 z M 242.27701,477.43054 C 240.76117,473.48155 242.40101,470.6228 246.18198,470.6228 C 247.92027,470.6228 249.05984,472.59928 249.05984,475.61416 C 249.05984,481.19745 244.22039,482.49339 242.27701,477.43054 z M 413.55965,478.20681 C 410.55272,473.39307 411.27852,471.42143 416.05747,471.42143 C 421.35554,471.42143 422.30942,474.88363 417.99709,478.46147 C 415.82647,480.26237 414.80713,480.20387 413.55965,478.20681 z M 288.26104,468.47142 C 280.14535,462.08953 278.33245,457.43942 281.48202,451.08296 C 283.64644,446.71481 283.68617,444.71091 281.68718,440.73338 C 279.89152,437.16047 279.82007,435.42278 281.42801,434.42935 C 284.17827,432.73008 289.00291,434.42219 289.00291,437.08603 C 289.00291,438.17165 290.94157,441.78167 293.31104,445.1083 C 295.68052,448.43491 298.28585,454.80125 299.10065,459.25576 C 301.61529,473.00303 297.96757,476.10427 288.26104,468.47142 z M 362.31452,469.98708 C 360.67594,465.71832 364.1106,450.83965 367.63276,446.94889 C 369.42215,444.97222 370.88618,442.36686 370.88618,441.15913 C 370.88618,437.91852 376.90741,432.47112 379.0358,433.78616 C 380.04568,434.41009 380.87194,437.1667 380.87194,439.91195 C 380.87194,443.3737 380.1069,444.44385 378.37551,443.40399 C 376.47305,442.26138 376.40755,442.58963 378.10012,444.78356 C 379.32169,446.36698 380.9262,450.19137 381.66563,453.2822 C 382.78408,457.95726 381.8568,460.05481 376.14925,465.76063 C 368.97601,472.93171 364.02536,474.44411 362.31452,469.98708 z M 193.92446,459.47848 C 194.59118,457.74153 195.13671,455.94463 195.13671,455.48539 C 195.13671,455.02617 196.48479,454.65041 198.13244,454.65041 C 199.79673,454.65041 201.12817,456.42513 201.12817,458.64352 C 201.12817,461.37317 199.79673,462.63661 196.92019,462.63661 C 193.9036,462.63661 193.05542,461.74248 193.92446,459.47848 z M 460.75807,459.75962 C 460.75807,455.59136 464.90128,453.66902 466.94224,456.89032 C 469.64971,461.16362 469.08836,462.63661 464.75238,462.63661 C 462.55551,462.63661 460.75807,461.34197 460.75807,459.75962 z M 452.16811,424.87883 C 448.28642,420.5836 444.0949,414.96831 442.85359,412.4004 C 440.43706,407.40131 455.58378,423.21612 458.93816,429.19443 C 462.05566,434.75053 459.77609,433.29741 452.16811,424.87883 z M 203.20205,429.43135 C 203.24425,428.47748 207.40368,423.2048 212.44516,417.71429 C 218.70254,410.89961 220.49271,409.63238 218.08609,413.72119 C 214.12539,420.45029 203.08378,432.10476 203.20205,429.43135 z M 249.55914,423.37993 C 246.04735,421.96331 246.44048,416.716 250.05842,416.716 C 251.72271,416.716 253.05415,418.49072 253.05415,420.7091 C 253.05415,422.90531 252.82948,424.63126 252.55487,424.54457 C 252.28026,424.45789 250.93218,423.93379 249.55914,423.37993 z M 408.83208,420.64644 C 408.83208,418.48375 410.17945,416.716 411.82782,416.716 C 413.47548,416.716 414.82354,417.96754 414.82354,419.49722 C 414.82354,421.0269 413.47548,422.79558 411.82782,423.42765 C 409.79015,424.20935 408.83208,423.31989 408.83208,420.64644 z M 241.07124,412.84075 C 241.07124,411.67784 241.96995,410.72637 243.06838,410.72637 C 244.16681,410.72637 245.06554,411.12256 245.06554,411.6068 C 245.06554,412.09105 244.16681,413.04252 243.06838,413.72119 C 241.96995,414.39985 241.07124,414.00366 241.07124,412.84075 z M 417.81927,412.7229 C 417.1404,411.62481 417.48369,410.72637 418.58213,410.72637 C 419.68056,410.72637 421.13471,411.62481 421.81358,412.7229 C 422.49245,413.82101 422.14916,414.71947 421.05073,414.71947 C 419.9523,414.71947 418.49815,413.82101 417.81927,412.7229 z M 227.39658,389.88981 C 228.67966,387.0746 230.51555,384.77124 231.47631,384.77124 C 233.51987,384.77124 229.99638,391.96073 227.06525,393.7717 C 225.922,394.47808 226.06406,392.81347 227.39658,389.88981 z M 430.71883,388.38015 L 426.20684,381.77642 L 431.89291,387.20644 C 435.02026,390.19293 437.05064,393.16461 436.4049,393.81015 C 435.75917,394.45572 433.20043,392.01221 430.71883,388.38015 z M 239.07407,379.1508 C 239.07407,377.36656 244.074,372.53461 248.56055,369.983 C 253.6003,367.11678 250.87416,372.17616 245.06554,376.46936 C 241.77024,378.90495 239.07407,380.1116 239.07407,379.1508 z M 417.31999,376.55534 C 410.52502,372.20507 408.03205,367.16181 414.34661,370.54024 C 417.74936,372.36078 426.2581,380.81265 424.61957,380.74451 C 424.17469,380.72601 420.88991,378.8409 417.31999,376.55534 z"
       id="path7439" />
  </g>
</svg>
