<?xml version="1.0" encoding="UTF-8" standalone="no"?>
<!-- Created with Inkscape (http://www.inkscape.org/) -->
<svg
   xmlns:dc="http://purl.org/dc/elements/1.1/"
   xmlns:cc="http://creativecommons.org/ns#"
   xmlns:rdf="http://www.w3.org/1999/02/22-rdf-syntax-ns#"
   xmlns:svg="http://www.w3.org/2000/svg"
   xmlns="http://www.w3.org/2000/svg"
   xmlns:xlink="http://www.w3.org/1999/xlink"
   xmlns:sodipodi="http://sodipodi.sourceforge.net/DTD/sodipodi-0.dtd"
   xmlns:inkscape="http://www.inkscape.org/namespaces/inkscape"
   width="800"
   height="600"
   id="svg2"
   sodipodi:version="0.32"
   inkscape:version="0.46"
   sodipodi:docname="bg9.svg"
   inkscape:output_extension="org.inkscape.output.svg.inkscape"
   version="1.0"
   inkscape:export-filename="C:\Users\Jesper\Documents\Visual Studio 2008\Projects\L2Stack\Debug\data\bg9.png"
   inkscape:export-xdpi="72"
   inkscape:export-ydpi="72">
  <defs
     id="defs4">
    <linearGradient
       inkscape:collect="always"
       id="linearGradient3190">
      <stop
         style="stop-color:#4d597c;stop-opacity:1;"
         offset="0"
         id="stop3192" />
      <stop
         style="stop-color:#4d597c;stop-opacity:0;"
         offset="1"
         id="stop3194" />
    </linearGradient>
    <linearGradient
       id="linearGradient3809">
      <stop
         style="stop-color:#ffffff;stop-opacity:1;"
         offset="0"
         id="stop3811" />
      <stop
         style="stop-color:#d26ed8;stop-opacity:0;"
         offset="1"
         id="stop3813" />
    </linearGradient>
    <inkscape:perspective
       sodipodi:type="inkscape:persp3d"
       inkscape:vp_x="0 : 526.18109 : 1"
       inkscape:vp_y="0 : 1000 : 0"
       inkscape:vp_z="744.09448 : 526.18109 : 1"
       inkscape:persp3d-origin="372.04724 : 350.78739 : 1"
       id="perspective10" />
    <inkscape:perspective
       id="perspective2390"
       inkscape:persp3d-origin="372.04724 : 350.78739 : 1"
       inkscape:vp_z="744.09448 : 526.18109 : 1"
       inkscape:vp_y="0 : 1000 : 0"
       inkscape:vp_x="0 : 526.18109 : 1"
       sodipodi:type="inkscape:persp3d" />
    <radialGradient
       inkscape:collect="always"
       xlink:href="#linearGradient3809"
       id="radialGradient3815"
       cx="281.00748"
       cy="428.15436"
       fx="281.00748"
       fy="428.15436"
       r="46.563232"
       gradientTransform="matrix(1,0,0,1.013986,0,-5.9881696)"
       gradientUnits="userSpaceOnUse" />
    <radialGradient
       inkscape:collect="always"
       xlink:href="#linearGradient3190"
       id="radialGradient3196"
       cx="274.88788"
       cy="384.02182"
       fx="274.88788"
       fy="384.02182"
       r="60.549232"
       gradientTransform="matrix(6.4618524,5.310673,-3.7906033,4.6122815,-45.722609,-2814.5024)"
       gradientUnits="userSpaceOnUse" />
    <radialGradient
       inkscape:collect="always"
       xlink:href="#linearGradient3809"
       id="radialGradient3200"
       gradientUnits="userSpaceOnUse"
       gradientTransform="matrix(1,0,0,1.013986,0,-5.9881696)"
       cx="281.00748"
       cy="428.15436"
       fx="281.00748"
       fy="428.15436"
       r="46.563232" />
    <radialGradient
       inkscape:collect="always"
       xlink:href="#linearGradient3809"
       id="radialGradient4256"
       gradientUnits="userSpaceOnUse"
       gradientTransform="matrix(1,0,0,1.013986,0,-5.9881696)"
       cx="281.00748"
       cy="428.15436"
       fx="281.00748"
       fy="428.15436"
       r="46.563232" />
    <radialGradient
       inkscape:collect="always"
       xlink:href="#linearGradient3190"
       id="radialGradient4258"
       gradientUnits="userSpaceOnUse"
       gradientTransform="matrix(6.4618524,5.310673,-3.7906033,4.6122815,-45.722609,-2814.5024)"
       cx="274.88788"
       cy="384.02182"
       fx="274.88788"
       fy="384.02182"
       r="60.549232" />
  </defs>
  <sodipodi:namedview
     id="base"
     pagecolor="#ffffff"
     bordercolor="#666666"
     borderopacity="1.0"
     gridtolerance="10000"
     guidetolerance="10"
     objecttolerance="10"
     inkscape:pageopacity="0.0"
     inkscape:pageshadow="2"
     inkscape:zoom="0.76777315"
     inkscape:cx="396.75649"
     inkscape:cy="262.52951"
     inkscape:document-units="px"
     inkscape:current-layer="layer1"
     showgrid="false"
     inkscape:window-width="1384"
     inkscape:window-height="1000"
     inkscape:window-x="0"
     inkscape:window-y="14"
     showguides="true"
     inkscape:guide-bbox="true" />
  <metadata
     id="metadata7">
    <rdf:RDF>
      <cc:Work
         rdf:about="">
        <dc:format>image/svg+xml</dc:format>
        <dc:type
           rdf:resource="http://purl.org/dc/dcmitype/StillImage" />
      </cc:Work>
    </rdf:RDF>
  </metadata>
  <g
     inkscape:label="Layer 1"
     inkscape:groupmode="layer"
     id="layer1"
     transform="translate(20.761647,-160.21271)">
    <rect
       style="opacity:1;fill:#220026;fill-opacity:1;fill-rule:evenodd;stroke:#535353;stroke-width:1.01408815px;stroke-linecap:butt;stroke-linejoin:miter;marker:none;marker-start:none;marker-mid:none;marker-end:none;stroke-miterlimit:4;stroke-dasharray:none;stroke-dashoffset:0;stroke-opacity:1;visibility:visible;display:inline;overflow:visible;enable-background:accumulate"
       id="rect3826"
       width="798.9859"
       height="598.9859"
       x="-20.254602"
       y="160.71976"
       inkscape:export-filename="C:\Users\Jesper\Documents\Visual Studio 2008\Projects\L2Stack\Debug\data\bg9.png"
       inkscape:export-xdpi="90"
       inkscape:export-ydpi="90" />
    <g
       id="g4247"
       transform="matrix(1.066045,0,0,1.066045,-5.63959,-48.821263)">
      <path
         sodipodi:nodetypes="ccsssssssssssc"
         id="path2396"
         d="M 412.88238,521.60644 C 412.88238,521.60644 388.13548,541.14347 382.92561,537.8873 C 377.71574,534.63113 353.62008,492.30091 349.06144,490.99845 C 344.5028,489.69598 327.57072,477.32253 323.01208,472.76389 C 318.45344,468.20525 321.05838,459.73921 323.01208,453.22687 C 324.96578,446.71453 330.82689,449.9707 327.57072,444.76083 C 324.31455,439.55096 336.03676,443.45836 340.5954,441.50466 C 345.15404,439.55096 337.99046,434.99232 341.24663,430.43368 C 344.5028,425.87504 347.75897,435.64355 351.01514,438.89972 C 354.27131,442.15589 364.03982,449.9707 367.296,448.66823 C 370.55217,447.36577 373.80834,449.9707 376.41327,453.22687 C 379.01821,456.48304 375.1108,464.94908 371.85463,469.50772 C 368.59846,474.06636 404.41634,502.06942 407.67251,505.32559 C 410.92868,508.58176 412.88238,521.60644 412.88238,521.60644 z"
         style="opacity:1;fill:#4d597c;fill-opacity:1;fill-rule:nonzero;stroke:#000000;stroke-width:2.70000005;stroke-linecap:butt;stroke-linejoin:round;marker:none;marker-start:none;marker-mid:none;marker-end:none;stroke-miterlimit:4;stroke-dasharray:none;stroke-dashoffset:0;stroke-opacity:1;visibility:visible;display:inline;overflow:visible;enable-background:accumulate" />
      <path
         sodipodi:nodetypes="ccscssscccssccssssssccssssscssssscssssssscc"
         id="path3824"
         d="M 379.66944,534.63113 C 395.52481,523.77553 411.59025,513.26645 427.20953,502.06942 C 439.88675,491.98666 453.02291,484.67322 464.4207,480.80056 C 488.93372,472.47169 510.12797,475.33587 534.66314,467.55402 C 529.45327,470.81019 506.66008,467.55402 498.84527,467.55402 C 491.03046,467.55402 474.09838,474.71759 468.23727,476.02006 C 462.37616,477.32253 440.23421,474.06636 433.72187,472.76389 C 427.20953,471.46142 428.51199,466.25155 428.51199,466.25155 L 423.95336,440.20219 L 419.39472,436.94602 C 419.39472,436.94602 421.99965,425.87504 416.13855,423.92134 C 410.27744,421.96764 405.7188,412.19913 405.7188,405.68679 C 405.7188,399.17445 416.13855,389.40594 416.13855,389.40594 C 416.13855,389.40594 417.44102,384.8473 414.18485,358.79794 C 414.18485,358.79794 408.97497,321.02636 414.18485,306.69921 C 419.39472,292.37207 432.4194,265.02024 450.00272,252.64679 C 467.58604,240.27334 498.19404,229.8536 513.82365,228.55113 C 529.45327,227.24866 573.73718,226.59743 590.01803,236.36594 C 606.29889,246.13445 638.86059,268.27641 648.6291,298.23317 C 658.39761,328.18994 652.5365,352.2856 647.32663,365.31028 C 642.11676,378.33496 628.44084,402.43062 618.0211,412.19913 C 606.29889,421.96764 595.22791,425.87504 588.71557,433.68985 C 566.5736,459.08798 563.31743,510.53547 563.64305,511.83794 C 563.96867,513.1404 487.77429,641.43351 490.37923,640.13104 C 492.98416,638.82857 412.23114,708.51061 405.7188,710.46431 C 399.20646,712.41802 352.31761,739.11861 344.5028,737.81614 C 336.688,736.51368 295.00902,731.95504 288.49668,723.489 C 281.98434,715.02295 267.65719,679.20508 267.65719,679.20508 C 267.65719,679.20508 253.33004,619.29155 251.37634,630.36253 C 249.42263,641.43351 243.56153,679.85632 246.8177,686.36866 C 250.07387,692.881 244.864,703.95197 242.91029,709.16185 C 240.95659,714.37172 216.86093,711.76678 210.34859,707.20814 C 203.83625,702.64951 163.45974,690.92729 158.24987,687.67112 C 153.04,684.41495 152.38876,666.83163 152.38876,666.83163 C 152.38876,666.83163 140.66655,658.36559 153.69123,655.10942 C 166.71591,651.85325 194.71898,659.66806 199.27761,659.66806 C 203.83625,659.66806 214.256,649.89955 214.256,645.34091 C 214.256,640.78227 215.55847,529.42125 214.256,524.86262 C 212.95353,520.30398 231.83932,502.06942 246.8177,498.81325 C 261.79608,495.55708 266.35472,505.32559 272.21583,517.04781 C 278.07693,528.77002 302.17259,586.72985 303.47506,581.51998 C 304.77753,576.3101 347.10774,556.12185 347.10774,556.12185 C 347.10774,556.12185 375.36535,537.96687 379.66944,534.63113 z"
         style="opacity:1;fill:#3c4661;fill-opacity:1;fill-rule:nonzero;stroke:#000000;stroke-width:2.70000005;stroke-linecap:butt;stroke-linejoin:round;marker:none;marker-start:none;marker-mid:none;marker-end:none;stroke-miterlimit:4;stroke-dasharray:none;stroke-dashoffset:0;stroke-opacity:1;visibility:visible;display:inline;overflow:visible;enable-background:accumulate" />
      <path
         style="opacity:1;fill:#3c4661;fill-opacity:1;fill-rule:nonzero;stroke:#000000;stroke-width:2.70000005;stroke-linecap:butt;stroke-linejoin:round;marker:none;marker-start:none;marker-mid:none;marker-end:none;stroke-miterlimit:4;stroke-dasharray:none;stroke-dashoffset:0;stroke-opacity:1;visibility:visible;display:inline;overflow:visible;enable-background:accumulate"
         d="M 379.66944,534.63113 C 395.52481,523.77553 411.59025,513.26645 427.20953,502.06942 C 439.88675,491.98666 453.02291,484.67322 464.4207,480.80056 C 477.2084,476.45564 481.92936,469.29568 493.85618,467.94248 C 504.79214,466.70169 522.92723,471.27631 534.66314,467.55402 C 529.45327,470.81019 506.66008,467.55402 498.84527,467.55402 C 491.03046,467.55402 474.09838,474.71759 468.23727,476.02006 C 462.37616,477.32253 440.23421,474.06636 433.72187,472.76389 C 427.20953,471.46142 428.51199,466.25155 428.51199,466.25155 L 423.95336,440.20219 L 419.39472,436.94602 C 419.39472,436.94602 421.99965,425.87504 416.13855,423.92134 C 410.27744,421.96764 405.7188,412.19913 405.7188,405.68679 C 405.7188,399.17445 416.13855,389.40594 416.13855,389.40594 C 416.13855,389.40594 417.44102,384.8473 414.18485,358.79794 C 414.18485,358.79794 408.97497,321.02636 414.18485,306.69921 C 419.39472,292.37207 432.4194,265.02024 450.00272,252.64679 C 467.58604,240.27334 498.19404,229.8536 513.82365,228.55113 C 529.45327,227.24866 573.73718,226.59743 590.01803,236.36594 C 606.29889,246.13445 638.86059,268.27641 648.6291,298.23317 C 658.39761,328.18994 652.5365,352.2856 647.32663,365.31028 C 642.11676,378.33496 628.44084,402.43062 618.0211,412.19913 C 606.29889,421.96764 595.22791,425.87504 588.71557,433.68985 C 566.5736,459.08798 563.31743,510.53547 563.64305,511.83794 C 563.96867,513.1404 487.77429,641.43351 490.37923,640.13104 C 492.98416,638.82857 412.23114,708.51061 405.7188,710.46431 C 399.20646,712.41802 352.31761,739.11861 344.5028,737.81614 C 336.688,736.51368 295.00902,731.95504 288.49668,723.489 C 281.98434,715.02295 267.65719,679.20508 267.65719,679.20508 C 267.65719,679.20508 253.33004,619.29155 251.37634,630.36253 C 249.42263,641.43351 243.56153,679.85632 246.8177,686.36866 C 250.07387,692.881 244.864,703.95197 242.91029,709.16185 C 240.95659,714.37172 216.86093,711.76678 210.34859,707.20814 C 203.83625,702.64951 163.45974,690.92729 158.24987,687.67112 C 153.04,684.41495 152.38876,666.83163 152.38876,666.83163 C 152.38876,666.83163 140.66655,658.36559 153.69123,655.10942 C 166.71591,651.85325 194.71898,659.66806 199.27761,659.66806 C 203.83625,659.66806 214.256,649.89955 214.256,645.34091 C 214.256,640.78227 215.55847,529.42125 214.256,524.86262 C 212.95353,520.30398 231.83932,502.06942 246.8177,498.81325 C 261.79608,495.55708 266.35472,505.32559 272.21583,517.04781 C 278.07693,528.77002 302.17259,586.72985 303.47506,581.51998 C 304.77753,576.3101 347.10774,556.12185 347.10774,556.12185 C 347.10774,556.12185 375.36535,537.96687 379.66944,534.63113 z"
         id="path3828"
         sodipodi:nodetypes="ccsccssscccssccssssssccssssscssssscssssssscc" />
      <path
         sodipodi:type="arc"
         style="opacity:1;fill:url(#radialGradient4256);fill-opacity:1;fill-rule:evenodd;stroke:none;stroke-width:1px;stroke-linecap:butt;stroke-linejoin:miter;marker:none;marker-start:none;marker-mid:none;marker-end:none;stroke-miterlimit:4;stroke-dasharray:none;stroke-dashoffset:0;stroke-opacity:1;visibility:visible;display:inline;overflow:visible;enable-background:accumulate"
         id="path3198"
         sodipodi:cx="281.00748"
         sodipodi:cy="428.15436"
         sodipodi:rx="46.563232"
         sodipodi:ry="47.214466"
         d="M 327.57071,428.15436 A 46.563232,47.214466 0 1 1 234.44424,428.15436 A 46.563232,47.214466 0 1 1 327.57071,428.15436 z"
         transform="matrix(3.0629717,0,0,3.0629717,-578.51319,-894.54433)" />
      <path
         sodipodi:nodetypes="ccsssssssssscsccsscssssssscsssssscc"
         id="path2400"
         d="M 381.62314,684.41495 C 371.49849,684.77109 374.19499,672.30608 371.85463,664.87793 C 369.90093,623.85019 376.41327,578.26381 368.59846,571.75147 C 360.78365,565.23913 335.38553,545.7021 305.42876,548.95827 C 275.472,552.21444 171.27455,565.89036 163.45974,560.68049 C 155.64493,555.47061 97.033871,482.5324 91.823999,490.34721 C 86.614127,498.16202 97.685105,506.62806 93.126467,509.88423 C 88.567829,513.1404 82.055488,532.02619 91.823999,544.39964 C 101.59251,556.77308 117.87336,587.38108 117.87336,595.84712 C 117.87336,604.31317 128.2931,611.47674 139.36408,606.26687 C 150.43506,601.057 151.73753,591.93972 161.50604,593.24219 C 171.27455,594.54466 286.54297,606.26687 298.26519,606.26687 C 309.9874,606.26687 317.80221,607.56934 317.80221,607.56934 C 317.80221,607.56934 302.17259,645.99215 302.17259,654.45819 C 302.17259,662.92423 298.26519,696.7884 298.26519,696.7884 C 296.08648,699.89029 286.45317,715.05053 283.2868,713.06925 C 281.98433,722.83776 304.77752,730.65257 325.61701,735.86245 C 346.4565,741.07232 366.59504,728.53955 380.97191,724.14023 C 395.29905,719.75613 439.58297,683.87413 460.42246,664.2267 C 485.94982,652.50392 506.23161,610.29804 514.47488,597.1496 C 522.72641,583.98798 555.50262,522.25768 562.01496,517.04781 C 568.52731,511.83794 566.5736,494.25462 566.5736,487.74228 C 566.5736,481.22994 579.59828,442.1559 586.11062,434.34109 C 592.62296,426.52628 605.64764,418.06024 615.41616,412.85037 C 625.18467,407.6405 640.39631,379.40385 646.33341,364.69856 C 652.00663,350.64687 652.63741,328.3918 651.23403,311.90909 C 649.84842,295.63511 632.35502,272.48629 632.35502,272.48629 C 632.36258,272.48629 640.30799,304.76182 639.20934,321.5591 C 638.097,338.56562 624.55258,371.17316 615.41616,382.24237 C 608.32019,390.83948 570.95183,427.31224 566.5736,429.13122 C 562.74027,430.72381 547.52743,485.98492 530.75573,485.13735 C 520.80646,484.63456 526.19709,507.93054 527.49956,519.00151 C 528.80203,530.07249 487.77429,567.84407 466.9348,585.42739 C 446.09531,603.01071 416.78978,639.47981 416.78978,639.47981 L 381.62314,684.41495 z"
         style="opacity:1;fill:#000000;fill-opacity:1;fill-rule:nonzero;stroke:#000000;stroke-width:2.70000005;stroke-linecap:butt;stroke-linejoin:round;marker:none;marker-start:none;marker-mid:none;marker-end:none;stroke-miterlimit:4;stroke-dasharray:none;stroke-dashoffset:0;stroke-opacity:1;visibility:visible;display:inline;overflow:visible;enable-background:accumulate" />
      <path
         sodipodi:nodetypes="ccsssssssssssssssssssssssscscc"
         id="path3819"
         d="M 507.96255,504.67437 C 507.96155,496.81166 525.38662,477.10173 541.17549,483.83487 C 588.82931,493.29935 549.24682,529.72831 542.47795,543.74841 C 536.81512,555.47763 530.75574,571.75147 526.1971,576.96135 C 521.63847,582.17122 488.42553,634.26994 483.86689,639.47981 C 479.30825,644.68968 460.42247,658.3656 452.60766,657.06313 C 444.79285,655.76066 437.62927,651.85326 433.07064,644.03845 C 428.512,636.22364 409.62621,526.81632 403.76511,522.25768 C 397.904,517.69905 386.38536,497.02122 386.50741,490.51002 C 386.62834,484.05815 385.36819,476.11544 381.29754,471.29862 C 378.76774,468.30511 370.17305,465.4045 372.83149,461.20449 C 375.82767,456.47091 378.52978,458.43675 381.78595,461.69292 C 385.04212,464.94909 387.60477,469.92006 391.06604,470.48458 C 392.74578,470.75854 392.18472,468.80596 389.43796,463.64662 C 388.11169,461.15544 376.87037,451.33247 379.50664,446.38892 C 383.64018,438.63768 388.94953,442.92438 390.252,445.90049 C 391.41967,448.56858 397.25276,461.69292 400.50893,461.69292 C 403.76511,461.69292 398.84928,449.5793 389.76358,438.73692 C 387.51109,436.04892 392.04289,425.22381 397.25276,432.38739 C 402.46264,439.55096 410.09242,460.38519 410.27745,457.13428 C 411.00437,444.3626 408.85837,446.82188 403.72899,436.06454 C 400.3207,428.91667 411.42152,430.57335 413.98733,438.81394 C 414.661,440.97757 419.36406,448.07028 420.84068,456.13037 C 422.45436,464.93859 430.75498,471.60532 431.76817,476.6713 C 433.72187,486.43981 429.81447,505.3256 433.07064,510.53547 C 436.32681,515.74534 462.37617,576.31011 464.32987,590.63726 C 466.28357,604.96441 470.84221,623.19896 470.84221,623.19896 C 470.84221,623.19896 463.67864,589.33479 465.63234,587.38109 C 467.58604,585.42739 474.09838,575.65888 477.35455,567.84407 C 492.96755,521.97585 495.46353,529.06341 507.96255,504.67437 z"
         style="opacity:1;fill:#2f374d;fill-opacity:1;fill-rule:nonzero;stroke:#000000;stroke-width:2.70000005;stroke-linecap:butt;stroke-linejoin:round;marker:none;marker-start:none;marker-mid:none;marker-end:none;stroke-miterlimit:4;stroke-dasharray:none;stroke-dashoffset:0;stroke-opacity:1;visibility:visible;display:inline;overflow:visible;enable-background:accumulate" />
      <path
         sodipodi:nodetypes="cccccccccccccsccc"
         id="path2408"
         d="M 528.84375,229.875 C 502.8633,229.40093 477.68719,238.688 455.40634,251.50563 C 435.43621,263.92038 424.49361,286.31167 416.0625,307.375 C 411.5171,325.56598 414.87547,344.88928 416.75,363.21875 C 417.22752,372.27798 419.75692,381.9112 417.55678,390.76895 C 412.22093,396.1723 404.95793,403.52775 408.84375,411.8125 C 410.37573,416.84642 413.94126,421.26103 418.90625,423.21875 C 423.26756,426.44154 421.02898,432.94292 422.40992,436.64032 C 428.86826,440.32316 426.40966,449.45508 428.67816,455.60728 C 430.22711,460.05617 429.2715,465.43175 431.21875,469.4375 C 437.555,472.73889 445.58864,472.11274 452.43181,473.48153 C 460.87287,474.84557 469.58598,474.85495 477.39159,471.00673 C 482.15195,470.01977 485.84903,468.7908 481.59375,464 C 474.3144,445.90637 482.76588,437.422 461.88095,419.74599 C 448.87568,408.73895 465.46859,394.36076 468.11714,377.56399 C 449.02896,338.62516 468.21606,274.36429 480.07028,253.89525 C 489.60411,238.85037 508.46568,240.59853 528.84375,229.875 z"
         style="opacity:1;fill:url(#radialGradient4258);fill-opacity:1;fill-rule:nonzero;stroke:none;stroke-width:2.70000005;stroke-linecap:butt;stroke-linejoin:round;marker:none;marker-start:none;marker-mid:none;marker-end:none;stroke-miterlimit:4;stroke-dasharray:none;stroke-dashoffset:0;stroke-opacity:1;visibility:visible;display:inline;overflow:visible;enable-background:accumulate" />
    </g>
  </g>
</svg>
